<svg width="97" height="20" viewBox="0 0 97 20" fill="none" xmlns="http://www.w3.org/2000/svg">
<g clip-path="url(#clip0_613_310)">
<path d="M7.40335 4.81784e-05C3.29772 -0.0149107 0 3.45555 0 7.62907V20H1.58643C1.90959 20 2.16665 19.7383 2.16665 19.4092V12.8273C3.60619 14.2932 5.6333 15.1534 7.85137 15.0038C11.5751 14.757 14.557 11.6605 14.7259 7.86841C14.9315 3.56774 11.5677 0.015007 7.40335 4.81784e-05ZM7.85137 12.7824C4.6124 13.0741 1.90959 10.3217 2.19603 7.02323C2.41637 4.49519 4.42144 2.4533 6.90391 2.22892C10.1429 1.93722 12.853 4.68965 12.5592 7.98808C12.3389 10.5161 10.3338 12.558 7.85137 12.7824Z" fill="white"/>
<path d="M23.3191 12.8123C20.3298 12.8123 17.9135 10.2244 18.1265 7.13541C18.3101 4.44282 20.5061 2.3037 23.1575 2.22143C25.0598 2.16159 26.749 3.15636 27.7038 4.6672C27.8874 4.9589 28.2767 5.01873 28.5411 4.79435L29.7162 3.79211C28.3795 1.42113 25.8236 -0.142073 22.9225 0.0149946C19.1547 0.216939 16.1141 3.35082 15.9525 7.19525C15.7762 11.481 19.1474 15.0187 23.3191 15.0187C26.0513 15.0187 28.4456 13.4929 29.7162 11.2341L28.5338 10.2244C28.2767 10.0075 27.8874 10.0599 27.7112 10.3441C26.7857 11.825 25.1626 12.8048 23.3191 12.8048" fill="white"/>
<path d="M37.1195 6.20793C36.1354 6.05086 35.21 5.90875 34.5636 5.39267C34.0862 5.01122 33.8806 4.41287 34.0275 3.85939C34.1891 3.26103 34.6738 2.74495 35.3201 2.46821C36.6862 1.88482 38.3828 2.41586 39.4845 3.33583C39.6902 3.50785 39.9766 3.50785 40.1822 3.33583L41.4749 2.22887C39.9252 0.546 36.9947 -0.635751 34.4828 0.441287C33.2269 0.979807 32.2795 2.03441 31.9416 3.27599C31.5597 4.68213 32.0591 6.20045 33.2196 7.1279C34.3066 8.00299 35.6213 8.20494 36.7817 8.38444C37.9128 8.56395 38.8823 8.71354 39.5212 9.39417C40.1088 10.0224 40.1896 11.0471 39.6975 11.7277C39.2642 12.3261 38.471 12.715 37.5088 12.7898C36.4806 12.8721 35.4156 12.5804 34.5049 11.9671C33.9173 11.5782 33.4252 11.0471 32.9625 10.3216C32.7789 10.0299 32.3823 9.9626 32.1179 10.187L30.9427 11.1892C31.4789 12.1092 32.2134 13.0666 33.3077 13.807C34.4682 14.5849 35.8269 15.0037 37.1636 15.0037C37.3325 15.0037 37.4941 15.0037 37.663 14.9813C39.2495 14.8616 40.6156 14.1436 41.4235 13.0292C42.5325 11.4959 42.3783 9.28198 41.0709 7.88332C39.9252 6.66417 38.4269 6.42483 37.0975 6.22289" fill="white"/>
<path d="M45.1986 14.9963C45.0517 14.9963 44.9269 14.8692 44.9269 14.7196V0.291754C44.9269 0.142165 45.0517 0.0150146 45.1986 0.0150146C45.3455 0.0150146 45.4704 0.134686 45.4704 0.291754V14.7196C45.4704 14.8692 45.3529 14.9963 45.1986 14.9963Z" fill="white"/>
<path d="M52.8884 4.27081C53.1528 3.96415 53.5421 3.76221 53.9974 3.76221V4.26333C53.4172 4.26333 52.8884 4.62982 52.8884 5.31045V7.15039H52.389V3.81456H52.8884V4.27081Z" fill="white"/>
<path d="M54.4014 5.48992C54.4014 4.54751 55.1652 3.76965 56.098 3.76965C57.0307 3.76965 57.7946 4.54751 57.7946 5.48992C57.7946 6.43233 57.0307 7.23263 56.098 7.23263C55.1652 7.23263 54.4014 6.42485 54.4014 5.48992ZM54.9228 5.48992C54.9228 6.14811 55.437 6.73151 56.098 6.73151C56.759 6.73151 57.2731 6.14811 57.2731 5.48992C57.2731 4.83173 56.759 4.2633 56.098 4.2633C55.437 4.2633 54.9228 4.81677 54.9228 5.48992Z" fill="white"/>
<path d="M63.4352 5.25061V7.15039H62.9358V5.25061C62.9358 4.59242 62.6934 4.26333 62.2087 4.26333C61.6064 4.26333 61.2319 4.60738 61.2319 5.41516V7.15039H60.7324V5.25061C60.7324 4.59242 60.4901 4.26333 60.0053 4.26333C59.4031 4.26333 59.0285 4.60738 59.0285 5.41516V7.15039H58.5291V3.81456H59.0285V4.21845C59.2635 3.93423 59.6014 3.76221 60.0053 3.76221C60.5782 3.76221 60.9307 3.94919 61.107 4.40544C61.3347 3.99407 61.7239 3.76221 62.216 3.76221C63.0607 3.76221 63.4426 4.18853 63.4426 5.24313" fill="white"/>
<path d="M64.177 5.48992C64.177 4.54751 64.9408 3.76965 65.8736 3.76965C66.8064 3.76965 67.5702 4.54751 67.5702 5.48992C67.5702 6.43233 66.8064 7.23263 65.8736 7.23263C64.9408 7.23263 64.177 6.42485 64.177 5.48992ZM64.6985 5.48992C64.6985 6.14811 65.2126 6.73151 65.8736 6.73151C66.5346 6.73151 67.0487 6.14811 67.0487 5.48992C67.0487 4.83173 66.5346 4.2633 65.8736 4.2633C65.2126 4.2633 64.6985 4.81677 64.6985 5.48992Z" fill="white"/>
<path d="M69.0391 4.27824V7.14286H68.5397V4.27824H68.0476V3.81452H68.5397V2.50562H69.0391V3.81452H69.7736V4.27824H69.0391Z" fill="white"/>
<path d="M70.1776 5.48992C70.1776 4.54751 70.9414 3.76965 71.8741 3.76965C72.8069 3.76965 73.5707 4.54751 73.5707 5.48992C73.5707 6.43233 72.8069 7.23263 71.8741 7.23263C70.9414 7.23263 70.1776 6.42485 70.1776 5.48992ZM70.699 5.48992C70.699 6.14811 71.2131 6.73151 71.8741 6.73151C72.5352 6.73151 73.0493 6.14811 73.0493 5.48992C73.0493 4.83173 72.5352 4.2633 71.8741 4.2633C71.2131 4.2633 70.699 4.81677 70.699 5.48992Z" fill="white"/>
<path d="M74.8414 4.27081C75.1058 3.96415 75.495 3.76221 75.9504 3.76221V4.26333C75.3702 4.26333 74.8414 4.62982 74.8414 5.31045V7.15039H74.3419V3.81456H74.8414V4.27081Z" fill="white"/>
<path d="M76.3544 5.48992C76.3544 4.54751 77.1182 3.76965 78.0436 3.76965C78.5431 3.76965 78.9764 4.00152 79.2775 4.36801V3.82201H79.777V7.16532H79.2775V6.61932C78.9837 6.99329 78.5431 7.23263 78.0436 7.23263C77.1182 7.23263 76.3544 6.42485 76.3544 5.48992ZM79.2481 5.48992C79.2481 4.81677 78.6753 4.2633 78.0289 4.2633C77.3826 4.2633 76.8685 4.81677 76.8685 5.48992C76.8685 6.16307 77.3679 6.73151 78.0289 6.73151C78.6899 6.73151 79.2481 6.14811 79.2481 5.48992Z" fill="white"/>
<path d="M85.7481 6.61182C85.4543 6.9858 85.0137 7.22514 84.5142 7.22514C83.5888 7.22514 82.8176 6.41736 82.8176 5.48243C82.8176 4.5475 83.5815 3.76216 84.5142 3.76216C85.0137 3.76216 85.447 3.99402 85.7481 4.36051V2.50562H86.2475V7.14286H85.7481V6.61182ZM85.7187 5.48243C85.7187 4.80928 85.1459 4.2558 84.4995 4.2558C83.8532 4.2558 83.3391 4.80928 83.3391 5.48243C83.3391 6.15558 83.8385 6.72401 84.4995 6.72401C85.1606 6.72401 85.7187 6.14062 85.7187 5.48243Z" fill="white"/>
<path d="M90.3752 5.72182H87.5328C87.6356 6.2753 88.1057 6.73154 88.6859 6.73154C89.0605 6.73154 89.3837 6.54456 89.5893 6.26782H90.2062C89.9345 6.84373 89.3469 7.22518 88.6859 7.22518C87.7605 7.22518 86.9893 6.41741 86.9893 5.48248C86.9893 4.54755 87.7532 3.76221 88.6859 3.76221C89.6187 3.76221 90.3825 4.54007 90.3825 5.48248V5.71434L90.3752 5.72182ZM87.5328 5.23565H89.8317C89.7215 4.68218 89.2514 4.26333 88.6786 4.26333C88.1057 4.26333 87.6356 4.68966 87.5255 5.23565" fill="white"/>
<path d="M52.0952 10.7704C52.0952 9.82803 52.859 9.05017 53.7918 9.05017C54.7245 9.05017 55.4884 9.82803 55.4884 10.7704C55.4884 11.7128 54.7245 12.5131 53.7918 12.5131C52.859 12.5131 52.0952 11.7054 52.0952 10.7704ZM52.6166 10.7704C52.6166 11.4286 53.1307 12.012 53.7918 12.012C54.4528 12.012 54.9669 11.4286 54.9669 10.7704C54.9669 10.1122 54.4528 9.54381 53.7918 9.54381C53.1307 9.54381 52.6166 10.0973 52.6166 10.7704Z" fill="white"/>
<path d="M61.129 10.6208V12.5206H60.6296V10.6208C60.6296 9.96263 60.3872 9.64101 59.9025 9.64101C59.3002 9.64101 58.9183 9.98507 58.9183 10.7928V12.5206H58.4189V10.6208C58.4189 9.96263 58.1765 9.64101 57.6917 9.64101C57.0895 9.64101 56.7076 9.98507 56.7076 10.7928V12.5206H56.2081V9.19225H56.7076V9.59614C56.9426 9.31192 57.2804 9.13989 57.6917 9.13989C58.2646 9.13989 58.6172 9.32688 58.7934 9.78312C59.0211 9.37175 59.4104 9.13989 59.9025 9.13989C60.7471 9.13989 61.129 9.56622 61.129 10.6208Z" fill="white"/>
<path d="M65.2567 11.0022H62.4144C62.5172 11.5557 62.9872 12.0045 63.5675 12.0045C63.9494 12.0045 64.2652 11.8175 64.4708 11.5408H65.0878C64.816 12.1167 64.2285 12.4981 63.5675 12.4981C62.642 12.4981 61.8708 11.6904 61.8708 10.7554C61.8708 9.8205 62.6347 9.03516 63.5675 9.03516C64.5002 9.03516 65.2641 9.81302 65.2641 10.7554V10.9873L65.2567 11.0022ZM62.4144 10.5161H64.7132C64.603 9.96261 64.133 9.54376 63.5601 9.54376C62.9872 9.54376 62.5172 9.97009 62.407 10.5161" fill="white"/>
<path d="M66.5346 9.5512C66.799 9.24455 67.1883 9.0426 67.6437 9.0426V9.54372C67.0635 9.54372 66.5346 9.91022 66.5346 10.5908V12.4308H66.0352V9.10244H66.5346V9.55868V9.5512Z" fill="white"/>
<path d="M72.0431 8.06284C72.0431 7.88333 72.1973 7.7113 72.403 7.7113C72.5866 7.7113 72.7482 7.87585 72.7482 8.06284C72.7482 8.26478 72.5866 8.42933 72.403 8.42933C72.2047 8.42933 72.0431 8.27226 72.0431 8.06284ZM72.1459 9.10248H72.6674V12.4308H72.1459V9.10248Z" fill="white"/>
<path d="M73.4532 10.7704C73.4532 9.82803 74.2171 9.05017 75.1498 9.05017C76.0826 9.05017 76.8464 9.82803 76.8464 10.7704C76.8464 11.7128 76.0826 12.5131 75.1498 12.5131C74.2171 12.5131 73.4532 11.7054 73.4532 10.7704ZM73.9747 10.7704C73.9747 11.4286 74.4888 12.012 75.1498 12.012C75.8109 12.012 76.325 11.4286 76.325 10.7704C76.325 10.1122 75.8109 9.54381 75.1498 9.54381C74.4888 9.54381 73.9747 10.0973 73.9747 10.7704Z" fill="white"/>
<path d="M82.6927 10.7704C82.6927 9.82803 83.4566 9.05017 84.3894 9.05017C85.3221 9.05017 86.086 9.82803 86.086 10.7704C86.086 11.7128 85.3221 12.5131 84.3894 12.5131C83.4566 12.5131 82.6927 11.7054 82.6927 10.7704ZM83.2142 10.7704C83.2142 11.4286 83.7283 12.012 84.3894 12.012C85.0504 12.012 85.5645 11.4286 85.5645 10.7704C85.5645 10.1122 85.0504 9.54381 84.3894 9.54381C83.7283 9.54381 83.2142 10.0973 83.2142 10.7704Z" fill="white"/>
<path d="M90.5955 8.1301C90.5955 7.95059 90.7498 7.77856 90.9554 7.77856C91.139 7.77856 91.3079 7.94311 91.3079 8.1301C91.3079 8.33204 91.1464 8.49659 90.9554 8.49659C90.7571 8.49659 90.5955 8.33952 90.5955 8.1301ZM90.6983 9.16974H91.2198V12.4981H90.6983V9.16974Z" fill="white"/>
<path d="M92.0791 10.7704C92.0791 9.82803 92.8429 9.05017 93.7757 9.05017C94.2751 9.05017 94.7085 9.28203 95.0096 9.64852V9.10253H95.509V12.4458H95.0096V11.8998C94.7158 12.2738 94.2751 12.5131 93.7757 12.5131C92.8503 12.5131 92.0791 11.7054 92.0791 10.7704ZM94.9729 10.7704C94.9729 10.0973 94.4 9.54381 93.7537 9.54381C93.1073 9.54381 92.5932 10.0973 92.5932 10.7704C92.5932 11.4436 93.0927 12.012 93.7537 12.012C94.4147 12.012 94.9729 11.4286 94.9729 10.7704Z" fill="white"/>
<path d="M97 7.7113H96.5005V12.4233H97V7.7113Z" fill="white"/>
<path d="M49.8698 3.76964C48.9664 3.83696 48.2833 4.62978 48.2833 5.54975V8.38445H48.6359C48.7167 8.38445 48.7828 8.31714 48.7828 8.23486V6.73898C49.1206 7.08303 49.5907 7.2775 50.1121 7.2401C50.9274 7.18026 51.6031 6.52207 51.6912 5.69934C51.8087 4.61482 50.9274 3.69485 49.8698 3.76964ZM50.2003 6.71654C49.3777 6.85117 48.6726 6.13314 48.8048 5.29545C48.8856 4.78685 49.2895 4.37548 49.789 4.2932C50.6116 4.15109 51.3166 4.8766 51.1844 5.7143C51.1037 6.2229 50.6997 6.63427 50.2003 6.71654Z" fill="white"/>
<path d="M49.9873 11.997C49.2969 11.997 48.7387 11.3987 48.7901 10.6881C48.8342 10.0673 49.3409 9.5737 49.9505 9.55126C50.3912 9.5363 50.7805 9.76816 51.0008 10.1197C51.0449 10.187 51.133 10.202 51.1918 10.1496L51.4635 9.91775C51.1551 9.37175 50.5675 9.00526 49.8991 9.04266C49.0251 9.08754 48.3274 9.81304 48.2907 10.6956C48.2466 11.6829 49.0251 12.4982 49.9873 12.4982C50.6116 12.4982 51.1551 12.1541 51.4488 11.6455L51.1771 11.4136C51.1183 11.3613 51.0302 11.3762 50.9861 11.4436C50.7731 11.7727 50.4059 11.9896 49.9873 11.9896" fill="white"/>
<path d="M69.7516 11.997C69.0612 11.997 68.503 11.3987 68.5544 10.6881C68.5985 10.0673 69.1052 9.5737 69.7148 9.55126C70.1555 9.5363 70.5448 9.76816 70.7651 10.1197C70.8092 10.187 70.8973 10.202 70.9561 10.1496L71.2278 9.91775C70.9194 9.37175 70.3318 9.00526 69.6634 9.04266C68.7968 9.08754 68.0917 9.81304 68.055 10.6956C68.0182 11.6829 68.7894 12.4982 69.7516 12.4982C70.3759 12.4982 70.9194 12.1541 71.2131 11.6455L70.9414 11.4136C70.8826 11.3613 70.7945 11.3762 70.7504 11.4436C70.5374 11.7727 70.1629 11.9896 69.7516 11.9896" fill="white"/>
<path d="M88.2966 11.982C87.6063 11.982 87.0481 11.3836 87.0995 10.6731C87.1435 10.0523 87.6503 9.55866 88.2599 9.53622C88.7006 9.52126 89.0899 9.75312 89.3102 10.1047C89.3543 10.172 89.4424 10.1869 89.5012 10.1346L89.7729 9.90271C89.4644 9.35671 88.8769 8.9977 88.2085 9.02762C87.3418 9.07249 86.6368 9.798 86.6 10.6806C86.556 11.6679 87.3345 12.4831 88.2966 12.4831C88.9209 12.4831 89.4644 12.1391 89.7582 11.6305L89.4865 11.3986C89.4277 11.3462 89.3396 11.3612 89.2955 11.4285C89.0825 11.7576 88.7079 11.9745 88.2966 11.9745" fill="white"/>
<path d="M81.0549 10.4712C80.8272 10.4338 80.6142 10.4039 80.4673 10.2842C80.3572 10.1945 80.3131 10.0599 80.3425 9.93271C80.3792 9.79808 80.4894 9.67841 80.6436 9.61109C80.9594 9.47646 81.3487 9.59613 81.6058 9.81304C81.6498 9.85043 81.7159 9.85043 81.7673 9.81304L82.0685 9.55874C81.7086 9.16981 81.0329 8.90055 80.46 9.14737C80.1736 9.27452 79.9532 9.51386 79.8724 9.79808C79.7843 10.1197 79.9018 10.4712 80.1662 10.6881C80.4159 10.8901 80.7171 10.935 80.9888 10.9798C81.2459 11.0172 81.4736 11.0546 81.6204 11.2117C81.7527 11.3538 81.7747 11.5931 81.6645 11.7502C81.5617 11.8848 81.3781 11.9746 81.1577 11.997C80.9227 12.012 80.673 11.9447 80.4673 11.81C80.3351 11.7203 80.2176 11.6006 80.1148 11.4286C80.0707 11.3613 79.9826 11.3463 79.9239 11.3987L79.6521 11.6305C79.777 11.84 79.9459 12.0643 80.1956 12.2364C80.4674 12.4159 80.7758 12.5131 81.0843 12.5131C81.121 12.5131 81.1577 12.5131 81.2018 12.5131C81.569 12.4832 81.8849 12.3186 82.0685 12.0643C82.3255 11.7128 82.2888 11.1967 81.9877 10.8751C81.7233 10.5909 81.3781 10.5385 81.0696 10.4937" fill="white"/>
</g>
<defs>
<clipPath id="clip0_613_310">
<rect width="97" height="20" fill="white"/>
</clipPath>
</defs>
</svg>
