<svg width="73" height="28" viewBox="0 0 73 28" fill="none" xmlns="http://www.w3.org/2000/svg">
<g clip-path="url(#clip0_613_340)">
<path d="M8.99647 13.6578C7.68347 14.5474 6.23152 14.8211 4.62675 14.4926C3.05671 14.171 1.82707 13.3567 0.951738 12.0566C0.0764053 10.7702 -0.194531 9.34697 0.131982 7.80738C0.458495 6.26095 1.29215 5.05664 2.61904 4.18763C3.96677 3.32546 5.42566 3.05176 6.98181 3.37336C7.75988 3.53074 8.53796 3.87971 9.30908 4.42028L8.03082 6.15831C7.53063 5.79565 7.02349 5.56984 6.5233 5.4672C5.54376 5.26192 4.64064 5.43299 3.80699 5.9804C2.97334 6.52781 2.45926 7.2805 2.25084 8.23846C2.04243 9.19643 2.21611 10.086 2.77188 10.9002C3.31375 11.7214 4.07793 12.2346 5.07136 12.433C6.07174 12.6383 6.98181 12.4535 7.78767 11.8856C8.60743 11.3176 9.12151 10.5376 9.34382 9.53172L11.4974 9.97649C11.157 11.5503 10.3234 12.782 8.99647 13.6715" fill="white"/>
<path d="M18.7155 9.10749C18.7155 8.14269 18.3612 7.30789 17.6456 6.60994C16.937 5.90515 16.0825 5.54933 15.096 5.54933C14.1095 5.54933 13.262 5.89831 12.5464 6.60994C11.8378 7.30104 11.4905 8.13584 11.4905 9.10749C11.4905 10.0791 11.8448 10.9208 12.5464 11.6187C13.255 12.3098 14.1026 12.6588 15.096 12.6588C16.0895 12.6588 16.9509 12.3098 17.6456 11.6187C18.3612 10.9208 18.7155 10.0791 18.7155 9.10749ZM20.8899 9.10749C20.8899 10.6676 20.3202 12.0019 19.1809 13.1241C18.0555 14.2258 16.6869 14.7732 15.096 14.7732C13.5051 14.7732 12.1366 14.2258 11.0111 13.1241C9.88571 12.0088 9.323 10.6745 9.323 9.10749C9.323 7.54054 9.88571 6.20622 11.0111 5.09088C12.1435 3.96869 13.5121 3.40759 15.096 3.40759C16.68 3.40759 18.0485 3.96869 19.1809 5.09088C20.3202 6.21307 20.8899 7.54738 20.8899 9.10749Z" fill="white"/>
<path d="M31.2827 9.1075C31.2827 8.14269 30.9284 7.30789 30.2198 6.60994C29.4973 5.90515 28.6637 5.54934 27.6772 5.54934C26.6907 5.54934 25.8293 5.89831 25.1207 6.60994C24.419 7.30105 24.0647 8.13585 24.0647 9.1075C24.0647 10.0792 24.419 10.9208 25.1207 11.6187C25.8293 12.3098 26.6768 12.6588 27.6772 12.6588C28.6776 12.6588 29.5182 12.3098 30.2198 11.6187C30.9284 10.9208 31.2827 10.0792 31.2827 9.1075ZM33.4572 9.1075C33.4572 10.6676 32.8875 12.0019 31.7551 13.1241C30.6158 14.2258 29.2542 14.7732 27.6772 14.7732C26.1002 14.7732 24.7177 14.2258 23.5854 13.1241C22.453 12.0088 21.8972 10.6745 21.8972 9.1075V0.0273438H24.0647V4.92666C25.1346 3.91395 26.392 3.4076 27.8578 3.4076C29.4001 3.4076 30.727 3.97554 31.8107 5.09773C32.9084 6.2336 33.4572 7.56791 33.4572 9.1075Z" fill="white"/>
<path d="M40.5154 5.54932C39.515 5.54932 38.6605 5.90514 37.9589 6.60993C37.2642 7.30787 36.9168 8.14952 36.9168 9.12801C36.9168 9.40856 36.9654 9.70963 37.0627 10.0449L42.8288 6.36359C42.141 5.82302 41.363 5.54932 40.5224 5.54932M44.6489 13.083C43.5513 14.2189 42.1827 14.78 40.5501 14.78C38.9176 14.78 37.5768 14.2326 36.4514 13.1446C35.319 12.0567 34.7493 10.7155 34.7493 9.13485C34.7493 7.55421 35.312 6.2199 36.4305 5.09771C37.549 3.97552 38.9176 3.42126 40.5154 3.42126C41.6895 3.42126 42.7593 3.74971 43.725 4.38607C44.6906 5.02244 45.4131 5.88461 45.8994 6.9589L38.2437 11.8582C38.9245 12.4056 39.6957 12.6725 40.5432 12.6725C41.5783 12.6725 42.4259 12.3098 43.0997 11.5914C43.7736 10.8592 44.1209 9.99018 44.1279 8.97747H46.3232C46.3093 10.5855 45.7535 11.954 44.6489 13.0967" fill="white"/>
<path d="M49.769 0.0273438H47.6154V14.7869H49.769V0.0273438Z" fill="white"/>
<path d="M56.5493 5.54932C55.5489 5.54932 54.7014 5.90514 53.9928 6.60993C53.298 7.30787 52.9507 8.14952 52.9507 9.12801C52.9507 9.40856 52.9993 9.70963 53.0966 10.0449L58.8557 6.36359C58.161 5.82302 57.3968 5.54932 56.5493 5.54932ZM60.6828 13.083C59.5852 14.2189 58.2166 14.78 56.584 14.78C54.9514 14.78 53.6037 14.2326 52.4783 13.1446C51.339 12.0567 50.7762 10.7155 50.7762 9.13485C50.7762 7.55421 51.339 6.2199 52.4644 5.09771C53.5829 3.97552 54.9445 3.42126 56.5493 3.42126C57.7164 3.42126 58.7932 3.74971 59.7588 4.38607C60.7245 5.02244 61.4609 5.88461 61.9263 6.9589L54.2776 11.8582C54.9653 12.4056 55.7295 12.6725 56.584 12.6725C57.6191 12.6725 58.4667 12.3098 59.1336 11.5914C59.8144 10.8592 60.1548 9.99018 60.1618 8.97747H62.3501C62.3501 10.5855 61.7943 11.954 60.6828 13.0967" fill="white"/>
<path d="M56.3131 2.1349H54.9306L57.105 0H59.5713L56.3131 2.1349Z" fill="white"/>
<path d="M70.7491 14.5953V8.21795C70.7491 7.49264 70.4782 6.86996 69.9433 6.34308C69.4083 5.8162 68.7692 5.54933 68.0398 5.54933C67.3103 5.54933 66.6712 5.8162 66.1363 6.34308C65.5944 6.86996 65.3304 7.49264 65.3304 8.21795V14.6021H63.1629V8.21795C63.1629 6.94523 63.6492 5.82988 64.6287 4.85823C65.6152 3.89342 66.7476 3.40759 68.0398 3.40759C69.3319 3.40759 70.4573 3.89342 71.4369 4.85823C72.4234 5.83672 72.9236 6.95207 72.9236 8.21795V14.5953H70.7491Z" fill="white"/>
<path d="M51.2209 25.2424C49.1437 25.2424 47.4556 23.6207 47.4556 21.6227C47.4556 19.6246 49.1437 18.0029 51.2209 18.0029C52.0545 18.0029 52.8396 18.2629 53.4995 18.7488C53.7635 18.9472 53.8122 19.3099 53.6107 19.563C53.4092 19.8162 53.0271 19.8641 52.7631 19.6725C52.6867 19.6178 52.6103 19.563 52.5269 19.522C52.5269 19.522 52.513 19.522 52.513 19.5151C52.124 19.2893 51.6725 19.173 51.2139 19.173C49.8037 19.173 48.6644 20.2747 48.6574 21.6295C48.6574 22.9843 49.8037 24.086 51.207 24.086C51.6655 24.086 52.1171 23.9697 52.5061 23.7439C52.5061 23.7439 52.513 23.7439 52.52 23.737C52.6034 23.6891 52.6798 23.6412 52.7562 23.5865C53.0202 23.3881 53.4023 23.4428 53.6037 23.696C53.8052 23.9491 53.7566 24.3186 53.4926 24.5102C52.8326 24.9961 52.0476 25.2561 51.2139 25.2561L51.2209 25.2424ZM68.1648 27.4184V25.0303C68.4983 25.1535 68.8526 25.2424 69.2347 25.2424C71.3119 25.2424 73 23.6207 73 21.6227C73 19.6246 71.3119 18.0029 69.2347 18.0029C68.401 18.0029 67.6091 18.2629 66.9491 18.7488C66.6851 18.9472 66.6365 19.3099 66.8379 19.563C67.0394 19.8162 67.4215 19.8641 67.6855 19.6725C68.1301 19.3441 68.672 19.1662 69.2347 19.1662C70.6449 19.1662 71.7843 20.2678 71.7843 21.6227C71.7843 22.9775 70.638 24.0792 69.2347 24.0792C68.8804 24.0792 68.5191 23.9286 68.1648 23.7439V23.5317C68.1648 23.2101 67.8939 22.9501 67.5604 22.9501C67.227 22.9501 66.956 23.2101 66.956 23.5317V27.4115C66.956 27.7331 67.227 27.9931 67.5604 27.9931C67.8939 27.9931 68.1648 27.7331 68.1648 27.4115M60.2313 24.2639C60.7037 24.6882 61.2872 24.9961 61.9472 25.1466C63.9688 25.5982 65.9904 24.3871 66.4628 22.4438C66.9352 20.5005 65.6708 18.5572 63.6492 18.0987C62.4126 17.8182 61.1344 18.1603 60.2243 18.9814C59.7519 18.5572 59.1684 18.2492 58.5084 18.1055C56.4868 17.6539 54.4582 18.8651 53.9858 20.8084C53.5134 22.7517 54.7778 24.7018 56.7994 25.1534C57.0842 25.215 57.3691 25.2492 57.6539 25.2492C58.6056 25.2492 59.5296 24.9003 60.2243 24.2708M58.2305 19.2414C59.1545 19.4467 59.877 20.1241 60.1201 21C60.2035 21.3079 60.5369 21.4926 60.8565 21.4105C61.1761 21.3284 61.3706 21.0068 61.2872 20.6989C61.2108 20.4184 61.0996 20.1583 60.9607 19.912C61.5859 19.2962 62.496 19.043 63.3644 19.2346C64.733 19.5425 65.5944 20.8631 65.2748 22.1838C64.9553 23.5044 63.5798 24.3255 62.2112 24.0176C61.2178 23.7918 60.4605 23.0322 60.2799 22.0674C60.2174 21.7527 59.9048 21.5405 59.5782 21.5953C59.2517 21.65 59.0294 21.9579 59.0919 22.2727C59.1614 22.6559 59.2934 23.0117 59.481 23.3402C58.8627 23.9491 57.9526 24.216 57.0773 24.0176C55.7087 23.7097 54.8542 22.389 55.1668 21.0684C55.4447 19.9394 56.4937 19.173 57.6539 19.173C57.8415 19.173 58.0429 19.1935 58.2305 19.2346" fill="white"/>
</g>
<defs>
<clipPath id="clip0_613_340">
<rect width="73" height="28" fill="white"/>
</clipPath>
</defs>
</svg>
