<svg width="52" height="27" viewBox="0 0 52 27" fill="none" xmlns="http://www.w3.org/2000/svg">
<g clip-path="url(#clip0_541_175)">
<path d="M23.5715 26.0836C15.8115 17.7283 42.9932 20.5977 49.0908 17.7346C49.7049 17.4502 49.9902 17.0836 50.2321 16.6791C55.9079 22.5001 26.5366 19.5106 23.5653 26.0836M25.2959 9.2655C25.1223 7.58432 23.6832 7.07238 22.0269 7.24935C18.0384 7.67913 15.2346 11.604 15.6502 15.6679C15.9108 18.2276 17.3313 19.5548 19.8187 19.2894C21.4253 19.1187 23.038 18.3034 24.3035 17.1531C24.7005 16.7992 24.4213 15.5731 24.0429 15.9017C22.1262 17.5197 19.4217 18.3856 19.0867 15.1749C19.0681 14.979 19.0433 14.7578 19.0433 14.5366C23.5219 13.993 25.4944 11.2374 25.2897 9.27182M21.4004 8.60188C21.8285 8.55764 22.1138 8.79149 22.1572 9.22758C22.2751 10.3842 21.2392 12.729 19.0681 13.3357C19.1984 11.2437 19.8559 8.7662 21.4004 8.60188ZM26.0961 17.545C26.0341 17.9937 26.1458 18.2655 26.58 18.2213L28.9185 17.9685C29.2845 17.9305 29.4458 17.6208 29.5078 17.1784L30.401 11.2943C30.6554 9.58783 31.8215 8.44387 32.6155 8.36171C33.149 8.30483 33.5212 8.72828 33.3847 9.73952L32.5969 15.1686C32.3302 17.0078 33.0932 17.8989 34.4268 17.7599C35.7108 17.6208 36.6785 16.8751 36.9018 15.4846C36.0024 15.8006 35.8349 15.2255 36.0706 13.7149L36.7467 9.35399C37.0941 7.04078 36.2691 5.75778 34.3586 5.96634C33.242 6.08643 31.9332 6.84486 30.8166 8.22266L31.0089 6.96494C31.0772 6.56045 30.9841 6.28236 30.3886 6.43404L26.8157 7.29991C26.4435 7.86873 26.3815 8.56396 26.8653 8.84205C27.2375 9.06958 27.3864 9.25286 27.2189 10.3715L26.0961 17.545ZM38.3037 13.696C37.9563 16.0092 38.7813 17.2922 40.6919 17.0899C41.8332 16.9699 43.3964 16.1609 44.4075 14.4165C44.3082 15.7501 45.003 16.6286 46.2932 16.4895C47.5772 16.3505 48.5449 15.6047 48.7682 14.2142C47.9308 14.505 47.7261 14.0183 47.8998 12.7416L49.0349 5.01831C49.1032 4.61382 49.0101 4.33573 48.4146 4.48741L44.8355 5.35328C44.4633 5.9221 44.4013 6.61733 44.8851 6.89542C45.2573 7.12295 45.4062 7.30623 45.2387 8.42491L44.9037 10.8456C44.6122 12.868 43.2661 14.5366 42.4721 14.6187C41.9325 14.6756 41.5665 14.2269 41.6968 13.222L42.7637 5.68193C42.8319 5.27744 42.7389 4.99935 42.1434 5.15104L38.5704 6.01691C38.192 6.58573 38.1362 7.28095 38.6201 7.55904C38.9922 7.78657 39.1411 7.96986 38.9736 9.08854L38.2975 13.6897L38.3037 13.696ZM43.2413 3.71635L43.6755 4.1714C43.7313 4.29781 43.8244 4.32941 43.9298 4.29781L48.6814 2.61663C48.9047 1.61803 48.272 -0.0821097 47.4594 0.00637339C46.7956 0.0758959 43.9174 2.62927 43.3095 3.28657C43.2103 3.38769 43.1855 3.5457 43.2475 3.71635M17.1762 3.28657C16.9529 3.28657 16.7047 3.32449 16.4318 3.38769C13.7893 4.06396 11.8726 4.0766 10.0117 4.08292C9.11224 4.08292 8.26863 4.09556 7.36299 4.1714C4.98723 4.39261 3.43026 5.08783 2.86579 6.20019C2.40676 7.11031 2.58665 8.30483 3.39925 9.75848C5.68817 8.48179 9.59608 7.50216 12.7224 7.42632H12.7968L12.7534 7.48952C11.7175 8.91789 10.663 10.3399 9.60228 11.7557C8.49194 13.2346 7.36919 14.7009 6.23403 16.1609C5.16711 17.5324 4.08158 18.9038 2.97744 20.2501C2.38195 20.9769 1.77406 21.7037 1.15996 22.4179C0.775368 22.8666 0.341156 23.309 0.111644 23.8715C-0.142681 24.4972 0.00619205 25.243 0.279125 25.8435C0.521044 26.3743 0.92424 26.8104 1.49492 26.9558C1.64999 26.9937 1.81127 27.0127 1.97255 27.0127C2.16485 27.0127 2.36955 26.9874 2.58665 26.9368C4.64606 26.4628 6.9846 26.368 9.2425 26.2732C10.4893 26.2227 11.6617 26.1721 12.7038 26.0647C15.2967 25.7866 17.0583 24.8385 17.536 23.4607C17.8833 22.4621 17.5111 21.3055 16.5249 20.288C14.0002 22.4621 9.53405 22.8982 5.53929 23.1384H5.45866L5.50828 23.0752C9.25491 17.9558 14.3414 11.2501 17.4987 7.40104C18.1376 6.61733 18.9502 5.91578 18.7393 4.7971C18.6835 4.50637 18.5843 4.2346 18.4602 4.01972C18.1873 3.53938 17.7158 3.29921 17.1762 3.29921M51.1626 14.2522C50.6912 14.2522 50.319 14.6187 50.319 15.0801C50.319 15.5415 50.6911 15.9144 51.1564 15.9144C51.6216 15.9144 51.9938 15.5478 51.9938 15.0801C51.9938 14.6124 51.6278 14.2522 51.1626 14.2522ZM51.1502 14.4165C51.5099 14.4165 51.7829 14.7135 51.7829 15.0864C51.7829 15.4593 51.5162 15.7501 51.1626 15.7437C50.8028 15.7437 50.5299 15.453 50.5299 15.0801C50.5299 14.7072 50.8028 14.4165 51.1564 14.4165M51.0323 15.1812H51.1192C51.2246 15.1812 51.2742 15.2192 51.2866 15.3076C51.3115 15.4088 51.3239 15.4783 51.3487 15.5099H51.5472C51.5472 15.5099 51.5099 15.434 51.4851 15.3076C51.4603 15.1939 51.4231 15.1307 51.3425 15.1054V15.0927C51.4355 15.0611 51.5099 14.9979 51.5099 14.8968C51.5099 14.8147 51.4789 14.7578 51.4231 14.7199C51.3673 14.6819 51.299 14.6567 51.144 14.6567C51.0137 14.6567 50.9083 14.6693 50.8338 14.6819V15.5099H51.0199V15.1812H51.0323ZM51.0323 14.8083C51.0323 14.8083 51.0881 14.7957 51.1378 14.7957C51.2556 14.7957 51.3115 14.8463 51.3115 14.9221C51.3115 15.0106 51.2308 15.0422 51.1254 15.0422H51.0323V14.802V14.8083Z" fill="white"/>
</g>
<defs>
<clipPath id="clip0_541_175">
<rect width="52" height="27" fill="white"/>
</clipPath>
</defs>
</svg>
