<svg width="84" height="15" viewBox="0 0 84 15" fill="none" xmlns="http://www.w3.org/2000/svg">
<g clip-path="url(#clip0_616_447)">
<path d="M27.0819 1.57966L26.3127 2.72727C27.1163 3.5441 27.6177 4.65797 27.6177 5.87984V9.12691C27.6177 11.6247 25.5503 13.6566 23.009 13.6566H5.98234C3.44105 13.6566 1.37367 11.6247 1.37367 9.12691V5.87984C1.3668 3.38209 3.44105 1.34338 5.98234 1.34338H22.7617L23.7096 0.040504C23.4829 0.0135013 23.2494 0 23.009 0H5.98234C2.67866 0 0 2.63276 0 5.87984V9.12691C0 12.374 2.67866 15.0067 5.98234 15.0067H23.009C26.3127 15.0067 28.9913 12.374 28.9913 9.12691V5.87984C28.9913 4.17867 28.2564 2.65302 27.0819 1.57966Z" fill="white"/>
<path d="M15.8247 7.1355C15.8247 7.90508 15.8796 8.67466 15.811 9.43748C15.6736 11.0104 14.6708 12.0365 13.0567 12.2525C12.2325 12.3605 11.4221 12.32 10.6528 12.023C9.6363 11.6382 9.05936 10.8686 8.84644 9.84252C8.77776 9.49824 8.73655 9.1472 8.73655 8.80292C8.73655 7.6148 8.68847 6.41993 8.79149 5.23856C8.93573 3.5644 10.0003 2.57205 11.7174 2.40328C12.3493 2.34252 12.9812 2.35603 13.5993 2.52479C14.9455 2.89608 15.7011 3.90868 15.8178 5.23181C15.8728 5.85963 15.8247 6.49419 15.8247 7.12875V7.1355ZM14.4648 7.33802C14.4648 7.33802 14.4442 7.33802 14.4373 7.33802C14.4373 6.79122 14.4579 6.25116 14.4373 5.70436C14.4029 5.02254 14.245 4.37448 13.5993 3.97619C13.043 3.62515 12.418 3.62515 11.793 3.69941C10.9276 3.80067 10.2751 4.41498 10.2338 5.25882C10.1652 6.55495 10.1377 7.86458 10.1926 9.16071C10.227 10.1531 10.7352 10.7269 11.5663 10.9294C11.8754 11.0036 12.2051 11.0374 12.521 11.0171C13.6062 10.9564 14.2381 10.4163 14.3755 9.36998C14.4648 8.70166 14.4373 8.01309 14.4648 7.33802Z" fill="white"/>
<path d="M20.8042 8.41131C19.932 9.67369 19.0666 10.9226 18.2011 12.1714H16.5527C17.7204 10.5445 18.8605 8.94462 20.0075 7.34471C18.8811 5.75155 17.7684 4.16514 16.6214 2.53823H18.3316C19.1627 3.7466 20.0075 4.98197 20.8661 6.23084C21.7315 4.97522 25.0214 0.249746 25.0214 0.249746L25.9212 0.161987L26.1341 1.02607C26.1341 1.02607 22.8167 5.69079 21.6834 7.2637C22.8304 8.89061 23.9774 10.5108 25.145 12.1647H23.3936C22.5488 10.9361 21.6765 9.68044 20.7974 8.41131H20.8042Z" fill="white"/>
<path d="M7.01946 12.1782H5.63206V4.19891L3.5166 4.5972V3.24707L7.01946 2.53149V12.1782Z" fill="white"/>
<path d="M77.5025 12.347H78.8487C78.9242 13.0693 79.4187 13.3664 80.0781 13.4946C80.607 13.5959 81.129 13.5824 81.6372 13.4069C82.1867 13.2111 82.5026 12.8196 82.5439 12.2458C82.5713 11.8677 82.5439 11.4829 82.5439 11.1386C82.1936 11.2939 81.8502 11.4964 81.4724 11.5977C80.7512 11.7867 80.0094 11.7935 79.2814 11.6314C78.2992 11.4087 77.6398 10.7741 77.5231 9.80876C77.3926 8.76241 77.372 7.6823 77.4613 6.62919C77.5574 5.39382 78.3748 4.66475 79.5905 4.41497C80.504 4.22595 81.4174 4.23946 82.3103 4.57024C83.2444 4.91452 83.7802 5.57609 83.9313 6.54144C83.9725 6.81821 83.9931 7.10174 83.9931 7.38527C83.9931 8.92442 83.9931 10.4636 83.9931 12.0027C83.9931 12.4685 83.9107 12.9208 83.7183 13.3529C83.4367 13.9942 82.9422 14.4195 82.276 14.6287C81.1702 14.973 80.0575 14.9663 78.9654 14.568C77.9695 14.2035 77.4269 13.3799 77.5025 12.3605V12.347ZM82.5507 8.00633C82.5507 7.6688 82.5713 7.32451 82.5507 6.98698C82.5026 6.37942 82.2073 5.94063 81.6098 5.73811C81.0397 5.54234 80.4627 5.53559 79.8858 5.71785C79.2676 5.90687 78.9174 6.33217 78.8899 6.95998C78.8624 7.6688 78.8624 8.38437 78.8899 9.09319C78.9174 9.67375 79.2539 10.0855 79.8171 10.2813C80.3185 10.4568 80.8268 10.4568 81.3488 10.3556C82.0768 10.2138 82.537 9.694 82.5576 8.95818C82.5713 8.6409 82.5576 8.32361 82.5576 8.00633H82.5507Z" fill="white"/>
<path d="M40.3172 12.1715H38.9023V2.28174H40.3172V4.98201C41.3063 4.22593 42.3983 4.19893 43.5041 4.3812C44.4794 4.54321 45.1869 5.29254 45.3723 6.27814C45.4204 6.53466 45.4479 6.79119 45.4479 7.05447C45.4548 8.68138 45.4479 12.1647 45.4479 12.1647H44.033C44.033 12.1647 44.033 8.8704 44.033 7.39875C44.033 7.16248 44.0193 6.91945 43.9575 6.68993C43.7926 6.03511 43.3118 5.67733 42.467 5.60982C42.1167 5.58282 41.7527 5.61657 41.4093 5.69758C40.7019 5.8731 40.3241 6.3794 40.3241 7.11522C40.3172 8.66788 40.3241 10.2138 40.3241 11.7664C40.3241 11.8879 40.3241 12.0095 40.3241 12.1715H40.3172Z" fill="white"/>
<path d="M63.6696 4.44871H65.373C64.5282 5.69758 63.7108 6.90595 62.8866 8.12782C63.7521 9.47121 64.6106 10.8011 65.4897 12.1647H63.7521C63.0652 11.0374 62.3715 9.883 61.6641 8.72188H59.9676V12.158H58.5321V2.28174H59.9401V7.39875H61.719C62.3578 6.4334 63.0171 5.44105 63.6765 4.44871H63.6696Z" fill="white"/>
<path d="M56.8425 12.1647H55.4208C55.4208 12.1647 55.4208 8.88391 55.4208 7.43251C55.4208 7.18274 55.4208 6.93296 55.359 6.68994C55.201 6.04862 54.7202 5.67058 53.9509 5.60308C53.6144 5.57608 53.2572 5.59633 52.9207 5.65708C52.1377 5.81235 51.7325 6.30515 51.7187 7.08823C51.705 8.25609 51.7187 9.42396 51.7187 10.5851C51.7187 11.1049 51.7187 11.6179 51.7187 12.158H50.2764C50.2764 12.158 50.2695 8.68814 50.2764 7.06797C50.2764 6.3524 50.4756 5.68409 51.0044 5.15078C51.389 4.76599 51.8561 4.54322 52.3781 4.42846C53.271 4.23269 54.157 4.22594 55.0361 4.50272C56.19 4.86725 56.7944 5.70434 56.8288 6.8182C56.8769 8.55987 56.8425 10.3083 56.8425 12.05V12.1715V12.1647Z" fill="white"/>
<path d="M33.236 3.79391H30.1727V2.52478H37.7141V3.78041H34.6783V12.1512H33.236V3.79391Z" fill="white"/>
<path d="M48.5455 12.1715H47.1581V4.45544H48.5455V12.1715Z" fill="white"/>
<path d="M67.8594 12.1715H66.4651V4.45544H67.8594V12.1782V12.1715Z" fill="white"/>
<path d="M68.0379 2.4843C68.0517 2.05901 67.7975 1.76198 67.3786 1.73498C67.2206 1.72148 67.0558 1.72148 66.8978 1.73498C66.4857 1.78898 66.2865 2.06576 66.3071 2.51806C66.2934 2.94335 66.5475 3.24038 66.9665 3.26738C67.1244 3.28088 67.2893 3.28088 67.4473 3.26738C67.8594 3.21338 68.0585 2.9366 68.0379 2.4843Z" fill="white"/>
<path d="M48.7172 2.4843C48.7309 2.05901 48.4768 1.76198 48.0578 1.73498C47.8999 1.72148 47.735 1.72148 47.577 1.73498C47.1649 1.78898 46.9658 2.06576 46.9864 2.51806C46.9726 2.94335 47.2268 3.24038 47.6457 3.26738C47.8037 3.28088 47.9685 3.28088 48.1265 3.26738C48.5386 3.21338 48.7378 2.9366 48.7172 2.4843Z" fill="white"/>
<path d="M76.1495 12.1647H74.7277C74.7277 12.1647 74.7277 8.88391 74.7277 7.43251C74.7277 7.18274 74.7277 6.93296 74.6659 6.68994C74.5079 6.04862 74.0271 5.67058 73.2579 5.60308C72.9213 5.57608 72.5642 5.59633 72.2276 5.65708C71.4446 5.81235 71.0394 6.30515 71.0257 7.08823C71.0119 8.25609 71.0257 9.42396 71.0257 10.5851C71.0257 11.1049 71.0257 11.6179 71.0257 12.158H69.5833C69.5833 12.158 69.5764 8.68814 69.5833 7.06797C69.5833 6.3524 69.7825 5.68409 70.3114 5.15078C70.696 4.76599 71.163 4.54322 71.685 4.42846C72.5779 4.23269 73.4639 4.22594 74.3431 4.50272C75.497 4.86725 76.1014 5.70434 76.1357 6.8182C76.1838 8.55987 76.1495 10.3083 76.1495 12.05C76.1495 12.0837 76.1495 12.1715 76.1495 12.1715V12.1647Z" fill="white"/>
</g>
<defs>
<clipPath id="clip0_616_447">
<rect width="84" height="15" fill="white"/>
</clipPath>
</defs>
</svg>
