<svg width="54" height="24" viewBox="0 0 54 24" fill="none" xmlns="http://www.w3.org/2000/svg">
<g clip-path="url(#clip0_542_450)">
<path d="M0 16.323V0.812422C0 0.58882 0.0820215 0.395031 0.238608 0.245963C0.395195 0.0819876 0.581607 0 0.805302 0C1.029 0 1.23032 0.0819876 1.39437 0.238509C1.55841 0.395031 1.65534 0.581367 1.65534 0.812422V10.7031C2.39354 9.7118 3.31814 8.92919 4.42171 8.34037C5.52527 7.75155 6.71831 7.46087 8.00083 7.46087C10.2303 7.46087 12.1168 8.26584 13.6678 9.89068C15.2262 11.5081 15.9942 13.4609 15.9942 15.7416C15.9942 18.0224 15.2187 19.9752 13.6678 21.5776C12.1168 23.1876 10.2229 23.9925 8.00083 23.9925C6.71831 23.9925 5.52527 23.7019 4.42171 23.1354C3.31814 22.5615 2.39354 21.7789 1.65534 20.7876C1.65534 20.7876 0 18.7304 0 16.3155M1.65534 15.4882V15.7565C1.65534 17.5826 2.27423 19.1329 3.52693 20.4149C4.77216 21.6969 6.27092 22.3379 8.01574 22.3379C9.76056 22.3379 11.2519 21.6969 12.4822 20.4149C13.72 19.1329 14.3389 17.5752 14.3389 15.7342C14.3389 13.8932 13.72 12.3429 12.4822 11.046C11.2444 9.75652 9.76056 9.10808 8.0232 9.10808C6.28583 9.10808 4.8169 9.72671 3.58658 10.964C2.36371 12.1938 1.70754 13.7068 1.64789 15.4807" fill="white"/>
<path d="M17.8359 23.1875V8.27324C17.8359 8.04964 17.9105 7.85585 18.0745 7.69932C18.2386 7.5428 18.4325 7.46082 18.6636 7.46082C18.8948 7.46082 19.1035 7.5428 19.2601 7.69932C19.4167 7.85585 19.4913 8.04964 19.4913 8.27324V23.1875C19.4913 23.4111 19.4093 23.6049 19.2378 23.7614C19.0663 23.918 18.8798 23.9999 18.6487 23.9999C18.4175 23.9999 18.2386 23.9254 18.0745 23.7614C17.9105 23.6049 17.8359 23.4111 17.8359 23.1875Z" fill="white"/>
<path d="M39.3181 21.6373C38.9304 21.3019 38.9006 20.9442 39.2212 20.5566C39.3554 20.3777 39.5344 20.2808 39.7581 20.251C39.9818 20.2286 40.1831 20.2957 40.362 20.4522C42.1218 21.7342 43.7175 22.3752 45.1566 22.3752C46.5957 22.3752 47.7365 22.0398 48.5642 21.3615C49.3993 20.8025 49.8094 20.1392 49.7945 19.3864C49.7796 18.6336 49.4142 17.9628 48.6835 17.3814C47.9528 16.8001 46.7672 16.3752 45.1267 16.0994L45.0522 16.0696C43.2999 15.7566 42.0472 15.3243 41.3016 14.7876C40.1085 14.087 39.512 13.1032 39.512 11.8137C39.512 10.5243 40.1011 9.45099 41.3016 8.57894C42.3827 7.8336 43.7324 7.46838 45.3579 7.46838C46.0066 7.46838 46.6628 7.58018 47.3264 7.78888C47.99 8.00503 48.4971 8.20627 48.8475 8.39261C49.198 8.5864 49.6752 8.86963 50.2866 9.2572C50.4656 9.39136 50.5774 9.57025 50.6222 9.8013C50.6595 10.0249 50.6296 10.2261 50.5253 10.405C50.4059 10.5839 50.2419 10.6957 50.0182 10.7404C49.7945 10.7852 49.5932 10.7479 49.4068 10.6435C48.8401 10.2634 48.43 9.98764 48.1466 9.81621C47.8558 9.65223 47.4532 9.4659 46.9088 9.27956C46.372 9.09323 45.8575 8.99633 45.3653 8.99633C44.053 8.99633 43.0315 9.29447 42.2858 9.89074C41.5402 10.487 41.1748 11.1131 41.1748 11.7616C41.1748 12.41 41.488 12.9839 42.1218 13.4833C42.9047 14.0199 44.0306 14.4001 45.4921 14.6311H45.5592C47.0281 14.8547 48.3629 15.3094 49.5783 15.9802C50.8161 16.7926 51.4275 17.8734 51.4275 19.2373C51.4275 20.6013 50.8161 21.7342 49.5857 22.651C48.3554 23.5603 46.9685 24.015 45.4175 24.015C43.285 23.9926 41.2419 23.2025 39.3107 21.6522" fill="white"/>
<path d="M21.4598 23.3292V15.1156C21.4598 10.9044 24.8898 7.47583 29.1028 7.47583H37.372C37.7374 7.47583 38.0356 7.77397 38.0356 8.13918V16.3528C38.0356 20.564 34.6057 23.9926 30.3927 23.9926H22.1235C21.7581 23.9926 21.4598 23.7019 21.4598 23.3292ZM29.1326 9.1603C25.8294 9.1603 23.145 11.851 23.145 15.1454V22.3081H30.3554C33.6587 22.3081 36.3505 19.6174 36.3505 16.323V9.1603H29.1326Z" fill="white"/>
<path d="M24.6288 20.4223V15.3466C24.6288 12.7453 26.7465 10.6285 29.3488 10.6285H34.4565C34.6802 10.6285 34.8666 10.8149 34.8666 11.0385V16.1143C34.8666 18.7155 32.749 20.8323 30.1467 20.8323H25.039C24.8078 20.8323 24.6288 20.6534 24.6288 20.4223ZM29.3339 11.359C27.1417 11.359 25.3521 13.1478 25.3521 15.3391V20.1018H30.1467C32.3463 20.1018 34.1284 18.313 34.1284 16.1143V11.3515H29.3264L29.3339 11.359Z" fill="white"/>
<path d="M10.7746 0.186335C11.1102 0.357764 11.3264 0.663354 11.3935 1.10311H10.9312C10.879 0.857143 10.7597 0.685714 10.5882 0.573913C10.4167 0.462112 10.2005 0.409938 9.93206 0.409938C9.61888 0.409938 9.35791 0.521739 9.14167 0.752795C8.92543 0.983851 8.82104 1.32671 8.82104 1.78882C8.82104 2.18385 8.91052 2.5118 9.08947 2.75776C9.26843 3.00373 9.55177 3.13043 9.95443 3.13043C10.2601 3.13043 10.5137 3.04099 10.7075 2.86957C10.9089 2.69068 11.0132 2.40745 11.0132 2.01988H9.93206V1.6472H11.4457V3.42857H11.1475L11.0356 3.00373C10.879 3.17516 10.7448 3.28696 10.6181 3.35404C10.4167 3.46584 10.1632 3.51801 9.85003 3.51801C9.44738 3.51801 9.10438 3.3913 8.81358 3.13789C8.50041 2.81739 8.33636 2.37764 8.33636 1.81863C8.33636 1.25963 8.49295 0.812422 8.80612 0.484472C9.09693 0.156522 9.47721 0 9.94697 0C10.2676 0 10.5435 0.0596273 10.7746 0.178882" fill="white"/>
<path d="M16.7473 0H18.3952C18.6637 0 18.8874 0.0372671 19.0663 0.119255C19.4018 0.268323 19.5659 0.544099 19.5659 0.946584C19.5659 1.15528 19.5212 1.32671 19.4317 1.46087C19.3422 1.59503 19.2154 1.69938 19.0589 1.78137C19.2005 1.83354 19.3049 1.90807 19.3795 1.99752C19.454 2.08696 19.4913 2.23602 19.4988 2.44472L19.5137 2.91429C19.5137 3.04845 19.5286 3.14534 19.551 3.21242C19.5808 3.32422 19.633 3.39876 19.7076 3.42857V3.51056H19.1036C19.1036 3.51056 19.0738 3.44348 19.0589 3.3913C19.0514 3.34658 19.0439 3.24969 19.0365 3.11553L19.0067 2.53416C18.9917 2.31056 18.9023 2.15404 18.7457 2.07205C18.6562 2.02733 18.5071 2.00497 18.3132 2.00497H17.2246V3.51056H16.7324V0H16.7473ZM18.343 1.60994C18.5667 1.60994 18.7457 1.56522 18.8724 1.47578C19.0067 1.38634 19.0663 1.22236 19.0663 0.991304C19.0663 0.737888 18.9768 0.56646 18.7904 0.477019C18.6935 0.432298 18.5593 0.409938 18.3952 0.409938H17.2246V1.60994H18.3281H18.343Z" fill="white"/>
<path d="M25.4714 0.0894775V2.15407C25.4714 2.40004 25.5162 2.60128 25.6131 2.7578C25.7548 2.99631 25.9859 3.12302 26.3215 3.12302C26.7241 3.12302 26.9925 2.98886 27.1342 2.72799C27.2162 2.58637 27.2535 2.39258 27.2535 2.15407V0.0894775H27.7233V1.96029C27.7233 2.37022 27.6636 2.68327 27.5518 2.90687C27.343 3.30935 26.9403 3.5106 26.3587 3.5106C25.7771 3.5106 25.3745 3.30935 25.1657 2.90687C25.0464 2.68327 24.9942 2.37022 24.9942 1.96029V0.0894775H25.464H25.4714Z" fill="white"/>
<path d="M33.0323 0.0148926H34.6429C34.9635 0.0148926 35.2245 0.104334 35.4184 0.283216C35.6122 0.454644 35.7092 0.700607 35.7092 1.0211C35.7092 1.28943 35.6197 1.52794 35.4482 1.72918C35.2692 1.93042 35.0008 2.03477 34.6429 2.03477H33.517V3.51054H33.0323V0.0148926ZM34.9262 0.491911C34.8218 0.447191 34.6727 0.417377 34.4863 0.417377H33.5244V1.62483H34.4863C34.7025 1.62483 34.8815 1.58011 35.0157 1.49067C35.1499 1.40123 35.2245 1.24471 35.2245 1.01365C35.2245 0.760234 35.1276 0.581352 34.9337 0.491911" fill="white"/>
<path d="M44.0232 0.566452C44.2543 0.864589 44.3662 1.23726 44.3662 1.69937C44.3662 2.19875 44.232 2.60869 43.971 2.94409C43.6653 3.33167 43.2253 3.52546 42.6586 3.52546C42.1292 3.52546 41.7117 3.35403 41.4059 3.01863C41.1375 2.69068 41.0033 2.28074 41.0033 1.78136C41.0033 1.33415 41.1151 0.946577 41.3537 0.618626C41.652 0.208689 42.0919 0.00744629 42.6736 0.00744629C43.2552 0.00744629 43.7324 0.193782 44.0232 0.573906M43.6131 2.69813C43.7995 2.4149 43.889 2.08695 43.889 1.71428C43.889 1.31925 43.7846 1.0062 43.5683 0.767695C43.3596 0.529185 43.0687 0.409931 42.6959 0.409931C42.3231 0.409931 42.0472 0.529185 41.8235 0.767695C41.5998 1.0062 41.488 1.35651 41.488 1.81863C41.488 2.1913 41.5849 2.49689 41.7788 2.75776C41.9726 3.01117 42.2858 3.13788 42.7183 3.13788C43.1508 3.13788 43.4341 2.98881 43.6131 2.70558" fill="white"/>
<path d="M53.8285 22.077C53.7167 21.8758 53.5526 21.7193 53.3662 21.6075C53.1723 21.4957 52.9561 21.436 52.7324 21.436C52.5087 21.436 52.2925 21.4957 52.0911 21.6075C51.8898 21.7193 51.7332 21.8832 51.6214 22.077C51.5095 22.2783 51.4499 22.4944 51.4499 22.718C51.4499 22.9416 51.5095 23.1578 51.6214 23.3516C51.7332 23.5528 51.8898 23.7093 52.0911 23.8211C52.2925 23.9329 52.5013 23.9926 52.7324 23.9926C52.9636 23.9926 53.1723 23.9329 53.3662 23.8211C53.5601 23.7093 53.7167 23.5528 53.836 23.3516C53.9478 23.1578 54.0075 22.9416 54.0075 22.7106C54.0075 22.4795 53.9478 22.2708 53.8285 22.0696M52.725 23.7764C52.5385 23.7764 52.3596 23.7317 52.1955 23.6348C52.0315 23.5379 51.8973 23.4037 51.8003 23.2472C51.7034 23.0832 51.6587 22.9044 51.6587 22.718C51.6587 22.5317 51.7034 22.3454 51.8003 22.1814C51.8973 22.0174 52.024 21.8832 52.1955 21.7863C52.3596 21.6895 52.5385 21.6447 52.725 21.6447C52.9114 21.6447 53.0903 21.6969 53.2544 21.7863C53.4184 21.8832 53.5452 22.0099 53.6421 22.1814C53.7316 22.3454 53.7838 22.5242 53.7838 22.718C53.7838 22.9118 53.7316 23.0832 53.6421 23.2472C53.5452 23.4112 53.4184 23.5454 53.2544 23.6348C53.0903 23.7317 52.9114 23.7764 52.725 23.7764Z" fill="white"/>
<path d="M53.3215 23.2025V23.0385C53.3215 22.9342 53.3065 22.8596 53.2842 22.8149C53.2618 22.7776 53.232 22.7404 53.1723 22.7106C53.232 22.6658 53.2693 22.6286 53.2916 22.5913C53.3215 22.5317 53.3364 22.472 53.3364 22.3901C53.3364 22.3006 53.314 22.2186 53.2767 22.159C53.232 22.0919 53.1798 22.0397 53.1127 22.0099C53.0456 21.9801 52.9486 21.9652 52.7995 21.9652H52.1732V23.4559H52.4416V22.8522H52.7846C52.8964 22.8522 52.9412 22.8522 52.9635 22.8671C52.9859 22.8745 53.0083 22.8969 53.0232 22.9192C53.0381 22.9416 53.0456 22.9863 53.0456 23.0534L53.0605 23.2323C53.0605 23.3143 53.0754 23.3888 53.0978 23.4484V23.4633H53.4109L53.3662 23.3888C53.3364 23.3441 53.3215 23.2845 53.3215 23.2099M52.449 22.2186H52.7995C52.9039 22.2186 52.9785 22.2335 53.0157 22.2633C53.0456 22.2932 53.0679 22.3453 53.0679 22.4124C53.0679 22.4869 53.0456 22.5391 52.9934 22.5764C52.9561 22.5988 52.889 22.6062 52.7846 22.6062H52.449V22.2186Z" fill="white"/>
</g>
<defs>
<clipPath id="clip0_542_450">
<rect width="54" height="24" fill="white"/>
</clipPath>
</defs>
</svg>
