<svg width="69" height="22" viewBox="0 0 69 22" fill="none" xmlns="http://www.w3.org/2000/svg">
<g clip-path="url(#clip0_541_193)">
<path d="M37.6088 9.71885L41.0329 1.10059H42.4126L45.8424 9.71885H44.4851L43.5108 7.15087H39.8896L38.9041 9.71885H37.6088ZM40.2726 6.14061H43.1391L41.7143 2.3366L40.2726 6.14061Z" fill="white"/>
<path d="M11.0776 9.71324V1.09497H12.3448V8.6296H16.9346V9.71324H11.0776Z" fill="white"/>
<path d="M17.954 9.71324V1.09497H19.2042V9.71324H17.954Z" fill="white"/>
<path d="M21.2148 9.71888V1.09497H22.5833L26.8803 7.35408C26.976 7.49518 27.0605 7.61934 27.1337 7.73786C27.2013 7.85639 27.2576 7.97491 27.3027 8.0765V1.09497H28.4966V9.71323H27.1394L22.7522 3.36383C22.6847 3.26788 22.6227 3.16629 22.572 3.05905C22.5157 2.95182 22.465 2.84459 22.4143 2.72606V9.71323H21.2204L21.2148 9.71888Z" fill="white"/>
<path d="M30.4508 9.71888V1.09497H37.0118V2.16167H31.6898V4.72401H36.6063V5.73427H31.6898V8.62396H37.1188V9.70759H30.4452L30.4508 9.71888Z" fill="white"/>
<path d="M0 18.3822V11.1016H3.04677C4.24069 11.1016 5.13051 11.4063 5.71621 12.0046C6.30191 12.6085 6.59476 13.5228 6.59476 14.7532C6.59476 15.4135 6.48776 16.0005 6.26812 16.5084C6.04848 17.0164 5.73874 17.4228 5.32762 17.7332C5.01787 17.9589 4.66871 18.1282 4.27449 18.2298C3.88026 18.3258 3.32835 18.3822 2.61312 18.3822H0ZM1.57689 17.0672H2.85529C3.59305 17.0672 4.12806 16.8866 4.46033 16.5197C4.79261 16.1585 4.95593 15.5715 4.95593 14.7532C4.95593 13.9348 4.79824 13.3422 4.49412 12.9641C4.18438 12.5803 3.70568 12.3884 3.04677 12.3884H1.57689V17.0672Z" fill="white"/>
<path d="M7.92383 18.3822V11.1016H9.52324V18.3822H7.92383Z" fill="white"/>
<path d="M11.1902 18.3822V11.1016H14.9579C15.8083 11.1016 16.439 11.2709 16.8445 11.6152C17.2556 11.9538 17.4584 12.473 17.4584 13.1729C17.4584 13.6188 17.357 13.9856 17.1599 14.2847C16.9628 14.5839 16.6756 14.787 16.3039 14.8943C16.6418 15.0072 16.8783 15.1765 17.0191 15.4079C17.1599 15.6393 17.2444 16.0005 17.2613 16.4802L17.295 17.3381V17.3663C17.3063 17.8009 17.4077 18.0605 17.5879 18.1565V18.3822H15.8477C15.7857 18.2806 15.7463 18.1508 15.7125 18.0041C15.6787 17.8517 15.6618 17.6767 15.6562 17.4735L15.6337 16.706C15.6168 16.2545 15.5267 15.9497 15.369 15.7973C15.2 15.6393 14.9128 15.5603 14.4848 15.5603H12.7897V18.3879H11.1902V18.3822ZM12.7897 14.296H14.665C15.0761 14.296 15.3746 14.217 15.5661 14.0646C15.7632 13.9066 15.859 13.6639 15.859 13.3309C15.859 13.0149 15.7632 12.7778 15.5774 12.6085C15.3859 12.4505 15.1099 12.3658 14.7382 12.3658H12.7897V14.296Z" fill="white"/>
<path d="M18.917 18.3822V11.1016H24.5769V12.3658H20.5051V13.9122H24.2277V15.1595H20.5051V17.039H24.7684V18.3766H18.9226L18.917 18.3822Z" fill="white"/>
<path d="M32.7598 15.8876C32.6978 16.7116 32.3599 17.372 31.7348 17.8517C31.1097 18.3371 30.2987 18.5798 29.2963 18.5798C28.1418 18.5798 27.2519 18.2411 26.6099 17.5695C25.9679 16.8979 25.6525 15.9554 25.6525 14.7419C25.6525 13.5285 25.9792 12.5521 26.6324 11.8917C27.2857 11.237 28.2206 10.9041 29.4427 10.9041C30.4395 10.9041 31.2223 11.1298 31.7967 11.5813C32.3712 12.0385 32.6866 12.6762 32.7429 13.5003H31.1547C31.0928 13.0939 30.9069 12.7778 30.6197 12.5634C30.3269 12.3489 29.9383 12.2417 29.4371 12.2417C28.7331 12.2417 28.2037 12.4505 27.832 12.8738C27.4659 13.3027 27.2857 13.9236 27.2857 14.7363C27.2857 15.549 27.4659 16.1303 27.832 16.5705C28.1981 16.9995 28.7162 17.214 29.3864 17.214C29.8707 17.214 30.2705 17.1011 30.5803 16.8697C30.89 16.6439 31.0928 16.3053 31.1773 15.8763H32.7541L32.7598 15.8876Z" fill="white"/>
<path d="M35.6489 18.3822V12.3997H33.3398V11.1016H39.5404V12.3997H37.2483V18.3822H35.6489Z" fill="white"/>
<path d="M42.0466 11.1016H43.8938L46.6984 18.3822H45.0201L44.4964 16.8866H41.4777L40.9653 18.3822H39.2814L42.0466 11.1016ZM42.9758 12.5633L41.9001 15.6618H44.0571L42.9758 12.5633Z" fill="white"/>
<path d="M58.0294 0C53.0566 0 48.8666 3.31298 47.515 7.85634H56.5651V3.29605L64.4552 10.8702L56.5651 18.2242V14.138H47.515C48.8666 18.6814 53.0622 21.9944 58.0294 21.9944C64.0891 21.9944 69.0056 17.0672 69.0056 10.9944C69.0056 4.9215 64.0891 0 58.0294 0Z" fill="white"/>
</g>
<defs>
<clipPath id="clip0_541_193">
<rect width="69" height="22" fill="white"/>
</clipPath>
</defs>
</svg>
