<svg width="297" height="54" viewBox="0 0 297 54" fill="none" xmlns="http://www.w3.org/2000/svg">
<g clip-path="url(#clip0_105_24)">
<path d="M142.888 23.976C142.186 17.7266 140.766 13.3714 135.043 4.23587C135.573 2.74437 138.525 0.350504 140.535 0C145.018 4.82502 148.62 15.2581 148.62 23.3868C148.62 34.9236 140.938 48.9065 133.414 51.7254C132.055 52.0452 130.636 52.0067 129.297 51.6136C125.561 50.4577 123.536 47.7282 123.536 43.5968C123.536 35.468 133.623 21.2987 142.552 19.3224C142.859 19.315 143.546 22.2831 142.888 23.976ZM143.008 26.7427C143.05 26.173 143.03 25.6004 142.948 25.0349C137.284 27.4512 128.789 40.293 128.789 46.4157C128.741 46.9116 128.809 47.4117 128.987 47.8773C129.164 48.3429 129.447 48.7614 129.812 49.1004C130.26 49.3803 130.778 49.5286 131.307 49.5286C131.835 49.5286 132.353 49.3803 132.801 49.1004C137.942 45.8638 143.008 35.1697 143.008 26.7427Z" fill="#F5750B"/>
<path d="M277.229 26.9814C282.063 13.7815 286.315 5.00404 290.387 0.0596924C292.278 0.410196 296.365 2.76678 297 3.78846C290.858 11.0372 286.435 18.9869 282.542 29.7705C279.231 38.9582 277.461 46.6171 277.461 51.5689C277.461 52.9187 272.604 51.5689 272.507 45.2001C272.536 41.7622 274.218 35.2219 277.229 26.9814Z" fill="#F5750B"/>
<path d="M87.8865 6.0033C87.8865 6.0033 79.3385 7.05484 74.4742 13.9009C74.4742 13.9009 74.1902 14.4751 75.0495 15.8995C75.3335 16.4737 77.6199 19.3299 77.9113 19.3299C78.2027 19.3299 78.5614 18.9272 78.808 18.4126C79.0546 17.8981 82.2003 10.7612 87.6325 9.91104L72.1877 50.7262C72.1877 50.7262 73.6149 52.7247 78.4792 53.299C83.3435 53.8732 112.515 53.0156 113.949 24.4682C113.949 24.4682 114.166 2.96063 87.8865 6.0033ZM108.808 24.3861C106.567 39.0253 95.0971 50.7261 81.0869 47.8774C79.9437 46.1621 88.8056 24.4682 97.9589 8.47921C97.929 8.47921 111.05 9.747 108.778 24.3861H108.808Z" fill="#F5750B"/>
<path d="M120.241 24.4682C120.061 24.6397 112.514 34.4613 112.806 45.8788C112.927 46.663 113.334 47.3748 113.949 47.8774C115.092 49.0184 117.581 50.3906 117.767 49.5628C118.059 47.5343 120.248 35.5426 125.904 28.0254C125.523 26.4743 121.152 24.4607 120.241 24.4682Z" fill="#F5750B"/>
<path d="M126.831 22.7455C126.831 22.7455 122.833 20.8662 122.833 19.6879C122.833 18.5096 124.836 11.9171 125.12 11.9171C125.404 11.9171 131.688 12.8568 132.831 15.6459C132.809 15.6906 127.093 22.7455 126.831 22.7455Z" fill="#F5750B"/>
<path d="M220.538 24.4682C220.366 24.6397 212.82 34.4613 213.104 45.8788C213.226 46.664 213.636 47.3761 214.254 47.8774C215.397 49.0184 217.886 50.3906 218.072 49.5628C218.371 47.5343 220.553 35.5426 226.21 28.0254C225.821 26.4743 221.457 24.4607 220.538 24.4682Z" fill="#F5750B"/>
<path d="M227.114 22.7455C227.114 22.7455 223.116 20.8662 223.116 19.6879C223.116 18.5096 225.111 11.9171 225.358 11.9171C225.604 11.9171 231.926 12.8568 233.069 15.6459C233.106 15.6906 227.398 22.7455 227.114 22.7455Z" fill="#F5750B"/>
<path d="M271.871 26.8546C271.012 25.4302 267.156 19.9563 259.774 22.2234C251.308 24.8187 245.473 38.9059 246.324 43.6713C247.176 48.4367 249.687 50.4875 251.51 50.1892C253.333 49.8909 258.803 47.7133 263.353 36.6314C263.353 36.6314 259.901 45.0957 261.538 48.5635C261.538 48.5635 263.876 51.3824 267.709 48.8096C266.081 46.5723 265.401 38.272 271.894 27.4885C271.934 27.387 271.953 27.2783 271.949 27.1692C271.945 27.0601 271.919 26.953 271.871 26.8546ZM254.036 45.4984C252.22 46.7662 248.581 46.2441 254.364 36.0646C260.148 25.8851 266.596 26.601 266.596 26.601C263.689 34.4538 255.859 44.6259 254.036 45.5357V45.4984Z" fill="#F5750B"/>
<path d="M172.485 26.8546C171.626 25.4302 167.77 19.9563 160.381 22.2234C151.915 24.8187 146.079 38.9059 146.931 43.6713C147.783 48.4367 150.286 50.4875 152.116 50.1892C153.947 49.8909 159.402 47.7133 163.952 36.6314C163.952 36.6314 160.5 45.0957 162.137 48.5635C162.137 48.5635 164.475 51.3824 168.308 48.8096C166.687 46.5723 166.007 38.272 172.493 27.4885C172.538 27.3887 172.561 27.2803 172.56 27.1707C172.559 27.0611 172.533 26.9532 172.485 26.8546ZM154.65 45.4984C152.826 46.7662 149.187 46.2441 154.971 36.0646C160.754 25.8851 167.18 26.6383 167.18 26.6383C164.296 34.4538 156.473 44.6259 154.65 45.5357V45.4984Z" fill="#F5750B"/>
<path d="M188.849 32.2539C188.849 32.2539 192.869 35.7216 194.692 31.5081C196.516 27.2946 195.694 20.9632 190.456 21.0676C185.218 21.172 176.483 22.9767 173.023 37.146C169.564 51.3153 184.859 54.5892 192.503 43.5073C192.503 43.5073 192.346 41.7324 191.106 42.9331C189.865 44.1337 182.685 49.6448 180.451 46.3337C178.216 43.0225 179.307 26.34 191.136 24.3414C195.335 24.3713 188.849 32.2539 188.849 32.2539Z" fill="#F5750B"/>
<path d="M241.281 32.2539C241.281 32.2539 245.301 35.7216 247.124 31.5081C248.947 27.2946 248.125 20.9632 242.895 21.0676C237.664 21.172 228.922 22.9767 225.462 37.146C222.003 51.3153 237.291 54.5892 244.935 43.5073C244.935 43.5073 244.778 41.7324 243.537 42.9331C242.297 44.1337 235.116 49.6448 232.882 46.3337C230.648 43.0225 231.739 26.34 243.575 24.3414C247.759 24.3713 241.281 32.2539 241.281 32.2539Z" fill="#F5750B"/>
<path d="M209.181 13.6771C209.181 13.6771 209.853 12.8568 210.287 12.8419C210.989 12.9239 216.264 14.3781 216.264 14.9225C215.906 15.2805 211.624 20.8215 210.354 23.5509C210.354 23.5509 214.359 23.3719 215.263 23.1855C215.719 23.275 216.01 25.0051 216.01 25.0051C213.732 25.8027 211.325 26.1718 208.912 26.0939C208.912 26.0939 202.187 39.7561 202.8 47.1838C202.8 47.1838 203.083 51.8895 210.914 46.4381C211.001 46.4965 211.075 46.5715 211.133 46.6587C211.19 46.746 211.23 46.8437 211.249 46.9464C211.269 47.049 211.268 47.1545 211.246 47.2567C211.224 47.3589 211.183 47.4558 211.123 47.5418C210.727 48.2875 205.34 53.8882 200.117 50.1668C200.117 50.1668 195.283 47.4971 197.128 40.5168C198.423 35.7169 199.967 30.9874 201.753 26.3475C200.637 26.4721 199.512 26.502 198.391 26.437C198.025 26.2505 197.39 23.2526 197.748 22.8946C198.301 22.8946 203.031 23.2526 203.031 23.2526C203.031 23.2526 206.984 16.1903 209.181 13.6771Z" fill="#F5750B"/>
<path d="M178.388 12.5436C172.366 16.5483 169.168 18.0995 166.687 18.0995C165.387 18.0995 164.871 17.4879 163.93 16.7198C167.412 15.4296 171.656 11.246 174.966 5.82434C176.595 6.82365 178.388 10.3585 178.388 12.5436Z" fill="#F5750B"/>
<path d="M12.5083 24.7217C12.2019 24.1102 11.9105 23.4838 11.634 22.8573C11.3575 22.2309 11.096 21.5821 10.8495 20.9408C10.6029 20.2994 10.3712 19.6506 10.162 18.9943C9.9528 18.338 9.75853 17.6669 9.58667 16.9957C9.24084 15.6496 9.00349 14.278 8.87684 12.8941C8.74645 11.4861 8.82195 10.0668 9.10099 8.68057C9.2508 7.97243 9.4893 7.28593 9.81085 6.63722C10.1401 5.97035 10.5882 5.36891 11.1334 4.86232C11.6952 4.35018 12.3601 3.9637 13.0836 3.72876C13.8078 3.50134 14.567 3.40535 15.3252 3.44537C16.0545 3.47682 16.7771 3.59702 17.4772 3.80332C17.8284 3.90772 18.1646 4.0196 18.5009 4.14638C18.8371 4.27316 19.1659 4.42231 19.4872 4.57146C20.1256 4.87875 20.7444 5.22494 21.3403 5.60807C21.938 5.98592 22.5134 6.38862 23.0663 6.81619C24.1685 7.67817 25.2143 8.60978 26.1971 9.6053C26.6828 10.105 27.161 10.6121 27.6243 11.0968C28.0875 11.5815 28.5359 12.1409 28.9692 12.6778C29.4026 13.2147 29.836 13.7666 30.247 14.3185C30.6579 14.8703 31.0689 15.4371 31.4649 16.0039C32.247 17.1424 32.9942 18.3033 33.7065 19.4865C34.0577 20.0831 34.4089 20.6798 34.7526 21.2764C35.0963 21.873 35.4176 22.4845 35.7464 23.0885C36.389 24.3116 37.0042 25.5545 37.592 26.8173C38.7651 29.3156 39.8336 31.8511 40.7751 34.4314C39.6095 31.9406 38.4139 29.4722 37.1213 27.0559C35.8286 24.6397 34.4612 22.2682 32.9817 19.9638C31.517 17.666 29.9099 15.4617 28.1697 13.3639C27.3062 12.3244 26.391 11.3288 25.4275 10.3809C24.4781 9.42141 23.4673 8.52463 22.4013 7.69617C21.8633 7.28601 21.3178 6.89822 20.7574 6.5328C20.1955 6.17553 19.6143 5.8494 19.0164 5.55586C18.7175 5.40671 18.4112 5.27991 18.1048 5.15313C17.7985 5.02635 17.4921 4.92195 17.1783 4.83246C16.5595 4.64143 15.9196 4.52626 15.2729 4.48944C14.6452 4.44547 14.0147 4.51621 13.4124 4.69823C12.8032 4.87286 12.2396 5.1783 11.761 5.59314C11.2881 6.01664 10.8958 6.52193 10.6029 7.08465C10.3025 7.66115 10.0741 8.27227 9.92292 8.90429C9.76213 9.54787 9.65712 10.2041 9.60909 10.8656C9.56801 11.5362 9.56801 12.2086 9.60909 12.8792C9.67312 14.2356 9.84553 15.5847 10.1247 16.9137C10.398 18.2509 10.7422 19.5728 11.1558 20.8736C11.5369 22.1489 12.0076 23.439 12.5083 24.7217Z" fill="#F5750B"/>
<path d="M29.2681 42.8808C28.8721 43.4476 28.4686 44.0069 28.0576 44.5513C27.6467 45.0957 27.2058 45.6401 26.765 46.1622C26.3241 46.6842 25.8608 47.2137 25.3901 47.7133C24.9194 48.213 24.4262 48.7126 23.8957 49.2048C22.8839 50.1624 21.797 51.0378 20.6454 51.8224C19.4763 52.6207 18.1978 53.2461 16.8495 53.6793C16.1551 53.8901 15.4374 54.0154 14.7125 54.0522C13.9686 54.089 13.2243 53.9905 12.5157 53.7614C11.7958 53.521 11.1359 53.1293 10.5805 52.6129C10.0366 52.0977 9.58653 51.4921 9.25044 50.8231C8.92204 50.171 8.67126 49.4827 8.50323 48.7723C8.42851 48.4218 8.36126 48.0713 8.30895 47.7133C8.25665 47.3553 8.22675 47.0049 8.20433 46.6544C8.15951 45.9466 8.15951 45.2367 8.20433 44.529C8.24169 43.828 8.31642 43.127 8.42103 42.4334C8.63689 41.0549 8.94393 39.6922 9.3401 38.3541C9.53438 37.6829 9.75106 37.0192 9.98269 36.3704C10.2143 35.7216 10.4534 35.0579 10.7299 34.4166C11.0064 33.7752 11.2604 33.1339 11.5444 32.5074C11.8283 31.881 12.1197 31.2471 12.4335 30.6281C13.0388 29.3827 13.6963 28.1671 14.3838 26.9739C14.7275 26.3699 15.0786 25.7807 15.4448 25.1916C15.8109 24.6025 16.192 24.0207 16.5506 23.439C17.2979 22.2906 18.0824 21.1496 18.8819 20.031C20.4959 17.7937 22.1995 15.631 24.0003 13.5504C22.3863 15.7876 20.8097 18.0249 19.3228 20.3293C17.8358 22.6336 16.4236 24.9753 15.131 27.3841C13.8291 29.7809 12.6786 32.2567 11.6863 34.7969C11.1932 36.0572 10.7523 37.3474 10.3787 38.645C10.0033 39.9426 9.7113 41.2627 9.50449 42.5975C9.39988 43.2612 9.33262 43.9249 9.28779 44.5961C9.25044 45.2593 9.25044 45.924 9.28779 46.5872C9.28779 46.9253 9.31768 47.2534 9.37745 47.5716C9.37745 47.8997 9.47459 48.2205 9.54184 48.5411C9.67763 49.1729 9.88833 49.7862 10.1695 50.3682C10.4414 50.9261 10.8108 51.4312 11.2604 51.8597C11.704 52.2925 12.237 52.6234 12.8221 52.8292C13.421 53.0421 14.0547 53.1407 14.6901 53.12C15.3427 53.1075 15.9908 53.0098 16.6179 52.8292C17.2577 52.6531 17.8824 52.4261 18.4859 52.1506C19.0948 51.8633 19.6884 51.5447 20.2643 51.196C21.419 50.4833 22.5136 49.6777 23.537 48.7872C24.5838 47.8997 25.5815 46.9562 26.5259 45.9608C27.4524 44.9391 28.3864 43.9025 29.2681 42.8808Z" fill="#0094BC"/>
<path d="M36.4189 18.8303C37.1063 18.8825 37.7937 18.9496 38.4737 19.0242C39.1537 19.0987 39.8411 19.2031 40.5285 19.3076C41.216 19.412 41.8884 19.5536 42.5609 19.7028C43.2334 19.8519 43.9059 20.016 44.5784 20.2025C45.9195 20.5927 47.2265 21.0915 48.4863 21.694C49.7712 22.2881 50.962 23.067 52.0206 24.0058C52.5609 24.4889 53.0357 25.0405 53.4328 25.6465C53.8478 26.2645 54.1418 26.9552 54.2996 27.6823C54.4615 28.4193 54.4615 29.1826 54.2996 29.9196C54.1385 30.6491 53.8475 31.3437 53.4403 31.9704C53.0449 32.5824 52.5757 33.1434 52.043 33.6409C51.7839 33.8909 51.5121 34.1274 51.2285 34.3494C50.9534 34.5755 50.6666 34.7871 50.3693 34.9833C49.7808 35.3792 49.1695 35.7403 48.5386 36.0646C47.9109 36.3853 47.2758 36.6836 46.6257 36.9446C45.3252 37.4606 43.9923 37.8916 42.6357 38.2348C41.9557 38.4138 41.2757 38.5629 40.5958 38.7046C39.9158 38.8463 39.2284 38.9656 38.541 39.07C37.8535 39.1744 37.1661 39.2639 36.4787 39.3459C35.7912 39.428 35.1038 39.4876 34.4089 39.5398C33.0266 39.6517 31.6442 39.7039 30.2619 39.7263C29.567 39.7263 28.8796 39.7263 28.1847 39.7263C27.4898 39.7263 26.8023 39.7263 26.1149 39.6741C24.7326 39.6144 23.3577 39.5249 21.9828 39.4056C19.2406 39.1595 16.5058 38.809 13.7635 38.3168C16.5058 38.5704 19.2481 38.7792 21.9828 38.8761C24.7176 38.9731 27.4673 38.9954 30.2021 38.8761C32.9288 38.7651 35.6462 38.4886 38.3392 38.0483C39.6842 37.8246 41.0142 37.5412 42.3293 37.1982C43.6379 36.8614 44.9233 36.4404 46.1774 35.9378C46.8051 35.6843 47.4178 35.4084 48.0081 35.1026C48.6033 34.8021 49.1797 34.4659 49.7341 34.0958C50.0106 33.9168 50.2796 33.7155 50.5411 33.5141C50.8026 33.3128 51.0492 33.0965 51.2883 32.8803C51.7616 32.4318 52.1827 31.9315 52.5436 31.3888C52.8878 30.8631 53.1404 30.2832 53.2908 29.6735C53.4338 29.0691 53.4466 28.4412 53.3282 27.8315C53.2009 27.2125 52.963 26.6213 52.6258 26.0864C52.2777 25.5406 51.8637 25.0397 51.3929 24.5949C50.9128 24.1355 50.3955 23.7164 49.8462 23.3421C49.2916 22.961 48.7153 22.6124 48.1202 22.298C46.9198 21.6708 45.6703 21.1421 44.3841 20.717C43.0877 20.2754 41.7682 19.9045 40.4314 19.6058C39.1387 19.2926 37.7863 19.0167 36.4189 18.8303Z" fill="#68AD00"/>
<path d="M2.18185 31.3291C3.38685 31.3291 4.36369 30.3541 4.36369 29.1515C4.36369 27.9488 3.38685 26.9739 2.18185 26.9739C0.976846 26.9739 0 27.9488 0 29.1515C0 30.3541 0.976846 31.3291 2.18185 31.3291Z" fill="#F5750B"/>
<path d="M38.4737 50.7112C39.6787 50.7112 40.6556 49.7363 40.6556 48.5336C40.6556 47.331 39.6787 46.356 38.4737 46.356C37.2687 46.356 36.2919 47.331 36.2919 48.5336C36.2919 49.7363 37.2687 50.7112 38.4737 50.7112Z" fill="#0094BC"/>
<path d="M37.4052 10.6493C38.6102 10.6493 39.587 9.67438 39.587 8.47173C39.587 7.26907 38.6102 6.29413 37.4052 6.29413C36.2002 6.29413 35.2234 7.26907 35.2234 8.47173C35.2234 9.67438 36.2002 10.6493 37.4052 10.6493Z" fill="#68AD00"/>
</g>
<defs>
<clipPath id="clip0_105_24">
<rect width="297" height="54" fill="white"/>
</clipPath>
</defs>
</svg>
