<svg width="15" height="15" viewBox="0 0 15 15" fill="none" xmlns="http://www.w3.org/2000/svg">
<path d="M0.709473 14.7387L1.69474 10.8698C0.900639 9.36595 0.649921 7.6122 0.988615 5.93017C1.32731 4.24813 2.23269 2.75058 3.53869 1.7122C4.84468 0.67381 6.46375 0.164202 8.09892 0.276836C9.73409 0.38947 11.2757 1.1168 12.4411 2.32542C13.6065 3.53404 14.3174 5.14292 14.4436 6.85697C14.5697 8.57102 14.1026 10.2753 13.1279 11.6573C12.1532 13.0393 10.7363 14.0063 9.13695 14.3809C7.53764 14.7555 5.86321 14.5127 4.42075 13.6969L0.709473 14.7387ZM4.60377 12.2466L4.83742 12.3937C6.00095 13.1232 7.37881 13.3808 8.71094 13.1178C10.0431 12.8548 11.2374 12.0893 12.0685 10.9658C12.8996 9.8424 13.31 8.43869 13.2222 7.01958C13.1345 5.60048 12.5547 4.26413 11.5922 3.26273C10.6298 2.26133 9.35124 1.66412 7.99787 1.58381C6.64451 1.5035 5.30993 1.94564 4.24598 2.8268C3.18202 3.70795 2.46229 4.96718 2.22258 6.36685C1.98287 7.76653 2.23976 9.20984 2.9448 10.4244L3.08498 10.6696L2.5359 12.8267L4.60377 12.2466Z" fill="white"/>
<path fill-rule="evenodd" clip-rule="evenodd" d="M10.1726 8.41429C10.0369 8.30094 9.87835 8.22145 9.70901 8.18182C9.53968 8.14218 9.36396 8.14344 9.19515 8.1855C8.94203 8.29172 8.78237 8.70844 8.61881 8.92089C8.58361 8.97119 8.53195 9.0061 8.47374 9.01891C8.41553 9.03173 8.35487 9.02156 8.30337 8.99034C7.37773 8.60977 6.60127 7.91319 6.09921 7.01295C6.05805 6.95525 6.03882 6.88354 6.0453 6.81179C6.05178 6.74004 6.08348 6.67339 6.13424 6.62483C6.31846 6.43685 6.45269 6.20166 6.52367 5.94255C6.54057 5.65773 6.47833 5.37389 6.34453 5.12544C6.24177 4.7745 6.0443 4.46231 5.77597 4.22663C5.63829 4.15969 5.48495 4.1364 5.33482 4.15962C5.18469 4.18285 5.04432 4.25157 4.93092 4.35736C4.73679 4.53337 4.58281 4.75287 4.48035 4.99966C4.3779 5.24645 4.32959 5.51422 4.33898 5.78321C4.34 5.93586 4.35698 6.08794 4.3896 6.2367C4.47967 6.59046 4.62015 6.92792 4.8063 7.23765C4.9387 7.47461 5.08278 7.70341 5.23466 7.92402C5.74058 8.65414 6.37672 9.27434 7.10782 9.75025C7.47584 9.98898 7.86759 10.1849 8.27611 10.3345C8.70929 10.5487 9.18997 10.6348 9.66637 10.5837C9.93108 10.5396 10.1817 10.4288 10.3966 10.2609C10.6116 10.093 10.7846 9.87289 10.9009 9.61951C10.9664 9.46583 10.9868 9.29513 10.9593 9.12925C10.8697 8.7779 10.4452 8.57771 10.1726 8.41429Z" fill="white"/>
</svg>
