<svg width="255" height="60" viewBox="0 0 255 60" fill="none" xmlns="http://www.w3.org/2000/svg">
<path d="M9.6181 12.6899C10.0623 12.0604 10.603 11.5149 11.2316 11.0491C12.0614 10.4364 13.0337 10.0546 14.0437 9.89929C15.2842 9.70625 16.7636 9.60974 18.4902 9.60974H31.8005C34.2647 9.60974 36.2596 7.5577 36.2596 5.02728C36.2596 4.93915 36.2512 4.85522 36.247 4.7713C36.2512 4.68737 36.2596 4.59925 36.2596 4.51532C36.2596 2.02266 34.2941 0 31.8675 0H12.9038C12.9038 0 12.8996 0 12.8954 0C11.8016 0.0587495 10.8963 0.163659 9.64744 0.507764C6.86887 1.26731 6.46655 1.60302 5.39368 2.30382C4.56807 2.84096 4.03164 3.2564 3.47844 3.82291L3.47006 3.83131L2.89172 4.51532C1.54644 6.20646 1.25727 6.86949 0.817224 8.44314C0.368799 10.0462 0.0670543 12.4339 0.0125727 14.5153C0 14.9979 0 15.4595 0.0125727 15.8959V41.1037C0.00838178 41.1792 0 41.2547 0 41.3303V48.2711C0 50.4238 1.74341 52.1695 3.89334 52.1695H4.64351C6.79344 52.1695 8.53685 50.4238 8.53685 48.2711V41.3303C8.53685 41.0995 8.5117 40.877 8.47398 40.6546V39.0264C8.53685 37.9102 8.90146 36.8065 9.572 35.8498L9.59714 35.812C10.4437 34.6034 11.6088 33.7054 13.0923 33.1095H13.1007C14.5173 32.7528 16.5792 32.5724 19.2907 32.5724H31.7963C34.2605 32.5724 36.2554 30.5204 36.2554 27.9899C36.2554 27.9354 36.2512 27.885 36.247 27.8305C36.247 27.7759 36.2554 27.7256 36.2554 27.671C36.2554 25.1406 34.2605 23.0885 31.7963 23.0885H19.2907C16.5792 23.0885 14.5214 22.9081 13.1007 22.5556H13.0923C11.6088 21.9555 10.4437 21.0575 9.59714 19.8489L9.56781 19.807C8.08423 17.6752 8.0968 14.8426 9.59295 12.7235L9.6181 12.6899Z" fill="#0F4C81"/>
<path d="M20.594 42.8116C18.004 42.8116 15.9044 44.913 15.9044 47.5053C15.9044 50.0975 18.004 52.1989 20.594 52.1989H31.5658C34.1558 52.1989 36.2554 50.0975 36.2554 47.5053C36.2554 44.913 34.1558 42.8116 31.5658 42.8116H20.594Z" fill="#F4750B"/>
<path d="M51.8715 1.19177H67.1095V3.06756H53.925V11.9765H66.8581V13.8523H53.925V25.2497H51.8715V1.19177Z" fill="#292D2B"/>
<path d="M71.795 16.5212C71.795 11.4352 75.0722 7.39404 80.1516 7.39404C85.231 7.39404 88.546 11.4352 88.546 16.5212C88.546 21.6072 85.3022 25.6819 80.1516 25.6819C75.001 25.6819 71.795 21.6072 71.795 16.5212ZM86.5259 16.5212C86.5259 12.6605 84.2545 9.08938 80.1516 9.08938C76.0487 9.08938 73.8108 12.6605 73.8108 16.5212C73.8108 20.3819 76.1158 23.9866 80.1516 23.9866C84.1874 23.9866 86.5259 20.4154 86.5259 16.5212Z" fill="#292D2B"/>
<path d="M94.8448 7.82628H96.7182V10.8183C98.1934 8.87118 100.176 7.46539 102.59 7.46539V9.52162C102.267 9.48386 102.011 9.45029 101.655 9.45029C99.8907 9.45029 97.5144 11.0365 96.7182 12.5514V25.2497H94.8448V7.82628Z" fill="#292D2B"/>
<path d="M128.456 13.055C128.456 10.6043 127.412 9.08937 124.961 9.08937C123.087 9.08937 120.962 10.4616 119.99 12.0478V25.2497H118.079V13.055C118.079 10.6043 117.069 9.08937 114.584 9.08937C112.748 9.08937 110.657 10.4952 109.614 12.0814V25.2455H107.74V7.82626H109.614V10.4574C110.334 9.34115 112.711 7.38983 115.234 7.38983C117.937 7.38983 119.374 8.97607 119.81 10.6714C120.782 9.04741 123.125 7.38983 125.572 7.38983C128.779 7.38983 130.329 9.19428 130.329 12.6899V25.2413H128.456V13.055Z" fill="#292D2B"/>
<path d="M148.698 23.1934C147.147 24.8888 145.203 25.6819 142.789 25.6819C139.801 25.6819 136.699 23.6257 136.699 19.8741C136.699 16.1225 139.763 14.1376 142.789 14.1376C145.203 14.1376 147.147 14.893 148.698 16.5883V13.055C148.698 10.4952 146.607 9.0516 144.017 9.0516C141.854 9.0516 140.161 9.80695 138.577 11.6114L137.533 10.3483C139.335 8.36339 141.351 7.38983 144.197 7.38983C147.763 7.38983 150.571 9.08517 150.571 12.9794V25.2413H148.698V23.185V23.1934ZM148.698 17.9983C147.474 16.4121 145.53 15.5812 143.438 15.5812C140.555 15.5812 138.682 17.457 138.682 19.9077C138.682 22.3584 140.555 24.2006 143.438 24.2006C145.525 24.2006 147.474 23.4075 148.698 21.8212V17.9983Z" fill="#292D2B"/>
<path d="M165.34 7.39404C168.328 7.39404 170.097 8.58582 171.5 10.3525L170.205 11.5065C168.911 9.7734 167.36 9.08938 165.449 9.08938C161.379 9.08938 158.894 12.3374 158.894 16.5212C158.894 20.705 161.379 23.9866 165.449 23.9866C167.36 23.9866 168.906 23.2648 170.205 21.5359L171.5 22.6899C170.097 24.4943 168.332 25.6819 165.34 25.6819C160.223 25.6819 156.874 21.6072 156.874 16.5212C156.874 11.4352 160.223 7.39404 165.34 7.39404Z" fill="#292D2B"/>
<path d="M176.647 3.42842C176.647 2.6353 177.33 1.98486 178.089 1.98486C178.847 1.98486 179.53 2.6353 179.53 3.42842C179.53 4.22154 178.881 4.87198 178.089 4.87198C177.297 4.87198 176.647 4.22154 176.647 3.42842ZM177.15 7.83044H179.023V25.2497H177.15V7.82624V7.83044Z" fill="#292D2B"/>
<path d="M185.33 16.5212C185.33 11.4352 188.608 7.39404 193.687 7.39404C198.766 7.39404 202.044 11.4352 202.044 16.5212C202.044 21.6072 198.838 25.6819 193.687 25.6819C188.536 25.6819 185.33 21.6072 185.33 16.5212ZM200.061 16.5212C200.061 12.6605 197.79 9.08938 193.687 9.08938C189.584 9.08938 187.346 12.6605 187.346 16.5212C187.346 20.3819 189.618 23.9866 193.687 23.9866C197.756 23.9866 200.061 20.4154 200.061 16.5212ZM192.857 5.19513L198.406 0H200.64L194.446 5.19513H192.861H192.857Z" fill="#292D2B"/>
<path d="M220.123 13.4914C220.123 10.1007 218.43 9.08937 215.907 9.08937C213.673 9.08937 211.368 10.5329 210.254 12.0814V25.2455H208.38V7.82626H210.254V10.4574C211.515 8.9425 214 7.38983 216.523 7.38983C220.052 7.38983 221.997 9.12294 221.997 13.0508V25.2413H220.123V13.483V13.4914Z" fill="#292D2B"/>
<path d="M51.2596 53.3655V29.3076H68.262V33.7096H56.3767V38.9383H68.0106V43.3404H56.3767V48.9299H68.262V53.3655H51.2596Z" fill="#292D2B"/>
<path d="M95.2053 53.3655V42.3626C95.2053 40.7386 94.4844 39.5846 92.6111 39.5846C90.9892 39.5846 89.6565 40.6672 89.0111 41.603V53.3613H84.4012V42.3584C84.4012 40.7344 83.6803 39.5804 81.807 39.5804C80.2228 39.5804 78.8901 40.663 78.2028 41.6366V53.3571H73.6264V35.9337H78.2028V38.2081C78.9237 37.1632 81.2287 35.5015 83.8941 35.5015C86.5595 35.5015 88.0724 36.6932 88.722 38.6739C89.732 37.0877 92.037 35.5015 94.7024 35.5015C97.9084 35.5015 99.8195 37.1968 99.8195 40.7679V53.3571H95.2095L95.2053 53.3655Z" fill="#292D2B"/>
<path d="M110.372 60H105.796V35.9421H110.372V38.141C111.705 36.4457 113.616 35.5099 115.741 35.5099C120.208 35.5099 123.448 38.8292 123.448 44.637C123.448 50.4448 120.204 53.7978 115.741 53.7978C113.687 53.7978 111.776 52.9333 110.372 51.1289V60ZM114.299 39.5846C112.824 39.5846 111.131 40.449 110.372 41.5695V47.7382C111.126 48.8208 112.82 49.7231 114.299 49.7231C116.931 49.7231 118.695 47.6668 118.695 44.637C118.695 41.6072 116.931 39.5888 114.299 39.5888V39.5846Z" fill="#292D2B"/>
<path d="M128.343 53.3655V35.9421H132.919V38.3215C134.143 36.7688 136.305 35.5435 138.468 35.5435V40.0168C138.145 39.9455 137.709 39.9077 137.206 39.9077C135.693 39.9077 133.678 40.7386 132.919 41.8548V53.3613H128.343V53.3655Z" fill="#292D2B"/>
<path d="M150.676 35.5099C155.864 35.5099 159.393 39.4041 159.393 45.1028V46.1142H146.46C146.749 48.3131 148.513 50.1553 151.468 50.1553C153.09 50.1553 154.997 49.5049 156.116 48.4264L158.132 51.3848C156.367 53.0088 153.664 53.802 150.965 53.802C145.668 53.802 141.67 50.2308 141.67 44.6412C141.67 39.593 145.379 35.5141 150.676 35.5141V35.5099ZM146.389 43.013H154.963C154.854 41.3555 153.702 39.1524 150.676 39.1524C147.83 39.1524 146.607 41.2799 146.389 43.013Z" fill="#292D2B"/>
<path d="M164.653 47.8808C165.914 49.0726 168.508 50.2602 170.666 50.2602C172.649 50.2602 173.583 49.5762 173.583 48.4935C173.583 47.2682 172.07 46.8359 170.088 46.4373C167.1 45.8582 163.244 45.1406 163.244 40.9904C163.244 38.0697 165.801 35.5099 170.377 35.5099C173.332 35.5099 175.67 36.5212 177.364 37.8892L175.561 41.0281C174.518 39.9119 172.536 39.0097 170.411 39.0097C168.755 39.0097 167.674 39.6224 167.674 40.6337C167.674 41.7163 169.045 42.1108 170.989 42.5095C173.977 43.0886 177.975 43.8817 177.975 48.2082C177.975 51.4184 175.272 53.7978 170.449 53.7978C167.423 53.7978 164.506 52.7864 162.666 51.0911L164.648 47.8808H164.653Z" fill="#292D2B"/>
<path d="M193.289 53.3655V51.5611C192.099 52.9669 190.045 53.7978 187.778 53.7978C185.004 53.7978 181.726 51.922 181.726 48.0277C181.726 44.1335 185.004 42.4717 187.778 42.4717C190.083 42.4717 192.136 43.1935 193.289 44.5993V42.1821C193.289 40.4155 191.776 39.2615 189.471 39.2615C187.598 39.2615 185.871 39.9455 184.392 41.3177L182.661 38.2501C184.786 36.3743 187.522 35.5099 190.263 35.5099C194.228 35.5099 197.865 37.0961 197.865 42.1108V53.3655H193.289ZM193.289 47.0164C192.53 46.0051 191.093 45.5015 189.614 45.5015C187.811 45.5015 186.336 46.4751 186.336 48.1326C186.336 49.7902 187.811 50.6924 189.614 50.6924C191.089 50.6924 192.53 50.1889 193.289 49.1775V47.0122V47.0164Z" fill="#292D2B"/>
<path d="M203.879 53.3655V35.9421H208.456V38.3215C209.68 36.7688 211.842 35.5435 214.005 35.5435V40.0168C213.682 39.9455 213.25 39.9077 212.743 39.9077C211.23 39.9077 209.214 40.7386 208.456 41.8548V53.3613H203.879V53.3655Z" fill="#292D2B"/>
<path d="M217.856 30.642C217.856 29.1271 219.117 27.9018 220.593 27.9018C222.068 27.9018 223.329 29.1271 223.329 30.642C223.329 32.1569 222.106 33.3823 220.593 33.3823C219.08 33.3823 217.856 32.1569 217.856 30.642ZM218.325 53.3655V35.9421H222.902V53.3655H218.325Z" fill="#292D2B"/>
<path d="M239.359 53.3655V51.5611C238.169 52.9669 236.116 53.7978 233.848 53.7978C231.074 53.7978 227.797 51.922 227.797 48.0277C227.797 44.1335 231.074 42.4717 233.848 42.4717C236.153 42.4717 238.207 43.1935 239.359 44.5993V42.1821C239.359 40.4155 237.847 39.2615 235.542 39.2615C233.668 39.2615 231.937 39.9455 230.462 41.3177L228.731 38.2501C230.856 36.3743 233.593 35.5099 236.334 35.5099C240.298 35.5099 243.936 37.0961 243.936 42.1108V53.3655H239.359ZM239.359 47.0164C238.601 46.0051 237.163 45.5015 235.684 45.5015C233.882 45.5015 232.407 46.4751 232.407 48.1326C232.407 49.7902 233.882 50.6924 235.684 50.6924C237.159 50.6924 238.601 50.1889 239.359 49.1775V47.0122V47.0164Z" fill="#292D2B"/>
<path d="M249.95 53.3655V29.3076H254.526V53.3655H249.95Z" fill="#292D2B"/>
</svg>
