<svg width="49" height="37" viewBox="0 0 49 37" fill="none" xmlns="http://www.w3.org/2000/svg">
<g clip-path="url(#clip0_48_94)">
<path d="M41.7714 9.06924C41.4637 9.35177 41.2455 9.6908 41.1224 10.0694C40.2552 12.7195 39.1138 14.8102 37.7543 16.3076C36.2996 17.9293 34.5708 18.8334 32.5622 19.0538C33.7036 17.5564 34.291 16.1833 34.2631 14.9684C34.2631 14.4712 34.14 14.0304 33.9554 13.7197C33.7372 13.4089 33.491 13.2224 33.1833 13.1264C32.842 13.0642 32.5343 13.1264 32.165 13.3128C31.8237 13.5332 31.516 13.8722 31.2083 14.3412C30.5593 15.5279 30.2515 17.1835 30.3131 19.3646C28.9871 20.7377 27.9017 21.2349 27.1632 20.8959C26.419 20.523 26.0498 19.4946 25.9882 17.7146C25.9547 15.9347 26.268 13.7536 26.8834 11.0695C27.5604 8.26121 28.5507 5.29465 29.8207 2.17553C30.1005 1.58222 30.162 1.08497 30.1005 0.706383C29.9774 0.333445 29.7928 0.113072 29.4515 0.0226627C29.1438 -0.0394937 28.7745 0.0226627 28.4332 0.271288C28.0024 0.58207 27.6891 1.02282 27.4429 1.64438C27.0121 2.89316 26.3295 5.07428 25.4343 8.26121L23.1796 15.6861C22.3124 18.3701 21.5123 20.4269 20.8298 21.8961C19.9625 23.676 19.1625 24.6705 18.4184 24.8909C19.3471 23.1109 19.7443 21.6757 19.5933 20.5851C19.4982 20.1161 19.3471 19.7714 19.1009 19.5228C18.8548 19.3363 18.575 19.212 18.2337 19.2403C17.8924 19.2742 17.5567 19.4268 17.2434 19.6754C16.8742 19.9579 16.5665 20.3591 16.3483 20.8281C15.7328 22.043 15.5426 23.5743 15.7608 25.4164L14.681 26.5069L13.6291 27.6314C12.8235 28.4733 12.0514 28.9423 11.4359 29.1005C11.9898 26.3544 12.734 23.6082 13.6907 20.8337C14.5859 18.1215 15.4195 16.1551 16.1636 14.9063C16.3483 14.5955 16.4098 14.2847 16.3818 13.9683C16.3483 13.7197 16.2252 13.5332 16.0405 13.4089C15.8559 13.2846 15.6377 13.2507 15.4251 13.3128C15.1454 13.375 14.9327 13.5615 14.7145 13.8101C13.7858 15.121 12.9242 17.0535 12.0905 19.585C11.5982 21.2067 10.9772 23.5178 10.2386 26.5408L9.46654 29.7843L8.69445 32.4344C8.16853 34.09 7.58107 34.9602 6.99361 35.0224C5.63405 34.9602 4.49269 33.5532 3.53597 30.8127C3.1667 29.7843 2.79185 28.4733 2.45615 26.9138L1.56097 22.7945C1.28123 22.0769 1.00708 21.7322 0.665791 21.7661C0.509135 21.7661 0.386047 21.8622 0.296529 22.0769C0.173441 22.2633 0.050354 22.5459 0.0167847 22.8567C0.0167847 23.5404 0.173441 24.6027 0.447591 26.0379C0.788879 27.7557 1.21968 29.3435 1.7456 30.8409C2.36104 32.683 3.10516 34.1183 3.84369 35.1806C4.77244 36.4293 5.69559 37.0509 6.68589 36.9888C8.44828 37.0509 9.68474 36.0508 10.3953 34.0844L10.552 33.6775L10.8317 32.6152L10.9884 31.6772L11.2345 29.773C12.2248 30.711 13.3382 30.5245 14.6026 29.2418L15.9007 27.7105C16.3315 27.1172 16.5776 26.7725 16.7343 26.6821C17.3218 27.3037 17.9372 27.4619 18.6813 27.1793C19.2968 26.9307 19.9458 26.3374 20.6563 25.3994C21.2717 24.5575 21.8928 23.5291 22.5082 22.2803C23.0621 21.1897 23.5601 20.0031 23.9909 18.7882C24.9476 21.2858 26.1225 22.5346 27.5436 22.5007C28.0975 22.4668 28.685 22.2803 29.3675 21.9074L31.0348 20.6586C31.8405 21.0033 32.7636 21.0654 33.6924 20.8451C34.6211 20.6586 35.5443 20.1896 36.5066 19.472C37.4633 18.7204 38.3585 17.8163 39.2537 16.6636C40.1209 15.5392 40.921 14.2282 41.6036 12.7647C41.7602 13.9796 42.1575 14.8837 42.7169 15.5731C42.9631 15.8838 43.2708 16.0703 43.5841 16.1946C43.8639 16.2907 44.1716 16.2907 44.4514 16.1946C45.9955 16.3528 46.8292 18.4718 47.0474 22.5911C47.232 25.8063 46.9858 29.9538 46.3368 35.1636C46.2417 35.6609 46.3033 36.0677 46.3984 36.3785C46.5215 36.661 46.6445 36.8136 46.8292 36.8757C47.0138 36.8757 47.1705 36.7797 47.3215 36.5932C47.4782 36.3446 47.5677 36.0338 47.6013 35.627C48.0041 33.1294 48.3454 30.6319 48.6195 28.1399C48.8993 25.3938 49.0224 22.9301 49.0224 20.8677C49.0559 18.4944 48.8657 16.7201 48.4965 15.4996C48.0657 14.1604 47.4446 13.6293 46.611 13.8779C45.7773 14.1887 45.1283 14.3469 44.636 14.3751C44.1716 14.409 43.8023 14.2508 43.5841 13.94C43.3659 13.6293 43.2429 13.1603 43.2429 12.5387C43.2093 11.9454 43.2764 11.1656 43.4275 10.1655C43.5841 9.54389 43.5506 9.10314 43.3939 8.79236C43.2373 8.54374 42.9911 8.48158 42.6834 8.54374C42.3757 8.57764 42.0679 8.73021 41.7882 9.04099L41.7714 9.06924ZM32.3776 15.2792C32.5007 15.121 32.6238 15.0589 32.7189 15.121C32.814 15.1549 32.8755 15.3075 32.8755 15.59C32.8755 15.8386 32.7804 16.1212 32.6909 16.4319C32.5958 16.7145 32.4447 16.9631 32.3216 17.1496C32.165 17.3078 32.0755 17.3982 31.9804 17.336C31.8573 17.24 31.8237 17.0874 31.8237 16.8388C31.8237 16.5563 31.8852 16.2794 31.9804 15.9969C32.1034 15.6861 32.2265 15.4374 32.3832 15.2792H32.3776ZM18.105 21.331C18.2281 21.3932 18.2617 21.5514 18.2617 21.8C18.2617 22.0486 18.2281 22.3312 18.105 22.6419L17.7358 23.3257C17.6127 23.5121 17.456 23.5743 17.3945 23.546C17.2994 23.4839 17.2378 23.3257 17.2378 23.0488C17.2714 22.7662 17.2994 22.4894 17.4225 22.2068C17.484 21.9243 17.6071 21.6757 17.7638 21.4892C17.9204 21.3027 18.0435 21.2406 18.105 21.331Z" fill="white"/>
<path d="M20.2031 13.6293C20.0465 13.5049 19.8338 13.601 19.5877 13.9118C19.3079 14.2226 19.1233 14.6294 18.9722 15.1267C18.7876 15.6861 18.6925 16.1551 18.6925 16.6241C18.6589 17.0592 18.7261 17.3417 18.8771 17.466C19.0618 17.5282 19.28 17.4038 19.4926 17.1213C19.7723 16.8388 19.9569 16.4037 20.1695 15.9064C20.3262 15.3753 20.4157 14.878 20.4157 14.4373C20.4493 14.0304 20.3542 13.7197 20.1975 13.6236L20.2031 13.6293Z" fill="white"/>
</g>
<defs>
<clipPath id="clip0_48_94">
<rect width="49" height="37" fill="white"/>
</clipPath>
</defs>
</svg>
