<svg width="85" height="18" viewBox="0 0 85 18" fill="none" xmlns="http://www.w3.org/2000/svg">
<g clip-path="url(#clip0_48_100)">
<path d="M49.452 6.56332C48.8216 6.38727 48.4293 6.8591 48.3103 7.29572C47.876 8.84501 47.2386 10.8943 46.419 12.3168C46.2439 12.6267 45.8236 13.5563 44.9621 13.5563C44.1005 13.5563 43.6803 12.6197 43.5051 12.3168C42.6856 10.9014 42.0482 8.84501 41.6139 7.29572C41.4878 6.85206 41.1026 6.38023 40.4722 6.56332C39.7577 6.76755 39.8978 7.52811 39.9889 7.85206C40.3951 9.28868 40.9135 10.9647 41.5649 12.3239C42.2163 13.676 43.0569 15.2394 44.9761 15.2394C46.8953 15.2394 47.7289 13.676 48.3803 12.3239C49.0317 10.9647 49.5501 9.28868 49.9563 7.85206C50.0474 7.52811 50.1805 6.76051 49.473 6.56332" fill="white"/>
<path d="M15.1998 6.56335C12.8393 6.56335 10.92 8.48589 10.92 10.8662C10.92 13.2465 12.8323 15.169 15.1998 15.169C17.5673 15.169 19.4796 13.2465 19.4796 10.8662C19.4796 8.48589 17.5673 6.56335 15.1998 6.56335ZM15.1998 13.3591C13.8269 13.3591 12.7202 12.2394 12.7202 10.8662C12.7202 9.49293 13.8339 8.37321 15.1998 8.37321C16.5657 8.37321 17.6794 9.49293 17.6794 10.8662C17.6794 12.2394 16.5657 13.3591 15.1998 13.3591Z" fill="white"/>
<path d="M15.2769 18H15.2559C11.9568 17.993 9.65927 16.4437 8.23034 13.2746C7.90814 12.5704 7.67699 11.8239 7.45284 11.1056C6.73838 8.80985 6.3111 7.88732 4.93821 7.97183C3.01897 8.09154 1.93327 13.3239 1.71613 15.831C1.6741 16.3099 1.26083 16.6549 0.784526 16.6127C0.308218 16.5704 -0.0420089 16.1479 0.00702281 15.6761C0.0140273 15.5845 0.210154 13.4577 0.819549 11.2676C1.72313 8.04225 3.07501 6.34507 4.84015 6.23943C7.69099 6.05633 8.4755 8.57042 9.09891 10.5845C9.30904 11.2535 9.52618 11.9437 9.79936 12.5563C10.9341 15.0775 12.6712 16.2606 15.2629 16.2676H15.2769C17.4413 16.2676 18.7932 14.9155 18.8072 14.9014C19.1434 14.5634 19.6898 14.5563 20.026 14.8944C20.3622 15.2324 20.3692 15.7817 20.033 16.1197C19.9559 16.1972 18.1558 18 15.2769 18Z" fill="white"/>
<path d="M34.7005 3.70419C34.7005 3.70419 34.6865 3.70419 34.6795 3.70419C31.4013 4.06335 29.279 5.84504 28.1863 9.14786C27.9411 9.88729 27.794 10.6479 27.6399 11.3873C27.1706 13.7464 26.8414 14.7042 25.4685 14.7676C23.5493 14.8521 21.9242 9.76758 21.4409 7.2887C21.3498 6.81687 20.9015 6.51405 20.4322 6.6056C19.9629 6.69715 19.6617 7.1549 19.7528 7.61969C19.7738 7.71124 20.1871 9.80279 21.0276 11.9155C22.2604 15.0281 23.7874 16.5704 25.5525 16.4929C28.4034 16.3732 28.9217 13.7957 29.335 11.7253C29.4751 11.0352 29.6152 10.3239 29.8253 9.69011C30.6939 7.05631 32.2909 5.70419 34.8686 5.4225C34.8686 5.4225 34.8756 5.4225 34.8826 5.4225C37.033 5.19715 38.5179 6.39434 38.5389 6.40842C38.9102 6.71124 39.4495 6.6549 39.7507 6.2887C40.0519 5.91546 39.9959 5.37321 39.6317 5.07039C39.5476 4.99997 37.5653 3.39434 34.7005 3.69715" fill="white"/>
<path d="M63.5241 6.56335C64.0705 6.56335 64.5888 6.66899 65.0861 6.87321C65.5834 7.07744 66.0177 7.36617 66.389 7.73941C66.7602 8.10561 67.0614 8.54927 67.2855 9.05631C67.5097 9.5704 67.6288 10.1197 67.6288 10.7112V14.3098C67.6288 14.5493 67.5447 14.7465 67.3836 14.9155C67.2225 15.0845 67.0264 15.169 66.7952 15.1831C66.5711 15.1831 66.3749 15.1056 66.2068 14.9507C66.0457 14.7957 65.9617 14.5986 65.9617 14.3662V10.8732C65.9617 10.5141 65.8986 10.1831 65.7726 9.87321C65.6465 9.56335 65.4784 9.29575 65.2542 9.06335C65.0371 8.83096 64.7709 8.64786 64.4767 8.51406C64.1755 8.38026 63.8533 8.30983 63.5031 8.30983C63.1739 8.30983 62.8657 8.37321 62.5785 8.49997C62.2913 8.62673 62.0321 8.80279 61.815 9.02814C61.5979 9.2535 61.4157 9.51406 61.2897 9.80983C61.1636 10.1056 61.0935 10.4296 61.0935 10.7746V14.3169C61.0935 14.5563 61.0095 14.7605 60.8414 14.9296C60.6733 15.0986 60.4701 15.1901 60.246 15.1901C60.0218 15.1901 59.8187 15.1127 59.6506 14.9577C59.4825 14.8028 59.3984 14.6056 59.3984 14.3732V10.8803C59.4124 10.2887 59.5245 9.72533 59.7347 9.2042C59.9518 8.68307 60.239 8.22533 60.5962 7.83096C60.9604 7.43659 61.3877 7.13378 61.885 6.90843C62.3824 6.68307 62.9217 6.5704 63.5101 6.5704" fill="white"/>
<path d="M69.4429 3.85922C69.6881 3.85922 69.8982 3.95076 70.0593 4.13386C70.2205 4.31696 70.3115 4.54231 70.3395 4.81696V6.40851H75.0466C75.2847 6.40851 75.4809 6.50006 75.635 6.68316C75.7961 6.86626 75.8731 7.07753 75.8731 7.30992C75.8731 7.54231 75.7891 7.76062 75.6209 7.94372C75.4528 8.13386 75.2637 8.22541 75.0466 8.22541H70.3395V10.8099C70.3395 11.155 70.4026 11.4789 70.5216 11.7888C70.6477 12.0987 70.8158 12.3733 71.033 12.6127C71.2501 12.8522 71.5093 13.0353 71.8105 13.1761C72.1047 13.317 72.4269 13.3874 72.7631 13.3874C73.1413 13.3874 73.4706 13.331 73.7297 13.2184C73.9959 13.1057 74.227 12.9508 74.4302 12.7465H74.4162C74.5843 12.5846 74.7944 12.5001 75.0396 12.5001C75.2707 12.5001 75.4809 12.5916 75.663 12.7677C75.8171 12.9226 75.9011 13.1268 75.9011 13.3874C75.9011 13.4789 75.8871 13.5775 75.8591 13.6761C75.8311 13.7747 75.775 13.8592 75.698 13.9296H75.712C75.3198 14.331 74.8855 14.6409 74.4232 14.8522C73.9609 15.0634 73.4495 15.1691 72.8962 15.1691C72.3148 15.1691 71.7614 15.0634 71.2361 14.8592C70.7108 14.655 70.2555 14.3592 69.8702 13.9719C69.485 13.5916 69.1698 13.1268 68.9386 12.5916C68.7005 12.0564 68.5814 11.4578 68.5674 10.7958V4.80992C68.5674 4.57753 68.6514 4.35922 68.8125 4.15499C68.9736 3.95781 69.1838 3.85217 69.4429 3.85217" fill="white"/>
<path d="M58.1026 9.26053C57.8714 8.7394 57.5702 8.28166 57.199 7.89433C56.8277 7.49997 56.3935 7.18306 55.8961 6.94363C55.3988 6.70419 54.8875 6.58447 54.3481 6.58447C53.8088 6.58447 53.2624 6.70419 52.7791 6.94363C52.2888 7.18306 51.8545 7.49997 51.4763 7.89433C51.098 8.2887 50.7968 8.7394 50.5797 9.26053C50.3626 9.78166 50.2505 10.3239 50.2505 10.8873C50.2505 11.4507 50.3626 12.0281 50.5797 12.5563C50.7968 13.0845 51.091 13.5493 51.4693 13.9436C51.8405 14.345 52.2748 14.6549 52.7721 14.8802C53.2694 15.1056 53.7878 15.2112 54.3341 15.1901C54.3902 15.1901 54.4462 15.1831 54.5092 15.176C54.9715 15.1619 55.3988 15.0633 55.7911 14.8873C56.2254 14.6901 56.6246 14.4014 56.9959 14.0281L57.0379 13.9788C57.0939 13.8943 57.1009 13.8873 57.1289 13.7887C57.157 13.6971 57.171 13.6056 57.171 13.5141C57.171 13.2746 57.0939 13.0774 56.9538 12.9366C56.7857 12.7676 56.5896 12.6901 56.3725 12.6901C56.1413 12.6901 55.9452 12.7676 55.7911 12.9225L55.7771 12.9436C55.693 13.0281 55.609 13.0986 55.5179 13.1619C55.3568 13.2464 55.1677 13.331 54.9645 13.3732C54.7894 13.4084 54.6003 13.4577 54.3622 13.4577C53.9349 13.4577 53.5146 13.331 53.0803 13.0704C52.653 12.8098 52.2748 12.3802 51.9526 11.7746H57.5702C57.8224 11.7887 58.0395 11.7042 58.2076 11.5211C58.3757 11.338 58.4598 11.1338 58.4598 10.9014C58.4598 10.338 58.3477 9.79574 58.1166 9.27461M51.9386 9.99997C51.9386 9.99997 51.9456 9.95067 51.9736 9.92954C52.2048 9.48588 52.534 9.11264 52.9542 8.80278C53.3745 8.49997 53.8438 8.34504 54.3692 8.34504C54.8945 8.34504 55.3288 8.49292 55.749 8.79574C56.1693 9.09151 56.5125 9.47884 56.7787 9.94363V9.97884C56.7787 9.97884 56.7787 9.99997 56.7927 9.99997H51.9456H51.9386Z" fill="white"/>
<path d="M35.7161 6.54932C36.2485 6.61271 36.7528 6.76059 37.2221 7.01411C37.6914 7.26763 38.0976 7.58454 38.4339 7.97186C38.7701 8.35918 39.0363 8.80285 39.2324 9.2958C39.4285 9.78876 39.5266 10.3099 39.5266 10.8592V14.3099C39.5266 14.5493 39.4355 14.7536 39.2604 14.9296C39.0853 15.1057 38.8822 15.1902 38.658 15.1902C38.574 15.1902 38.4829 15.1902 38.3848 15.169C38.2868 15.155 38.1887 15.1268 38.0906 15.0705C37.9926 15.0141 37.9085 14.9437 37.8315 14.8451C37.7544 14.7536 37.7124 14.6197 37.6984 14.4507C37.6424 14.4719 37.5303 14.5282 37.3762 14.6127C37.2221 14.6972 37.11 14.7536 37.04 14.7888C36.9069 14.8521 36.7738 14.9014 36.6337 14.9507C36.4936 15 36.3395 15.0493 36.1854 15.0916C35.8912 15.155 35.569 15.1831 35.2258 15.1831C34.3362 15.1831 33.5447 14.9437 32.8442 14.4578C32.1438 13.9719 31.6255 13.3521 31.2752 12.5916C31.1562 12.331 31.0651 12.0493 31.0021 11.7606C30.939 11.4648 30.904 11.169 30.904 10.8592C30.904 10.5493 30.939 10.2535 31.0021 9.96482C31.0651 9.67608 31.1562 9.40144 31.2752 9.12679C31.6185 8.35214 32.1438 7.72538 32.8442 7.24651C33.5447 6.76763 34.3362 6.5282 35.2258 6.5282H35.478C35.548 6.5282 35.6321 6.5282 35.7301 6.54932M35.2118 13.4366C35.555 13.4366 35.8842 13.3733 36.1994 13.2395C36.5146 13.1057 36.7878 12.9296 37.0189 12.6972C37.2501 12.4648 37.4322 12.1902 37.5723 11.8803C37.7124 11.5705 37.7754 11.2324 37.7754 10.8592C37.7754 10.5282 37.7054 10.1972 37.5723 9.88735C37.4392 9.57045 37.2501 9.2958 37.0119 9.06341C36.7738 8.83101 36.5006 8.64087 36.1924 8.50003C35.8842 8.35918 35.555 8.28172 35.2118 8.28172C34.8686 8.28172 34.5463 8.35214 34.2452 8.48594C33.944 8.62679 33.6708 8.80989 33.4326 9.04932C33.1945 9.28876 33.0054 9.56341 32.8723 9.87327C32.7392 10.1831 32.6691 10.5141 32.6691 10.8592C32.6691 11.2043 32.7392 11.5493 32.8863 11.8592C33.0264 12.169 33.2225 12.4437 33.4677 12.6761C33.7128 12.9085 33.986 13.0916 34.2872 13.2324C34.5884 13.3733 34.9036 13.4366 35.2188 13.4366" fill="white"/>
<path d="M81.1896 6.54932C81.7219 6.61271 82.2262 6.76059 82.6955 7.01411C83.1648 7.26763 83.5641 7.58454 83.9073 7.97186C84.2435 8.35918 84.5097 8.80285 84.7058 9.2958C84.902 9.78876 85 10.3099 85 10.8592V14.3099C85 14.5493 84.909 14.7536 84.7338 14.9296C84.5587 15.1057 84.3556 15.1902 84.1315 15.1902C84.0474 15.1902 83.9563 15.1902 83.8583 15.169C83.7602 15.155 83.6622 15.1268 83.5641 15.0705C83.466 15.0141 83.382 14.9437 83.3049 14.8451C83.2279 14.7536 83.1858 14.6197 83.1718 14.4507C83.1158 14.4719 83.0037 14.5282 82.8496 14.6127C82.6955 14.6972 82.5835 14.7536 82.5134 14.7888C82.3803 14.8521 82.2472 14.9014 82.1071 14.9507C81.9671 15 81.813 15.0493 81.6589 15.0916C81.3647 15.155 81.0425 15.1831 80.6992 15.1831C79.8097 15.1831 79.0181 14.9437 78.3177 14.4578C77.6172 13.9719 77.0989 13.3521 76.7487 12.5916C76.6296 12.331 76.5385 12.0493 76.4755 11.7606C76.4125 11.4648 76.3774 11.169 76.3774 10.8592C76.3774 10.5493 76.4125 10.2535 76.4755 9.96482C76.5385 9.67608 76.6296 9.40144 76.7487 9.12679C77.0919 8.35214 77.6172 7.72538 78.3177 7.24651C79.0181 6.76763 79.8097 6.5282 80.6992 6.5282H80.9514C81.0214 6.5282 81.1055 6.5282 81.2036 6.54932M80.6852 13.4366C81.0285 13.4366 81.3577 13.3733 81.6729 13.2395C81.9881 13.1057 82.2612 12.9296 82.4924 12.6972C82.7235 12.4648 82.9057 12.1902 83.0458 11.8803C83.1788 11.5705 83.2489 11.2324 83.2489 10.8592C83.2489 10.5282 83.1788 10.1972 83.0458 9.88735C82.9127 9.57045 82.7235 9.2958 82.4854 9.06341C82.2472 8.83101 81.9741 8.64087 81.6659 8.50003C81.3577 8.35918 81.0285 8.28172 80.6852 8.28172C80.342 8.28172 80.0198 8.35214 79.7186 8.48594C79.4174 8.62679 79.1442 8.80989 78.9061 9.04932C78.6679 9.28876 78.4788 9.56341 78.3457 9.87327C78.2056 10.1831 78.1426 10.5141 78.1426 10.8592C78.1426 11.2043 78.2126 11.5493 78.3527 11.8592C78.4928 12.169 78.6889 12.4437 78.9341 12.6761C79.1793 12.9085 79.4524 13.0916 79.7536 13.2324C80.0548 13.3733 80.37 13.4366 80.6852 13.4366Z" fill="white"/>
<path fill-rule="evenodd" clip-rule="evenodd" d="M23.297 2.62671C23.4301 2.92953 23.6123 3.18305 23.8504 3.36615C23.5632 3.80277 23.255 4.23234 23.1149 4.80277C23.6893 4.61967 23.9625 4.16192 24.3898 3.85206C24.6559 4.176 24.796 4.63375 25.1182 4.89431C25.2793 4.61967 25.0202 4.01403 24.8941 3.7253C25.1813 3.56333 25.6856 3.5915 25.9518 3.40136C25.8187 3.11262 25.3073 3.25347 24.9151 3.25347C24.803 3.13375 25.1322 2.99291 25.0412 2.73234C24.6909 2.74643 24.5509 2.94361 24.3407 3.08446C23.9905 2.96474 23.6123 2.59854 23.29 2.63375" fill="white"/>
<path fill-rule="evenodd" clip-rule="evenodd" d="M22.5896 5.67607C22.8768 6.02818 23.206 6.29579 23.5913 6.45072C23.3671 7.13382 23.122 7.80987 23.136 8.61269C23.8224 8.16199 24.0256 7.45776 24.4809 6.89438C24.9432 7.22537 25.3004 7.77466 25.8117 8.00002C25.9308 7.58452 25.3704 6.8803 25.0973 6.52818C25.4195 6.20424 26.0919 6.0634 26.3791 5.71833C26.0989 5.38734 25.4755 5.75354 24.9642 5.90142C24.7751 5.78171 25.1533 5.47889 24.9362 5.16199C24.4809 5.30987 24.3618 5.61973 24.1376 5.8803C23.6333 5.85213 22.9959 5.50002 22.5826 5.66199" fill="white"/>
<path fill-rule="evenodd" clip-rule="evenodd" d="M29.9093 0C29.9093 0 30.4837 0.957747 29.6572 1.57042C29.6572 1.57042 31.1281 1.4507 31.6184 2.07746C31.6184 2.07746 31.3943 2.82394 29.6712 2.52113C29.6712 2.52113 30.0074 4.07042 29.6572 4.64085C29.6572 4.64085 28.7396 4.66197 28.6625 2.42254C28.6625 2.42254 27.0445 4.26056 25.7416 4.42958C25.7416 4.42958 26.246 2.90141 27.7099 1.76056C27.7099 1.76056 26.5121 1.19014 26.6522 0.169014C26.6522 0.169014 27.913 0.408451 28.7046 1.16197C28.7046 1.16197 29.1739 0.056338 29.9093 0" fill="white"/>
</g>
<defs>
<clipPath id="clip0_48_100">
<rect width="85" height="18" fill="white"/>
</clipPath>
</defs>
</svg>
