<svg width="67" height="39" viewBox="0 0 67 39" fill="none" xmlns="http://www.w3.org/2000/svg">
<g clip-path="url(#clip0_47_72)">
<path d="M61.3973 18.5328C61.3883 18.4927 61.375 18.4525 61.3616 18.4169C61.3482 18.3723 61.3303 18.3322 61.3125 18.2921C61.308 18.2787 61.2991 18.2653 61.2946 18.252C61.2812 18.2252 61.2723 18.2029 61.2589 18.1762C61.2321 18.1272 61.2053 18.0871 61.1785 18.0469C61.1607 18.0202 61.1384 17.989 61.1205 17.9667C60.8303 17.5834 60.3794 17.3383 59.8705 17.3383C59.3616 17.3383 58.8973 17.5968 58.6071 17.989C58.5848 18.0202 58.5625 18.0469 58.5446 18.0781C58.4419 18.2431 58.3616 18.4258 58.3214 18.6264C58.25 18.9027 58.2098 19.2236 58.2098 19.5668C58.2098 19.91 58.25 20.2265 58.3214 20.5028V20.5207C58.3571 20.6722 58.4107 20.8148 58.4776 20.9441V20.953L58.491 20.9708C58.5134 21.0109 58.5357 21.0466 58.558 21.0823C58.5758 21.109 58.5937 21.1357 58.6116 21.158C58.9017 21.5413 59.3526 21.7909 59.866 21.7909C60.3482 21.7909 60.7767 21.5681 61.0669 21.2204L61.0848 21.2026L61.0982 21.1892C61.1785 21.1001 61.25 20.9797 61.308 20.8371L61.3169 20.8193V20.8104C61.3392 20.7703 61.3526 20.7257 61.366 20.6811L61.375 20.6633L61.3839 20.6365C61.4776 20.3379 61.5312 19.9724 61.5312 19.5713C61.5312 19.1924 61.4821 18.8448 61.3973 18.5551V18.5461V18.5328Z" fill="white"/>
<path d="M40.8616 15.7115L40.9777 15.6223L40.8571 15.707L40.8616 15.7115Z" fill="white"/>
<path d="M35.0089 18.6264H36.3705C36.3303 18.0381 35.9464 17.5523 35.4419 17.4007C35.3482 17.3606 35.1785 17.3339 34.9821 17.3339C34.8437 17.3339 34.7232 17.3472 34.6294 17.3695H34.6116L34.6071 17.374C33.9821 17.4943 33.5 18.0024 33.4509 18.6264H35.0089V18.6264Z" fill="white"/>
<path d="M47.2051 0C36.4194 0 27.6739 8.73154 27.6739 19.5C27.6739 30.2685 36.4194 39 47.2051 39C57.9909 39 66.7364 30.2685 66.7364 19.5C66.7364 8.73154 57.9909 0 47.2051 0ZM35.0712 13.367H37.4641L35.3748 14.9582H33.8123L35.0712 13.367V13.367ZM35.3703 23.6585C35.3391 23.663 35.3034 23.6674 35.2721 23.6719C35.1605 23.6853 35.0534 23.6853 34.9551 23.6808C34.848 23.6897 34.7409 23.6942 34.6292 23.6942C33.9507 23.6942 33.3435 23.5694 32.9373 23.3688L32.9194 23.3599C32.7542 23.293 32.5757 23.195 32.4016 23.0746C32.2587 22.9721 32.1292 22.8651 32.0221 22.7582C31.2275 22.0495 30.7096 20.9174 30.7096 19.6471C30.7096 19.1835 30.7766 18.7378 30.906 18.3278V18.3144C31.1605 17.4408 31.6739 16.7009 32.3569 16.1973H32.3659C32.5355 16.0546 32.7409 15.9298 32.973 15.8184C33.2185 15.6758 33.5355 15.5643 33.9016 15.5019H33.9105C34.0489 15.4663 34.2007 15.444 34.3659 15.4395C34.4194 15.4395 34.4685 15.4395 34.5176 15.4395H34.5578C34.5801 15.4395 34.6025 15.4351 34.6248 15.4351C34.6694 15.4351 34.7096 15.4351 34.7498 15.444C34.7766 15.444 34.8034 15.444 34.8257 15.444C36.0712 15.444 37.1694 16.0546 37.8212 16.9773V16.9862C38.156 17.4007 38.406 18.047 38.5132 18.8047C38.5623 19.0053 38.5891 19.2549 38.6025 19.5267V19.5357C38.6114 19.6471 38.6203 19.763 38.6203 19.8789C38.6203 20.0037 38.6159 20.1285 38.6025 20.2443H33.1917V20.2577C33.1962 20.4137 33.2096 20.5563 33.2319 20.6722C33.2364 20.7079 33.2453 20.7435 33.2542 20.7703C33.2542 20.7881 33.2632 20.8059 33.2676 20.8238L33.2766 20.8461C33.415 21.2918 33.7766 21.6439 34.2409 21.7642C34.3435 21.8043 34.531 21.8266 34.7453 21.8266C34.8971 21.8266 35.031 21.8133 35.1337 21.791H35.1516L35.156 21.7865C35.7409 21.6885 36.2096 21.3141 36.3703 20.8238H38.4953C38.4864 20.8505 38.4819 20.8773 38.473 20.8995C38.2185 22.4016 36.9417 23.556 35.3748 23.6585H35.3703ZM45.223 23.4891H43.3971L43.3748 23.4535L41.9462 21.3185L40.4775 23.5114H37.7051L38.473 22.3749L38.9909 21.6082L40.5042 19.3618L39.2453 17.4943V17.5032L37.9284 15.6134H40.7632L41.9641 17.3829L43.1382 15.6134H45.9284L45.1962 16.6786L44.6292 17.5032V17.4854L43.3435 19.3039L44.8614 21.5547L46.2096 23.4936H45.223V23.4891ZM49.4685 25.3567C49.4685 26.1768 48.8034 26.8454 47.9775 26.8454C47.156 26.8454 46.4864 26.1813 46.4864 25.3567C46.4864 24.5321 47.1516 23.868 47.9775 23.868C48.7989 23.868 49.4685 24.5321 49.4685 25.3567V25.3567ZM49.1382 23.4847H46.8301L46.3837 15.6089H49.5846L49.1382 23.4847ZM55.2542 17.365H53.7632V21.265C53.7632 21.265 53.7587 21.2962 53.7587 21.3096C53.7587 21.421 53.8435 21.5102 53.9507 21.5102H53.9551C54.4016 21.5993 54.8034 21.5859 55.0935 21.4879C55.1203 21.4745 55.1426 21.4656 55.1605 21.4522H55.2453V22.981H55.2498V23.449C55.0846 23.4891 54.8748 23.5248 54.6382 23.5426C54.5087 23.5515 54.3837 23.556 54.2632 23.556C54.098 23.5694 53.9284 23.5783 53.7453 23.5783C53.5087 23.5783 53.281 23.5649 53.0757 23.5382H53.0712C52.8703 23.5248 52.6828 23.4847 52.5042 23.4223L52.473 23.4134C52.4507 23.4045 52.4284 23.3955 52.406 23.3866C52.3792 23.3777 52.3525 23.3643 52.3257 23.351C51.7944 23.1103 51.415 22.6779 51.3346 22.1609C51.3167 22.1119 51.3034 22.0227 51.2989 21.9247C51.2989 21.8578 51.2989 21.7954 51.3078 21.7419V17.365H50.0534V15.6045H51.3078V13.367H53.7676V15.6045H55.2587V17.365H55.2542ZM62.9909 22.103C62.9596 22.1475 62.9284 22.1921 62.8971 22.2322C62.8659 22.2723 62.8391 22.3125 62.8078 22.3481L62.7989 22.357H62.7944L62.7855 22.3704C62.6917 22.4818 62.5935 22.5843 62.4909 22.6779L62.4819 22.6869C61.781 23.3287 60.7587 23.7298 59.6203 23.7298C58.4819 23.7298 57.4596 23.3242 56.7587 22.6869L56.7498 22.6779C56.6471 22.5843 56.5489 22.4818 56.4551 22.3704L56.4462 22.3615L56.4328 22.3481C56.4016 22.3125 56.3703 22.2723 56.3435 22.2322C56.3123 22.1877 56.281 22.1475 56.2498 22.103C56.2185 22.0584 56.1917 22.0138 56.165 21.9693C55.7766 21.3274 55.54 20.485 55.54 19.5579C55.54 18.6309 55.7766 17.7885 56.165 17.1466C56.1917 17.1021 56.223 17.0575 56.2498 17.0129L56.2721 16.9773C56.2944 16.9461 56.3167 16.9149 56.3391 16.8837L56.3569 16.8614C56.3748 16.8346 56.3971 16.8123 56.415 16.7856L56.4417 16.7499L56.4507 16.741C56.5176 16.6608 56.5891 16.5895 56.6605 16.5182C56.6873 16.4914 56.7185 16.4647 56.7453 16.4379C57.4462 15.7917 58.473 15.3861 59.6159 15.3861C60.7587 15.3861 61.7855 15.7917 62.4864 16.4379C62.4998 16.4513 62.5176 16.4647 62.531 16.4781L62.5712 16.5182C62.6426 16.5895 62.7141 16.6608 62.781 16.741L62.7944 16.7544L62.8167 16.7811C62.8792 16.8569 62.9328 16.9327 62.9864 17.0129C63.0132 17.0575 63.0444 17.1021 63.0712 17.1466C63.4596 17.7885 63.6962 18.6309 63.6962 19.5579C63.6962 20.485 63.4596 21.3274 63.0712 21.9693C63.0444 22.0138 63.0132 22.0584 62.9864 22.103H62.9909Z" fill="white"/>
<path d="M17.9464 17.0664C17.125 17.0664 16.3929 17.4007 15.9196 17.9222V17.267H15.0625V25.9941H15.9196V22.981C16.3973 23.5025 17.125 23.8368 17.9464 23.8368C18.9464 23.8368 19.8125 23.3421 20.2455 22.6155L20.2545 22.6066C20.3393 22.4818 20.4107 22.3392 20.4643 22.1832L20.4777 22.1475C20.4955 22.0941 20.5134 22.0361 20.5268 21.9782C20.6384 21.5904 20.7098 21.0734 20.7098 20.5029C20.7098 20.0126 20.6562 19.5579 20.567 19.1925C20.5402 19.0454 20.5045 18.9027 20.4554 18.7735L20.4464 18.7512C20.1473 17.7795 19.1384 17.0664 17.9375 17.0664H17.9464ZM17.8973 17.8375C18.8036 17.8375 19.5625 18.4347 19.7634 19.2415C19.8839 19.5936 19.9598 20.0304 19.9598 20.5029C19.9598 21.0511 19.8616 21.5503 19.7009 21.9247C19.6786 21.9826 19.6518 22.0361 19.625 22.0896L19.6071 22.1253C19.2902 22.7181 18.6429 23.1281 17.8929 23.1281C17.3661 23.1281 16.8884 22.9231 16.5402 22.5933H16.5312C16.4062 22.4863 16.2946 22.3392 16.1964 22.1609C16.1786 22.1297 16.1652 22.0985 16.1473 22.0673C16.125 22.0272 16.1071 21.9826 16.0848 21.9425L16.0759 21.9247C16.0625 21.8935 16.0491 21.8578 16.0357 21.8222C16.0179 21.7731 16 21.7197 15.9821 21.6662C15.9777 21.6483 15.9687 21.6305 15.9643 21.6082C15.9598 21.5859 15.9509 21.5637 15.9464 21.5414C15.9375 21.5146 15.933 21.4879 15.9286 21.4611C15.9241 21.4344 15.9152 21.4121 15.9107 21.3854C15.8482 21.109 15.8125 20.8015 15.8125 20.4806C15.8125 19.5535 16.0982 18.7557 16.5 18.3991L16.5223 18.3768L16.5312 18.3679C16.8795 18.0381 17.3527 17.833 17.8795 17.833L17.8973 17.8375Z" fill="white"/>
<path d="M9.41071 17.2715V21.9916C9.41071 22.1788 9.44196 22.3794 9.50446 22.5844C9.56249 22.7627 9.64285 22.9231 9.73213 23.0658C9.78124 23.1282 9.83481 23.1817 9.89285 23.2262C10.1473 23.4937 10.5312 23.6898 10.9777 23.77C11.0045 23.7745 11.0268 23.7789 11.0536 23.7834C11.2455 23.819 11.4598 23.8413 11.6875 23.8413C11.7991 23.8413 11.9107 23.8369 12.0178 23.8279H12.0357C12.8036 23.8235 13.4687 23.3466 13.7812 22.6646V23.8413H14.6339V17.2715H13.7812V21.0913C13.7678 21.3498 13.7143 21.6172 13.6295 21.8935C13.558 22.0718 13.4553 22.2457 13.3393 22.3838C13.2946 22.4373 13.2455 22.4863 13.2053 22.522H13.1964C12.9464 22.7983 12.625 22.9945 12.2634 23.0747C12.2411 23.0791 12.2143 23.0836 12.192 23.0881H12.1696C12.067 23.1148 11.9464 23.1237 11.8214 23.1237C11.7634 23.1237 11.7098 23.1237 11.6562 23.1148C11.0268 23.0925 10.5045 22.6914 10.3527 22.1521C10.317 22.0763 10.2902 21.9871 10.2723 21.898V21.8802C10.2723 21.8802 10.2678 21.8401 10.2634 21.8222V17.2715H9.41071V17.2715Z" fill="white"/>
<path d="M9.11157 17.2581C8.12497 17.2581 7.27675 17.7172 6.93747 18.3679V17.3963H6.08032V23.8369H6.93747V19.8878C6.93747 19.8878 6.94639 19.8522 6.95086 19.8299C6.96425 19.7541 6.96872 19.6873 6.97318 19.6249C6.99104 19.5758 7.00889 19.5223 7.01782 19.4689H7.02675C7.18747 18.6889 8.1205 18.0871 9.27229 18.0381V17.2581C9.21872 17.2581 9.16514 17.2537 9.11604 17.2537L9.11157 17.2581Z" fill="white"/>
<path d="M2.7366 17.1154C1.80357 17.1154 0.986603 17.6101 0.549103 18.3455V18.3544C0.321424 18.6442 0.133924 19.0943 0.0491027 19.6203C-0.00446873 19.9456 -0.0133973 20.2576 0.0178527 20.534C0.0312456 21.207 0.200888 21.7998 0.455353 22.1876C0.861603 23.0211 1.73214 23.596 2.7366 23.596C3.57142 23.596 4.3125 23.1994 4.77232 22.5932V24.1175C4.77232 24.171 4.77232 24.229 4.77232 24.2869C4.77232 24.3092 4.77232 24.3359 4.77232 24.3582C4.70535 24.9376 3.90625 25.3878 2.92857 25.3878C2.18303 25.3878 1.54017 25.1204 1.25 24.7371L1.23214 24.7148C1.1116 24.5677 1.03571 24.3493 1.02678 24.1131H0.249996C0.267853 25.2407 1.45982 26.15 2.92857 26.15C4.39732 26.15 5.58928 25.2452 5.6116 24.122V17.4095H4.76785V18.1227C4.30803 17.512 3.56696 17.1198 2.73214 17.1198L2.7366 17.1154ZM2.83928 17.8285C3.64732 17.8285 4.33928 18.301 4.63839 18.974L4.64732 18.9918L4.65625 19.0141C4.76339 19.237 4.84375 19.5356 4.88392 19.8699C4.91517 20.0615 4.93303 20.2666 4.93303 20.4805C4.93303 20.9396 4.85267 21.3586 4.72767 21.6661C4.71428 21.6973 4.70089 21.7285 4.6875 21.7597C4.64285 21.8578 4.58928 21.9424 4.53571 22.0093C4.19196 22.5709 3.5625 22.9453 2.84375 22.9453C2.05803 22.9453 1.37946 22.4996 1.06696 21.8578C0.87946 21.5591 0.749996 21.0287 0.749996 20.4226C0.749996 19.9456 0.830353 19.5178 0.955353 19.2147C1.1875 18.4168 1.94196 17.8285 2.84375 17.8285H2.83928Z" fill="white"/>
<path d="M24.1875 17.0173C22.6875 17.0173 21.4465 18.1361 21.2545 19.5891C21.2009 19.8654 21.1697 20.1685 21.1697 20.4894C21.1697 20.9753 21.2411 21.421 21.3616 21.782C21.375 21.8221 21.3884 21.8622 21.4018 21.8979V21.9202C21.4197 21.9558 21.4331 21.987 21.4465 22.0182C21.8884 23.1013 22.9465 23.8635 24.1831 23.8635C25.317 23.8635 26.2991 23.2217 26.7947 22.2857C27.0491 21.8934 27.2188 21.2338 27.2188 20.4894C27.2188 20.0393 27.1563 19.6248 27.0536 19.2771C26.7411 17.9801 25.5759 17.0173 24.1831 17.0173H24.1875ZM24.1831 17.7037C25.2099 17.7037 26.067 18.4793 26.2991 19.5267C26.375 19.8075 26.4197 20.1462 26.4197 20.5073C26.4197 21.109 26.2947 21.6394 26.1072 21.9558C25.7411 22.7136 25.0179 23.235 24.1831 23.235C23.2724 23.235 22.4866 22.62 22.1652 21.7464C22.1563 21.7196 22.1474 21.6929 22.134 21.6661V21.6483C22.1206 21.6171 22.1116 21.5859 22.0982 21.5547C22.009 21.265 21.9554 20.904 21.9554 20.5117C21.9554 20.2532 21.9777 20.0036 22.0179 19.7852C22.1563 18.613 23.0715 17.7082 24.1786 17.7082L24.1831 17.7037Z" fill="white"/>
<path d="M64.933 15.395C64.3884 15.395 63.942 15.8363 63.942 16.3845C63.942 16.9327 64.3839 17.374 64.933 17.374C65.4821 17.374 65.9241 16.9283 65.9241 16.3845C65.9241 15.8407 65.4777 15.395 64.933 15.395ZM64.9375 15.5911C65.375 15.5911 65.7277 15.9432 65.7277 16.38C65.7277 16.8168 65.375 17.169 64.9375 17.169C64.5 17.169 64.1473 16.8168 64.1473 16.38C64.1473 15.9432 64.5 15.5911 64.9375 15.5911Z" fill="white"/>
<path d="M64.6786 15.8496H64.5312V16.9015H64.7679V16.4424H64.9062L65.1295 16.9015H65.3929L65.1652 16.4335C65.1652 16.4335 65.2009 16.4201 65.2187 16.4112C65.2589 16.3845 65.2902 16.3444 65.3125 16.2998C65.3437 16.2508 65.3616 16.1794 65.3527 16.0992C65.3437 16.0056 65.2991 15.9298 65.2411 15.9031L65.2098 15.8853H65.2009L65.1875 15.8764C65.1607 15.863 65.1339 15.8541 65.1116 15.8541H65.1027H64.6786V15.8496ZM64.7679 16.068H65.0491C65.0804 16.0769 65.1071 16.1215 65.1071 16.175C65.1071 16.2285 65.0848 16.2686 65.0536 16.2775H64.7723V16.068H64.7679Z" fill="white"/>
</g>
<defs>
<clipPath id="clip0_47_72">
<rect width="67" height="39" fill="white"/>
</clipPath>
</defs>
</svg>
