<svg width="105" height="20" viewBox="0 0 105 20" fill="none" xmlns="http://www.w3.org/2000/svg">
<g clip-path="url(#clip0_224_704)">
<path d="M48.9918 8.61397C48.7362 6.37211 48.2252 4.80277 46.1635 1.52189C46.6003 0.780304 47.3078 0.235121 48.1385 0C49.7541 1.72451 51.0534 5.47968 51.0534 8.40272C51.0534 12.5502 48.2858 17.5685 45.5788 18.5816C45.0883 18.6944 44.5771 18.681 44.0932 18.5428C43.4624 18.3807 42.9089 18.003 42.5296 17.4758C42.1504 16.9485 41.9695 16.3052 42.0186 15.6586C42.0186 12.7398 45.6524 7.65255 48.8705 6.94119C48.9788 6.94119 49.2257 8.00608 48.9918 8.61397ZM49.0351 9.60985C49.05 9.40416 49.0428 9.19751 49.0134 8.99336C46.9691 9.85562 43.9113 14.4773 43.9113 16.676C43.8945 16.8543 43.919 17.034 43.9828 17.2014C44.0466 17.3688 44.1481 17.5194 44.2795 17.6418C44.4418 17.7427 44.6294 17.7962 44.8209 17.7962C45.0123 17.7962 45.1999 17.7427 45.3623 17.6418C47.2073 16.482 49.0351 12.6364 49.0351 9.60985Z" fill="white"/>
<path d="M97.3796 9.69182C99.112 4.94942 100.654 1.79785 102.118 0.0216064C102.798 0.146633 104.283 0.99594 104.5 1.35378C102.287 3.94054 100.693 6.81617 99.3026 10.6877C98.1158 13.9901 97.4748 16.7235 97.4748 18.517C97.4748 19.0042 95.7424 18.517 95.6904 16.232C95.6774 15.0033 96.2924 12.6537 97.3796 9.69182Z" fill="white"/>
<path d="M29.1767 2.1599C29.1767 2.1599 26.0972 2.53501 24.3474 4.99675C24.3474 4.99675 24.2435 5.19934 24.5553 5.71238C24.8448 6.16414 25.1896 6.57836 25.5818 6.94545C25.6857 6.94545 25.82 6.79887 25.9066 6.61779C25.9932 6.43672 27.128 3.86716 29.0857 3.56106L23.5245 18.2194C23.5245 18.2194 24.0399 18.9394 25.7897 19.142C27.5395 19.3446 38.0512 19.0429 38.5666 8.79495C38.5666 8.79064 38.6663 1.06483 29.1767 2.1599ZM36.7042 8.76048C35.8856 14.0202 31.7667 18.2237 26.7165 17.1976C26.3051 16.5854 29.4972 8.79066 32.7802 3.04804C32.7932 3.04804 37.5228 3.50073 36.7042 8.76048V8.76048Z" fill="white"/>
<path d="M40.8319 8.79067C40.7669 8.85103 38.0513 12.3777 38.1509 16.482C38.1997 16.7663 38.3543 17.0218 38.584 17.1977C39.0171 17.6288 39.8833 18.103 39.957 17.8056C40.0652 17.077 40.8492 12.77 42.8892 10.0712C42.7332 9.50638 41.161 8.78636 40.8319 8.79067Z" fill="white"/>
<path d="M43.1967 8.17418C43.1967 8.17418 41.7587 7.49729 41.7587 7.07478C41.9259 6.11694 42.202 5.18115 42.5816 4.2854C42.6856 4.2854 44.9465 4.62169 45.3579 5.63915C45.3579 5.63915 43.3006 8.17418 43.1967 8.17418Z" fill="white"/>
<path d="M76.9581 8.79067C76.8974 8.85103 74.1775 12.3777 74.2814 16.482C74.3251 16.763 74.4716 17.0179 74.6929 17.1977C75.126 17.6288 75.9922 18.103 76.0658 17.8056C76.1741 17.077 76.9624 12.77 79.0024 10.0712C78.8638 9.50638 77.2872 8.78636 76.9581 8.79067Z" fill="white"/>
<path d="M79.3272 8.17418C79.3272 8.17418 77.8849 7.49729 77.8849 7.07478C78.0542 6.11741 78.3302 5.18184 78.7079 4.2854C78.8118 4.2854 81.0727 4.62169 81.4842 5.63915C81.4842 5.63915 79.4269 8.17418 79.3272 8.17418Z" fill="white"/>
<path d="M95.4522 9.64866C95.0327 8.9101 94.3679 8.34003 93.572 8.03635C92.7761 7.73267 91.8987 7.71434 91.0907 7.98451C88.0589 8.91575 85.941 13.9772 86.2355 15.6888C86.53 17.4003 87.4482 18.1376 88.1066 18.0298C88.7649 17.922 90.7312 17.1417 92.3684 13.158C92.3684 13.158 91.1254 16.2018 91.7144 17.4693C91.7144 17.4693 92.559 18.4825 93.9406 17.5556C93.3516 16.7623 93.1091 13.7703 95.4436 9.89443C95.4646 9.85715 95.4765 9.81536 95.478 9.7726C95.4795 9.72984 95.4706 9.68732 95.4522 9.64866V9.64866ZM89.0248 16.357C88.3708 16.814 87.0584 16.62 89.1417 12.9684C91.225 9.31672 93.5508 9.57109 93.5508 9.57109C92.5027 12.3648 89.6831 16.0337 89.0248 16.357V16.357Z" fill="white"/>
<path d="M59.6508 9.64866C59.2312 8.9101 58.5664 8.34003 57.7705 8.03635C56.9746 7.73267 56.0973 7.71434 55.2893 7.98451C52.2575 8.91575 50.1395 13.9772 50.4384 15.6888C50.7372 17.4003 51.6468 18.1376 52.3051 18.0298C52.9634 17.922 54.9298 17.1417 56.5713 13.158C56.5713 13.158 55.3283 16.2018 55.9173 17.4693C55.9173 17.4693 56.7575 18.4825 58.1392 17.5556C57.5545 16.7623 57.3076 13.7703 59.6464 9.89443C59.6656 9.8564 59.6759 9.81455 59.6766 9.77202C59.6774 9.72949 59.6685 9.68734 59.6508 9.64866V9.64866ZM53.2276 16.357C52.5693 16.814 51.257 16.62 53.3446 12.9684C55.4322 9.31672 57.7494 9.57109 57.7494 9.57109C56.7012 12.3648 53.8816 16.0337 53.2276 16.357Z" fill="white"/>
<path d="M65.5455 11.5844C65.5455 11.5844 66.9964 12.8347 67.6504 11.3343C68.3044 9.83402 68.0143 7.54475 66.1259 7.57924C64.2375 7.61373 61.093 8.26475 59.85 13.3564C58.6069 18.448 64.1118 19.6206 66.8621 15.6413C66.8621 15.6413 66.8058 15.0032 66.3597 15.4344C65.9136 15.8655 63.3279 17.8357 62.5223 16.6588C61.7167 15.4818 62.0892 9.47188 66.3727 8.75621C67.88 8.75621 65.5455 11.5844 65.5455 11.5844Z" fill="white"/>
<path d="M84.4294 11.5844C84.4294 11.5844 85.8803 12.8347 86.5343 11.3343C87.1883 9.83402 86.8981 7.54475 85.0098 7.57924C83.1214 7.61373 79.9769 8.26475 78.7296 13.3564C77.4822 18.448 82.9958 19.6206 85.7461 15.6413C85.7461 15.6413 85.6897 15.0032 85.2436 15.4344C84.7975 15.8655 82.2118 17.8357 81.4062 16.6588C80.6006 15.4818 80.9948 9.47188 85.2566 8.75621C86.7639 8.75621 84.4294 11.5844 84.4294 11.5844Z" fill="white"/>
<path d="M72.8824 4.91481C72.8824 4.91481 73.1293 4.62166 73.2809 4.61304C73.5364 4.64322 75.4465 5.16487 75.4465 5.35888C74.6482 6.33092 73.9353 7.36943 73.3156 8.46298C73.3156 8.46298 74.7579 8.39402 75.087 8.32935C75.2516 8.36384 75.3469 8.98468 75.3469 8.98468C74.5264 9.26965 73.66 9.40121 72.7915 9.3727C72.7915 9.3727 70.3574 14.2832 70.5913 16.9519C70.5913 16.9519 70.6909 18.6419 73.5105 16.6846C73.5417 16.705 73.5686 16.7315 73.5895 16.7623C73.6104 16.7932 73.6249 16.828 73.6321 16.8645C73.6394 16.901 73.6393 16.9386 73.6318 16.9751C73.6243 17.0115 73.6095 17.0462 73.5884 17.0769C73.4455 17.3356 71.5051 19.3619 69.6254 18.0211C69.6254 18.0211 67.8929 17.064 68.534 14.5721C68.9999 12.8498 69.5565 11.1531 70.2015 9.48906C69.7989 9.5349 69.3932 9.54647 68.9887 9.52358C68.8588 9.45892 68.6292 8.38107 68.7592 8.25173C68.9541 8.25173 70.6606 8.38109 70.6606 8.38109C71.3236 7.17816 72.0658 6.0202 72.8824 4.91481V4.91481Z" fill="white"/>
<path d="M61.7687 4.50532C59.6031 5.94529 58.4467 6.50145 57.5545 6.50145C57.0867 6.50145 56.9005 6.28156 56.5583 6.00995C57.8143 5.54434 59.3432 4.03972 60.5343 2.09534C61.132 2.44886 61.7687 3.74223 61.7687 4.50532Z" fill="white"/>
<path d="M5.00443 9.48478C4.89759 9.26059 4.79363 9.03643 4.69257 8.81224C4.59295 8.58375 4.49766 8.35526 4.41103 8.12677C4.32441 7.89827 4.23781 7.66115 4.15984 7.42403C4.08188 7.18691 4.0169 6.94977 3.95193 6.70834C3.82692 6.22471 3.74291 5.73148 3.70074 5.23387C3.65328 4.72834 3.67953 4.21864 3.7787 3.7206C3.83382 3.46692 3.91961 3.22084 4.03422 2.98771C4.15192 2.74746 4.31349 2.5311 4.51067 2.34965C4.71145 2.16442 4.95113 2.02596 5.21232 1.94436C5.46915 1.86068 5.73943 1.82559 6.00924 1.8409C6.2721 1.85133 6.53261 1.89481 6.78453 1.97026C6.91014 2.00475 7.0314 2.04787 7.15267 2.09098C7.27394 2.1341 7.39088 2.19014 7.50349 2.24618C7.73461 2.35611 7.9588 2.47993 8.17482 2.61695C8.38705 2.7506 8.60796 2.89718 8.7942 3.04807C9.19294 3.35608 9.57058 3.69021 9.92463 4.04827C10.0979 4.22934 10.2711 4.41042 10.4357 4.59581C10.6003 4.78119 10.7649 4.97092 10.9208 5.16492C11.0767 5.35893 11.2326 5.55725 11.3842 5.75557C11.5358 5.95388 11.6787 6.15648 11.8173 6.36342C12.0989 6.76868 12.3674 7.18688 12.6273 7.6137L13.0041 8.25607C13.1254 8.47164 13.2423 8.68721 13.3592 8.90708C13.5931 9.33821 13.7923 9.76937 14.0262 10.235C14.4593 11.1317 14.8318 12.0414 15.174 12.9683C14.7409 12.0759 14.3078 11.1878 13.8747 10.3212C13.4415 9.45462 12.9131 8.59667 12.3847 7.77321C11.8574 6.94766 11.2788 6.15572 10.6523 5.40201C10.3404 5.02693 10.0112 4.66478 9.66474 4.31988C9.32383 3.9732 8.95915 3.65052 8.57331 3.35416C8.38273 3.20757 8.18781 3.0653 7.98425 2.92303C7.78218 2.79412 7.57248 2.67753 7.35625 2.57384C7.24797 2.5178 7.13969 2.47465 7.03141 2.42722L6.69357 2.31086C6.4712 2.24324 6.24141 2.20269 6.00924 2.19013C5.78287 2.17513 5.55563 2.19991 5.33791 2.26339C5.12386 2.32959 4.92616 2.43974 4.75755 2.58674C4.58141 2.73525 4.43454 2.91512 4.32443 3.11707C4.21611 3.32489 4.13322 3.54486 4.07755 3.77234C4.01796 4.00401 3.98026 4.24073 3.96494 4.47939C3.95187 4.72065 3.95187 4.96245 3.96494 5.20371C3.99043 5.68911 4.05268 6.1719 4.15117 6.64798C4.24932 7.13001 4.37365 7.60641 4.52365 8.07503C4.65791 8.56221 4.82685 9.02347 5.00443 9.48478Z" fill="white"/>
<path d="M11.0421 15.9949C10.9035 16.1975 10.7562 16.3958 10.6089 16.5941C10.4617 16.7925 10.3058 16.9821 10.1455 17.1718C9.98527 17.3615 9.82068 17.5469 9.64743 17.728C9.47418 17.909 9.30526 18.0858 9.12335 18.2583C8.75863 18.6031 8.36608 18.9174 7.94962 19.1981C7.53054 19.4857 7.0707 19.7095 6.58529 19.8621C6.33529 19.9407 6.07621 19.987 5.81436 20C5.54584 20.0109 5.27749 19.9744 5.02175 19.8922C4.76011 19.8017 4.52195 19.6544 4.32444 19.4611C4.13016 19.2754 3.96904 19.0582 3.84799 18.8187C3.73128 18.5841 3.64262 18.3367 3.5838 18.0815C3.55781 17.9565 3.53183 17.8271 3.51451 17.7021C3.49718 17.5771 3.48418 17.4478 3.47552 17.3184C3.45819 17.0643 3.45819 16.8094 3.47552 16.5553C3.48841 16.3041 3.51443 16.0537 3.55347 15.8052C3.63235 15.3088 3.74229 14.8177 3.88265 14.335C3.95483 14.0993 4.03279 13.8622 4.11652 13.6237C4.19881 13.3866 4.28546 13.1537 4.38074 12.9252C4.47603 12.6968 4.57131 12.4639 4.67092 12.2354C4.77054 12.0069 4.87882 11.8043 4.99143 11.5629C5.21232 11.1317 5.42454 10.7006 5.69741 10.2695C5.81868 10.0539 5.94429 9.83837 6.07855 9.63143C6.21282 9.42449 6.33841 9.20027 6.47268 9.00195C6.74554 8.57082 7.02707 8.17851 7.33891 7.77756C7.91929 6.97566 8.52998 6.19531 9.17966 5.44946C8.59928 6.25136 8.03192 7.05758 7.49485 7.88534C6.95779 8.71311 6.45102 9.5538 5.98325 10.4161C5.51611 11.2782 5.10243 12.168 4.74455 13.0804C4.56697 13.5116 4.41104 13.9987 4.27677 14.4644C4.13917 14.9295 4.03354 15.4034 3.96061 15.8828C3.92156 16.1212 3.89554 16.3615 3.88265 16.6027C3.86749 16.841 3.86749 17.0801 3.88265 17.3184C3.88265 17.4348 3.88265 17.5556 3.91297 17.672C3.94329 17.7884 3.95196 17.9047 3.97361 18.0212C4.02382 18.2473 4.09935 18.4671 4.19881 18.6765C4.29947 18.8791 4.43261 19.064 4.59297 19.224C4.75489 19.3773 4.94646 19.496 5.15601 19.5732C5.3722 19.6453 5.59945 19.6788 5.82734 19.6724C6.06169 19.6696 6.29469 19.6363 6.52034 19.5732C6.75135 19.508 6.97718 19.4259 7.196 19.3275C7.41553 19.2236 7.62948 19.1085 7.83701 18.9826C8.25307 18.7282 8.64711 18.4398 9.01507 18.1203C9.3889 17.8026 9.74462 17.4644 10.0805 17.1072C10.4011 16.745 10.7259 16.3743 11.0421 15.9949Z" fill="white"/>
<path d="M13.6234 7.36804C13.8703 7.36804 14.1172 7.40681 14.3641 7.43698C14.6109 7.46716 14.8535 7.5017 15.1004 7.5405C15.3472 7.5793 15.5898 7.62671 15.8323 7.67844L16.56 7.85953C17.0428 7.9963 17.5136 8.1722 17.9676 8.3855C18.4305 8.59777 18.8596 8.87665 19.241 9.21323C19.4339 9.38958 19.6054 9.58787 19.752 9.80392C19.9008 10.0268 20.0065 10.2754 20.0639 10.5368C20.1202 10.8026 20.1202 11.0772 20.0639 11.343C20.0045 11.6052 19.899 11.8548 19.752 12.0802C19.6097 12.2996 19.4409 12.5008 19.2496 12.6795C19.1566 12.77 19.0583 12.855 18.9551 12.9339C18.8555 13.0158 18.7515 13.0891 18.6476 13.1624C18.4357 13.304 18.2159 13.4336 17.9893 13.5504C17.7597 13.6668 17.5301 13.7703 17.2963 13.8651C16.8281 14.0525 16.3477 14.2081 15.8583 14.3308C15.6158 14.3911 15.3732 14.4471 15.1264 14.4989L14.3857 14.6282C14.1388 14.667 13.892 14.7015 13.6451 14.7274C13.3982 14.7532 13.147 14.7791 12.8958 14.8007C12.402 14.8395 11.8996 14.8567 11.4015 14.8654H10.6566C10.4097 14.8654 10.1585 14.8654 9.91162 14.8654C9.41353 14.8654 8.91545 14.8093 8.42169 14.7705C7.43419 14.6799 6.44668 14.5506 5.47217 14.3782C6.45967 14.4687 7.44719 14.542 8.4347 14.5765C9.4222 14.611 10.4097 14.6196 11.3929 14.5765C12.3768 14.5359 13.3574 14.4365 14.3294 14.279C14.8102 14.1971 15.2909 14.0979 15.763 13.9729C16.234 13.8596 16.697 13.7156 17.149 13.5418C17.3742 13.4512 17.5821 13.3521 17.8117 13.24C18.0253 13.1318 18.2321 13.0109 18.431 12.8778C18.5307 12.8131 18.6259 12.7442 18.7212 12.6709C18.8165 12.5976 18.9031 12.5243 18.9898 12.4424C19.1545 12.2848 19.2999 12.1082 19.4229 11.9164C19.5497 11.7286 19.6421 11.5199 19.6957 11.2999C19.7434 11.0826 19.7434 10.8576 19.6957 10.6403C19.652 10.4168 19.5668 10.2033 19.4445 10.0109C19.3222 9.81468 19.1768 9.63376 19.0114 9.47195C18.8373 9.31332 18.6504 9.16913 18.4527 9.04082C18.253 8.90512 18.0462 8.77992 17.8333 8.66574C17.3983 8.44166 16.9465 8.25137 16.482 8.09662C16.014 7.94082 15.5384 7.80848 15.057 7.70002C14.5979 7.53188 14.1129 7.44564 13.6234 7.36804Z" fill="white"/>
<path d="M1.28394 11.8517C1.7169 11.8517 2.06788 11.5023 2.06788 11.0714C2.06788 10.6404 1.7169 10.291 1.28394 10.291C0.850982 10.291 0.5 10.6404 0.5 11.0714C0.5 11.5023 0.850982 11.8517 1.28394 11.8517Z" fill="white"/>
<path d="M14.3597 18.8187C14.7927 18.8187 15.1437 18.4694 15.1437 18.0384C15.1437 17.6074 14.7927 17.2581 14.3597 17.2581C13.9268 17.2581 13.5758 17.6074 13.5758 18.0384C13.5758 18.4694 13.9268 18.8187 14.3597 18.8187Z" fill="white"/>
<path d="M13.9742 4.42335C14.4072 4.42335 14.7582 4.07398 14.7582 3.64301C14.7582 3.21204 14.4072 2.86267 13.9742 2.86267C13.5413 2.86267 13.1903 3.21204 13.1903 3.64301C13.1903 4.07398 13.5413 4.42335 13.9742 4.42335Z" fill="white"/>
</g>
<defs>
<clipPath id="clip0_224_704">
<rect width="104" height="20" fill="white" transform="translate(0.5)"/>
</clipPath>
</defs>
</svg>
