<svg width="77" height="21" viewBox="0 0 77 21" fill="none" xmlns="http://www.w3.org/2000/svg">
<g clip-path="url(#clip0_541_349)">
<path fill-rule="evenodd" clip-rule="evenodd" d="M12.9958 11.1974C12.9958 14.9564 10.0844 17.9981 6.49461 17.9981C2.90479 17.9981 0 14.9564 0 11.1974C0 7.43838 4.60419 3.2676 6.48144 0.0266113C8.37186 3.27424 12.9958 7.60441 12.9958 11.204" fill="white"/>
<path d="M15.0179 16.3245H17.6461V16.6167H16.5V19.9639H16.1641V16.6167H15.0179V16.3245Z" fill="white"/>
<path d="M19.1215 20.037C18.9569 20.037 18.7988 20.0038 18.6539 19.944C18.509 19.8843 18.3838 19.7979 18.2718 19.685C18.1599 19.5721 18.0742 19.426 18.0149 19.2533C17.9491 19.0807 17.9227 18.8814 17.9227 18.649C17.9227 18.4564 17.9491 18.2771 17.9952 18.111C18.0479 17.945 18.1203 17.7989 18.2191 17.6727C18.3179 17.5465 18.4431 17.4469 18.5946 17.3738C18.7461 17.3008 18.9239 17.2676 19.1215 17.2676C19.3191 17.2676 19.5036 17.3008 19.6551 17.3738C19.8066 17.4469 19.9317 17.5465 20.0305 17.6661C20.1293 17.7922 20.2018 17.9317 20.2545 18.1044C20.3072 18.2771 20.3269 18.4564 20.3269 18.6423C20.3269 18.8482 20.3006 19.0408 20.2413 19.2069C20.182 19.3729 20.103 19.519 19.9976 19.6452C19.8922 19.7647 19.767 19.8577 19.6155 19.9241C19.464 19.9905 19.2994 20.0237 19.1215 20.0237M20.0042 18.6423C20.0042 18.4896 19.9844 18.3435 19.9515 18.204C19.9185 18.0712 19.8658 17.9516 19.7934 17.852C19.7209 17.7524 19.6353 17.6727 19.5233 17.6196C19.4114 17.5598 19.2796 17.5332 19.1149 17.5332C18.9503 17.5332 18.8251 17.5664 18.7131 17.6262C18.6012 17.686 18.509 17.7723 18.4431 17.8719C18.3706 17.9782 18.3179 18.0911 18.285 18.2239C18.2521 18.3568 18.2323 18.4962 18.2323 18.6357C18.2323 18.7951 18.2521 18.9478 18.2916 19.0807C18.3311 19.2201 18.3838 19.333 18.4629 19.4327C18.5353 19.5323 18.6275 19.6053 18.7395 19.6585C18.8515 19.7116 18.9766 19.7382 19.1215 19.7382C19.2796 19.7382 19.4114 19.705 19.5233 19.6452C19.6353 19.5854 19.7275 19.4991 19.8 19.3928C19.8724 19.2866 19.9251 19.1737 19.9581 19.0408C19.991 18.908 20.0108 18.7752 20.0108 18.6291" fill="white"/>
<path d="M22.8826 16.3245H23.1856V19.9639H22.8826V19.5057H22.8695C22.8234 19.592 22.7707 19.6717 22.6982 19.7381C22.6323 19.8045 22.5533 19.8577 22.4743 19.9042C22.3952 19.9506 22.3096 19.9839 22.224 20.0038C22.1383 20.0303 22.0527 20.037 21.9671 20.037C21.7563 20.037 21.5784 20.0038 21.4335 19.9307C21.2886 19.8577 21.1635 19.7647 21.0713 19.6385C20.979 19.5123 20.9066 19.3729 20.8605 19.2002C20.8144 19.0341 20.7946 18.8548 20.7946 18.6622C20.7946 18.4829 20.821 18.3036 20.8671 18.1376C20.9132 17.9715 20.9856 17.8188 21.0779 17.6926C21.1767 17.5664 21.2952 17.4668 21.4401 17.3871C21.585 17.314 21.7563 17.2742 21.9539 17.2742C22.1383 17.2742 22.3162 17.314 22.4808 17.4004C22.6521 17.4801 22.7838 17.6062 22.8826 17.7656V16.3245ZM22.8826 18.6489C22.8826 18.5028 22.8629 18.3567 22.8234 18.2239C22.7838 18.0911 22.7246 17.9715 22.6521 17.8785C22.5796 17.7789 22.4874 17.6992 22.3755 17.6395C22.2701 17.5797 22.1449 17.5531 22.0066 17.5531C21.8485 17.5531 21.7168 17.5863 21.5982 17.6461C21.4862 17.7059 21.394 17.7922 21.315 17.8985C21.2425 18.0047 21.1898 18.1309 21.1569 18.277C21.124 18.4231 21.1108 18.5759 21.1174 18.7419C21.1174 18.908 21.1371 19.0541 21.1832 19.1802C21.2293 19.3064 21.2886 19.4127 21.3743 19.499C21.4533 19.5854 21.5455 19.6518 21.6575 19.6983C21.7629 19.7448 21.8814 19.7647 22.0066 19.7647C22.1449 19.7647 22.2701 19.7381 22.382 19.6784C22.494 19.6186 22.5862 19.5455 22.6587 19.4459C22.7311 19.3463 22.7904 19.2267 22.8299 19.0939C22.8695 18.9544 22.8892 18.8083 22.8892 18.6489" fill="white"/>
<path d="M24.9772 20.037C24.8126 20.037 24.6545 20.0038 24.5096 19.944C24.3647 19.8843 24.2395 19.7979 24.1275 19.685C24.0156 19.5721 23.9299 19.426 23.8707 19.2533C23.8048 19.0807 23.7784 18.8814 23.7784 18.649C23.7784 18.4564 23.8048 18.2771 23.8509 18.111C23.9036 17.945 23.976 17.7989 24.0749 17.6727C24.1737 17.5465 24.2988 17.4469 24.4503 17.3738C24.6018 17.3008 24.7731 17.2676 24.9772 17.2676C25.1814 17.2676 25.3593 17.3008 25.5108 17.3738C25.6623 17.4469 25.7874 17.5465 25.8862 17.6661C25.985 17.7922 26.0575 17.9317 26.1102 18.1044C26.1563 18.2704 26.1826 18.4564 26.1826 18.6423C26.1826 18.8482 26.1563 19.0408 26.097 19.2069C26.0377 19.3729 25.9587 19.519 25.8533 19.6452C25.7479 19.7647 25.6228 19.8577 25.4713 19.9241C25.3198 19.9905 25.1551 20.0237 24.9772 20.0237M25.8599 18.6423C25.8599 18.4896 25.8401 18.3435 25.8072 18.204C25.7743 18.0712 25.7216 17.9516 25.6491 17.852C25.5766 17.7524 25.491 17.6727 25.379 17.6196C25.2671 17.5598 25.1353 17.5332 24.9707 17.5332C24.806 17.5332 24.6808 17.5664 24.5689 17.6262C24.4569 17.686 24.3647 17.7723 24.2922 17.8719C24.2198 17.9782 24.1671 18.0911 24.1341 18.2239C24.1012 18.3568 24.0814 18.4962 24.0814 18.6357C24.0814 18.7951 24.1012 18.9478 24.1407 19.0807C24.1802 19.2201 24.2329 19.333 24.312 19.4327C24.3844 19.5323 24.4766 19.6053 24.5886 19.6585C24.7006 19.7116 24.8257 19.7382 24.9707 19.7382C25.1287 19.7382 25.2605 19.705 25.3725 19.6452C25.4844 19.5854 25.5766 19.4991 25.6425 19.3928C25.715 19.2866 25.7677 19.1737 25.8006 19.0408C25.8335 18.908 25.8533 18.7752 25.8533 18.6291" fill="white"/>
<path d="M28.4749 16.3245H28.1719V19.9639H28.4749V16.3245Z" fill="white"/>
<path d="M30.2731 20.037C30.1084 20.037 29.9503 20.0038 29.8054 19.944C29.6605 19.8843 29.5354 19.7979 29.4234 19.685C29.3114 19.5721 29.2258 19.426 29.1665 19.2533C29.1006 19.0807 29.0743 18.8814 29.0743 18.649C29.0743 18.4564 29.1006 18.2771 29.1467 18.111C29.1994 17.945 29.2719 17.7989 29.3707 17.6727C29.4695 17.5465 29.5946 17.4469 29.7461 17.3738C29.8976 17.3008 30.0689 17.2676 30.2731 17.2676C30.4773 17.2676 30.6551 17.3008 30.8066 17.3738C30.9581 17.4469 31.0833 17.5465 31.1821 17.6661C31.2809 17.7922 31.3599 17.9317 31.406 18.1044C31.4521 18.2704 31.4785 18.4564 31.4785 18.6423C31.4785 18.8482 31.4521 19.0408 31.3928 19.2069C31.3336 19.3729 31.2545 19.519 31.1491 19.6452C31.0437 19.7647 30.9186 19.8577 30.7671 19.9241C30.6156 19.9905 30.4509 20.0237 30.2731 20.0237M31.1557 18.6423C31.1557 18.4896 31.136 18.3435 31.103 18.204C31.0701 18.0712 31.0174 17.9516 30.9449 17.852C30.8725 17.7524 30.7869 17.6727 30.6749 17.6196C30.5629 17.5598 30.4312 17.5332 30.2665 17.5332C30.1018 17.5332 29.9767 17.5664 29.8647 17.6262C29.7527 17.686 29.6605 17.7723 29.5946 17.8719C29.5222 17.9782 29.4695 18.0911 29.4366 18.2239C29.4036 18.3568 29.3839 18.4962 29.3839 18.6357C29.3839 18.7951 29.4036 18.9478 29.4431 19.0807C29.4827 19.2201 29.5354 19.333 29.6144 19.4327C29.6869 19.5323 29.7791 19.6053 29.891 19.6585C30.003 19.7116 30.1282 19.7382 30.2731 19.7382C30.4312 19.7382 30.5629 19.705 30.6749 19.6452C30.7869 19.5854 30.8791 19.4991 30.9515 19.3928C31.024 19.2866 31.0701 19.1737 31.1096 19.0408C31.1425 18.908 31.1623 18.7752 31.1623 18.6291" fill="white"/>
<path d="M35.424 17.3472H35.727V21H35.424V19.5455C35.3252 19.7049 35.1934 19.8311 35.0288 19.9108C34.8575 19.9905 34.6862 20.037 34.5018 20.037C34.3042 20.037 34.1329 19.9971 33.988 19.9241C33.8431 19.851 33.7246 19.7448 33.6258 19.6186C33.5335 19.4924 33.4611 19.3463 33.415 19.1736C33.3689 19.0076 33.3425 18.8282 33.3425 18.6489C33.3425 18.4563 33.3623 18.277 33.4084 18.111C33.4545 17.9449 33.5204 17.7988 33.6192 17.6727C33.7114 17.5465 33.8365 17.4535 33.9815 17.3804C34.1264 17.3074 34.3108 17.2742 34.515 17.2742C34.6006 17.2742 34.6862 17.2875 34.7719 17.3074C34.8575 17.3339 34.9431 17.3671 35.0222 17.407C35.1012 17.4535 35.1803 17.5066 35.2461 17.573C35.312 17.6394 35.3713 17.7191 35.4108 17.7988H35.424V17.3406V17.3472ZM35.424 18.6489C35.424 18.5028 35.4042 18.3567 35.3647 18.2239C35.3252 18.0911 35.2659 17.9715 35.1934 17.8785C35.121 17.7789 35.0288 17.6992 34.9168 17.6394C34.8048 17.5797 34.6862 17.5531 34.5479 17.5531C34.3898 17.5531 34.2581 17.5863 34.1395 17.6461C34.0276 17.7059 33.9288 17.7922 33.8563 17.8985C33.7838 18.0047 33.7312 18.1309 33.6982 18.277C33.6653 18.4231 33.6521 18.5759 33.6587 18.7419C33.6587 18.9079 33.685 19.0541 33.7246 19.1802C33.7707 19.3064 33.83 19.4127 33.9156 19.499C33.9946 19.5854 34.0868 19.6518 34.1988 19.6983C34.3042 19.7448 34.4228 19.7647 34.5479 19.7647C34.6862 19.7647 34.8114 19.7381 34.9234 19.6783C35.0353 19.6186 35.1276 19.5455 35.2 19.4459C35.2725 19.3463 35.3318 19.2267 35.3713 19.0939C35.4108 18.9544 35.4306 18.8083 35.4306 18.6489" fill="white"/>
<path d="M38.2431 17.3472H38.5461V19.9639H38.2431V19.5986C38.2036 19.6451 38.1575 19.6916 38.1048 19.7448C38.0521 19.7979 37.9994 19.8444 37.9335 19.8842C37.8677 19.9241 37.7952 19.9639 37.703 19.9905C37.6174 20.017 37.5186 20.0303 37.4 20.0303C37.2287 20.0303 37.0838 20.0038 36.9653 19.9573C36.8467 19.9108 36.7545 19.8377 36.682 19.7514C36.6096 19.6651 36.5569 19.5588 36.524 19.4459C36.491 19.333 36.4778 19.2002 36.4778 19.0673V17.3406H36.7808V19.0607C36.7808 19.2865 36.8335 19.4592 36.9389 19.5787C37.0443 19.6983 37.2156 19.758 37.4527 19.758C37.5778 19.758 37.6898 19.7315 37.7886 19.685C37.8874 19.6385 37.9731 19.5654 38.0389 19.4791C38.1048 19.3928 38.1575 19.2865 38.197 19.167C38.2365 19.0474 38.2497 18.9146 38.2497 18.7685V17.3406L38.2431 17.3472Z" fill="white"/>
<path d="M39.4617 18.7287C39.4617 18.8681 39.4814 19.0076 39.5144 19.1338C39.5539 19.26 39.6066 19.3729 39.679 19.4592C39.7515 19.5522 39.8437 19.6252 39.9557 19.685C40.0677 19.7381 40.1928 19.7713 40.3377 19.7713C40.5353 19.7713 40.7066 19.7182 40.8449 19.612C40.9832 19.5057 41.082 19.3596 41.1281 19.167H41.4641C41.4246 19.2932 41.3784 19.4061 41.3192 19.5123C41.2599 19.6186 41.1808 19.7116 41.0952 19.7913C41.003 19.871 40.8976 19.9307 40.7725 19.9772C40.6473 20.0237 40.5024 20.0436 40.3377 20.0436C40.1335 20.0436 39.9491 20.0104 39.8042 19.9374C39.6527 19.8643 39.5275 19.7713 39.4353 19.6452C39.3365 19.519 39.2641 19.3795 39.218 19.2135C39.1719 19.0474 39.1455 18.8681 39.1455 18.6755C39.1455 18.4829 39.1719 18.3036 39.2311 18.1376C39.2838 17.9715 39.3629 17.8188 39.4683 17.6926C39.5737 17.5664 39.6922 17.4668 39.8437 17.3937C39.9886 17.3207 40.1599 17.2875 40.3443 17.2875C40.7 17.2875 40.9832 17.4137 41.1874 17.6594C41.3916 17.9051 41.4904 18.2704 41.4904 18.7419H39.4748L39.4617 18.7287ZM41.1545 18.4763C41.1545 18.3501 41.1347 18.2305 41.1018 18.1176C41.0689 18.0047 41.0162 17.9051 40.9437 17.8254C40.8778 17.7457 40.7856 17.6793 40.6868 17.6262C40.5814 17.5797 40.4629 17.5531 40.3311 17.5531C40.1994 17.5531 40.0808 17.5797 39.9754 17.6262C39.8701 17.6793 39.7844 17.7457 39.712 17.8254C39.6395 17.9118 39.5802 18.0047 39.5407 18.1176C39.4946 18.2305 39.4683 18.3501 39.4551 18.4696H41.1479L41.1545 18.4763Z" fill="white"/>
<path d="M44.3689 19.9772C44.3293 19.9839 44.2832 19.9972 44.224 20.0104C44.1647 20.0304 44.0988 20.037 44.0263 20.037C43.8749 20.037 43.7629 19.9972 43.6838 19.9241C43.6048 19.851 43.5653 19.7116 43.5653 19.519V17.5996H43.1964V17.3472H43.5653V16.6167H43.8683V17.3472H44.3557V17.5996H43.8683V19.3928C43.8683 19.4592 43.8683 19.5123 43.8683 19.5588C43.8683 19.6053 43.8814 19.6452 43.9012 19.6717C43.921 19.7049 43.9407 19.7249 43.9802 19.7381C44.0132 19.7514 44.0659 19.7581 44.1252 19.7581C44.1647 19.7581 44.2042 19.7581 44.2503 19.7448C44.2898 19.7448 44.3359 19.7315 44.3755 19.7182V19.9639L44.3689 19.9772Z" fill="white"/>
<path d="M46.6149 17.3472H46.9179V19.9639H46.6149V19.5986C46.5754 19.6451 46.5293 19.6916 46.4766 19.7448C46.4239 19.7979 46.3712 19.8444 46.3054 19.8842C46.2395 19.9241 46.167 19.9639 46.0748 19.9905C45.9892 20.017 45.8904 20.0303 45.7718 20.0303C45.6006 20.0303 45.4557 20.0038 45.3371 19.9573C45.2185 19.9108 45.1263 19.8377 45.0539 19.7514C44.9814 19.6651 44.9287 19.5588 44.8958 19.4459C44.8628 19.333 44.8497 19.2002 44.8497 19.0673V17.3406H45.1527V19.0607C45.1527 19.2865 45.2054 19.4592 45.3108 19.5787C45.4161 19.6983 45.5874 19.758 45.8245 19.758C45.9497 19.758 46.0617 19.7315 46.1605 19.685C46.2593 19.6385 46.3449 19.5654 46.4108 19.4791C46.4766 19.3928 46.5293 19.2865 46.5688 19.167C46.6084 19.0474 46.6215 18.9146 46.6215 18.7685V17.3406L46.6149 17.3472Z" fill="white"/>
<path d="M49.3682 21H49.0652V17.3473H49.3682V17.8056H49.3814C49.4275 17.7192 49.4802 17.6462 49.5527 17.5797C49.6185 17.5133 49.6976 17.4536 49.7766 17.4137C49.8557 17.3672 49.9413 17.334 50.0269 17.3141C50.1126 17.2875 50.1982 17.2809 50.2838 17.2809C50.4946 17.2809 50.6724 17.3141 50.8173 17.3871C50.9623 17.4602 51.0874 17.5532 51.1796 17.6794C51.2718 17.8056 51.3443 17.9517 51.3904 18.1177C51.4365 18.2837 51.4563 18.4697 51.4563 18.6556C51.4563 18.835 51.4299 19.0143 51.3838 19.1803C51.3377 19.3463 51.2652 19.4991 51.173 19.6253C51.0742 19.7515 50.9557 19.8511 50.8108 19.9308C50.6658 20.0038 50.4946 20.0437 50.297 20.0437C50.1126 20.0437 49.9347 20.0038 49.77 19.9175C49.5988 19.8378 49.467 19.7116 49.3682 19.5522V21.0067V21ZM49.3682 18.6689C49.3682 18.815 49.388 18.9545 49.4275 19.094C49.467 19.2268 49.5263 19.3463 49.5988 19.4393C49.6712 19.5389 49.7635 19.6186 49.8754 19.6784C49.9808 19.7382 50.106 19.7648 50.2443 19.7648C50.3958 19.7648 50.5341 19.7315 50.6461 19.6718C50.7581 19.612 50.8569 19.5257 50.9293 19.4194C51.0018 19.3131 51.0545 19.187 51.0874 19.0408C51.1203 18.8947 51.1335 18.742 51.1269 18.5759C51.1269 18.4099 51.1072 18.2638 51.0611 18.1376C51.0149 18.0114 50.9557 17.9052 50.87 17.8188C50.791 17.7325 50.6988 17.6661 50.5868 17.6196C50.4814 17.5731 50.3629 17.5532 50.2377 17.5532C50.0994 17.5532 49.9742 17.5797 49.8623 17.6395C49.7503 17.6993 49.6581 17.7723 49.5856 17.872C49.5132 17.9716 49.4539 18.0911 49.4209 18.224C49.3814 18.3634 49.3617 18.5095 49.3617 18.6689" fill="white"/>
<path d="M52.1282 16.3245H52.4575V16.7761H52.1282V16.3245ZM52.1414 17.3472H52.4443V19.9639H52.1414V17.3472Z" fill="white"/>
<path d="M53.3994 18.7287C53.3994 18.8681 53.4192 19.0076 53.4521 19.1338C53.4916 19.26 53.5443 19.3729 53.6168 19.4592C53.6892 19.5522 53.7815 19.6252 53.8934 19.685C54.0054 19.7381 54.1306 19.7713 54.2755 19.7713C54.4731 19.7713 54.6443 19.7182 54.7827 19.612C54.921 19.5057 55.0198 19.3596 55.0659 19.167H55.4018C55.3623 19.2932 55.3162 19.4061 55.2569 19.5123C55.1976 19.6186 55.1186 19.7116 55.033 19.7913C54.9407 19.871 54.8354 19.9307 54.7102 19.9772C54.5851 20.0237 54.4401 20.0436 54.2821 20.0436C54.0779 20.0436 53.8934 20.0104 53.7485 19.9374C53.597 19.8643 53.4719 19.7713 53.3797 19.6452C53.2809 19.519 53.2084 19.3795 53.1623 19.2135C53.1162 19.0474 53.0898 18.8681 53.0898 18.6755C53.0898 18.4829 53.1162 18.3036 53.1755 18.1376C53.2282 17.9715 53.3072 17.8188 53.4126 17.6926C53.518 17.5664 53.6366 17.4668 53.7881 17.3937C53.933 17.3207 54.1042 17.2875 54.2886 17.2875C54.6443 17.2875 54.9276 17.4137 55.1318 17.6594C55.336 17.9051 55.4348 18.2704 55.4348 18.7419H53.4192L53.3994 18.7287ZM55.0922 18.4763C55.0922 18.3501 55.0725 18.2305 55.0395 18.1176C55.0066 18.0047 54.9539 17.9051 54.8815 17.8254C54.8156 17.7457 54.73 17.6793 54.6246 17.6262C54.5192 17.5797 54.4006 17.5531 54.2689 17.5531C54.1371 17.5531 54.0186 17.5797 53.9132 17.6262C53.8144 17.6793 53.7222 17.7457 53.6497 17.8254C53.5773 17.9118 53.518 18.0047 53.4785 18.1176C53.4324 18.2305 53.406 18.3501 53.3928 18.4696H55.0857L55.0922 18.4763Z" fill="white"/>
<path d="M56.3503 16.3245H56.0473V19.9639H56.3503V16.3245Z" fill="white"/>
<path d="M58.8138 19.964H58.5108V17.3473H58.8138V17.7126C58.9324 17.5864 59.0575 17.4801 59.1892 17.4004C59.321 17.3207 59.4725 17.2809 59.6503 17.2809C59.8084 17.2809 59.9599 17.3074 60.0982 17.3672C60.2365 17.4204 60.3485 17.52 60.4473 17.6594C60.5132 17.7524 60.5461 17.852 60.5593 17.9517C60.5725 18.0513 60.5791 18.1575 60.5791 18.2638V19.9773H60.2761V18.2704C60.2761 18.0314 60.2234 17.8587 60.118 17.7391C60.0126 17.6196 59.8413 17.5598 59.6042 17.5598C59.512 17.5598 59.4264 17.5731 59.3473 17.5997C59.2683 17.6262 59.2024 17.6661 59.1365 17.7126C59.0773 17.7591 59.0246 17.8122 58.9785 17.872C58.9324 17.9317 58.8994 17.9982 58.8797 18.0646C58.8467 18.1509 58.8336 18.2306 58.827 18.3103C58.827 18.39 58.8138 18.4697 58.8138 18.5627V19.9706V19.964Z" fill="white"/>
<path d="M61.4814 18.7287C61.4814 18.8681 61.5012 19.0076 61.5341 19.1338C61.5737 19.26 61.6264 19.3729 61.6988 19.4592C61.7713 19.5522 61.8635 19.6252 61.9689 19.685C62.0809 19.7381 62.206 19.7713 62.3509 19.7713C62.5485 19.7713 62.7198 19.7182 62.8581 19.612C62.9964 19.5057 63.0952 19.3596 63.1413 19.167H63.4773C63.4377 19.2932 63.3916 19.4061 63.3323 19.5123C63.2731 19.6186 63.194 19.7116 63.1084 19.7913C63.0162 19.871 62.9108 19.9307 62.7856 19.9772C62.6605 20.0237 62.5156 20.0436 62.3575 20.0436C62.1533 20.0436 61.9689 20.0104 61.824 19.9374C61.6725 19.8643 61.5473 19.7713 61.4551 19.6452C61.3563 19.519 61.2838 19.3795 61.2377 19.2135C61.1916 19.0474 61.1653 18.8681 61.1653 18.6755C61.1653 18.4829 61.1916 18.3036 61.2509 18.1376C61.3036 17.9715 61.3826 17.8188 61.488 17.6926C61.5868 17.5664 61.712 17.4668 61.8635 17.3937C62.0084 17.3207 62.1797 17.2875 62.3641 17.2875C62.7198 17.2875 63.003 17.4137 63.2072 17.6594C63.4114 17.9051 63.5102 18.2704 63.5102 18.7419H61.4946L61.4814 18.7287ZM63.1743 18.4763C63.1743 18.3501 63.1545 18.2305 63.1216 18.1176C63.0886 18.0047 63.0359 17.9051 62.9635 17.8254C62.8976 17.7457 62.812 17.6793 62.7066 17.6262C62.6012 17.5797 62.4827 17.5531 62.3509 17.5531C62.2192 17.5531 62.1006 17.5797 61.9952 17.6262C61.8898 17.6793 61.8042 17.7457 61.7318 17.8254C61.6593 17.9118 61.6 18.0047 61.5605 18.1176C61.5144 18.2305 61.488 18.3501 61.4749 18.4696H63.1677L63.1743 18.4763Z" fill="white"/>
<path d="M65.9275 18.1708C65.8748 17.9782 65.7826 17.8255 65.6509 17.7125C65.5191 17.6063 65.3545 17.5465 65.1569 17.5465C65.0054 17.5465 64.8736 17.5797 64.7617 17.6395C64.6497 17.7059 64.5641 17.7856 64.4916 17.8919C64.4192 17.9981 64.3665 18.1177 64.3335 18.2505C64.3006 18.3833 64.2808 18.5162 64.2808 18.6556C64.2808 18.7951 64.294 18.9279 64.3269 19.0607C64.3599 19.1936 64.4126 19.3131 64.4784 19.4127C64.5509 19.519 64.6365 19.5987 64.7485 19.6651C64.8605 19.7249 64.9922 19.7581 65.1503 19.7581C65.3742 19.7581 65.5521 19.6983 65.6904 19.5721C65.8287 19.4459 65.9144 19.2733 65.9473 19.0541H66.27C66.2437 19.2002 66.1976 19.333 66.1449 19.4526C66.0856 19.5721 66.0132 19.6784 65.9209 19.7581C65.8287 19.8444 65.7168 19.9108 65.5916 19.9573C65.4665 20.0038 65.3215 20.0304 65.1569 20.0304C64.9461 20.0304 64.7682 19.9972 64.6168 19.9241C64.4653 19.8511 64.3401 19.7581 64.2479 19.6319C64.1491 19.5124 64.0766 19.3662 64.0305 19.1936C63.9844 19.0275 63.9581 18.8416 63.9581 18.6556C63.9581 18.4697 63.9844 18.297 64.0371 18.131C64.0898 17.9649 64.1623 17.8188 64.2677 17.686C64.3665 17.5598 64.4916 17.4535 64.6431 17.3805C64.7946 17.3074 64.9659 17.2676 65.1569 17.2676C65.4599 17.2676 65.7036 17.3406 65.888 17.4867C66.0724 17.6329 66.191 17.8587 66.2371 18.1642H65.9341L65.9275 18.1708Z" fill="white"/>
<path d="M67.0605 18.7287C67.0605 18.8681 67.0803 19.0076 67.1132 19.1338C67.1527 19.26 67.2054 19.3729 67.2779 19.4592C67.3503 19.5522 67.4425 19.6252 67.5545 19.685C67.6665 19.7381 67.7916 19.7713 67.9365 19.7713C68.1342 19.7713 68.3054 19.7182 68.4437 19.612C68.5821 19.5057 68.6809 19.3596 68.727 19.167H69.0629C69.0234 19.2932 68.9773 19.4061 68.918 19.5123C68.8587 19.6186 68.7797 19.7116 68.694 19.7913C68.6018 19.871 68.4964 19.9307 68.3713 19.9772C68.2461 20.0237 68.1012 20.0436 67.9431 20.0436C67.7389 20.0436 67.5545 20.0104 67.4096 19.9374C67.2581 19.8643 67.133 19.7713 67.0407 19.6452C66.9419 19.519 66.8695 19.3795 66.8234 19.2135C66.7773 19.0474 66.7509 18.8681 66.7509 18.6755C66.7509 18.4829 66.7773 18.3036 66.8365 18.1376C66.8892 17.9715 66.9683 17.8188 67.0737 17.6926C67.1725 17.5664 67.2976 17.4668 67.4491 17.3937C67.594 17.3207 67.7653 17.2875 67.9497 17.2875C68.3054 17.2875 68.5886 17.4137 68.7928 17.6594C68.997 17.9051 69.0958 18.2704 69.0958 18.7419H67.0803L67.0605 18.7287ZM68.7533 18.4763C68.7533 18.3501 68.7336 18.2305 68.7006 18.1176C68.6677 18.0047 68.615 17.9051 68.5425 17.8254C68.4767 17.7457 68.391 17.6793 68.2856 17.6262C68.1803 17.5797 68.0617 17.5531 67.93 17.5531C67.7982 17.5531 67.6797 17.5797 67.5743 17.6262C67.4689 17.6793 67.3833 17.7457 67.3108 17.8254C67.2383 17.9118 67.1791 18.0047 67.1395 18.1176C67.0934 18.2305 67.0671 18.3501 67.0539 18.4696H68.7467L68.7533 18.4763Z" fill="white"/>
<path d="M69.8401 19.1471C69.8862 19.3729 69.9718 19.5323 70.0904 19.6253C70.2155 19.7183 70.3868 19.7648 70.6173 19.7648C70.7293 19.7648 70.8215 19.7515 70.9006 19.7249C70.9796 19.6983 71.0455 19.6585 71.0982 19.6186C71.1509 19.5722 71.1904 19.519 71.2167 19.4659C71.2431 19.4061 71.2563 19.3463 71.2563 19.2866C71.2563 19.1604 71.2167 19.0608 71.1311 19.001C71.0521 18.9412 70.9467 18.8881 70.8215 18.8549C70.6964 18.8217 70.5646 18.7885 70.4197 18.7619C70.2748 18.7353 70.1431 18.6955 70.0179 18.649C69.8928 18.5959 69.794 18.5228 69.7084 18.4298C69.6293 18.3369 69.5832 18.204 69.5832 18.0314C69.5832 17.8122 69.6622 17.6329 69.8203 17.4934C69.9784 17.3539 70.2024 17.2809 70.4922 17.2809C70.782 17.2809 70.9994 17.3407 71.1772 17.4735C71.3551 17.5997 71.4605 17.8122 71.4934 18.1111H71.1904C71.164 17.9118 71.085 17.7657 70.9599 17.686C70.8347 17.6063 70.6766 17.5598 70.4856 17.5598C70.2946 17.5598 70.1497 17.5997 70.0509 17.686C69.9521 17.7657 69.8994 17.8786 69.8994 18.0114C69.8994 18.131 69.9389 18.2173 70.0245 18.2837C70.1036 18.3435 70.209 18.3966 70.3341 18.4365C70.4593 18.4763 70.591 18.5095 70.7359 18.5427C70.8808 18.576 71.0125 18.6158 71.1377 18.6689C71.2628 18.7221 71.3616 18.8018 71.4473 18.8947C71.5263 18.9877 71.5724 19.1205 71.5724 19.2866C71.5724 19.4128 71.5461 19.519 71.4934 19.6186C71.4407 19.7116 71.3682 19.798 71.2694 19.8577C71.1772 19.9241 71.0652 19.9706 70.9335 20.0038C70.8084 20.0371 70.6634 20.0503 70.5119 20.0503C70.3605 20.0503 70.2221 20.0304 70.1036 19.9839C69.985 19.9374 69.8862 19.8777 69.8006 19.7913C69.7149 19.7116 69.6491 19.6186 69.603 19.5057C69.5569 19.3995 69.5305 19.2799 69.5239 19.1537H69.8269L69.8401 19.1471Z" fill="white"/>
<path d="M72.2048 16.3245H72.5341V16.7761H72.2048V16.3245ZM72.2179 17.3472H72.5209V19.9639H72.2179V17.3472Z" fill="white"/>
<path d="M74.2006 19.9772C74.1611 19.9839 74.115 19.9972 74.0557 20.0104C73.9964 20.0304 73.9305 20.037 73.8581 20.037C73.7066 20.037 73.5946 19.9972 73.5156 19.9241C73.4365 19.851 73.397 19.7116 73.397 19.519V17.5996H73.0281V17.3472H73.397V16.6167H73.7V17.3472H74.1874V17.5996H73.7V19.3928C73.7 19.4592 73.7 19.5123 73.7 19.5588C73.7 19.6053 73.7132 19.6452 73.7329 19.6717C73.7527 19.7049 73.779 19.7249 73.812 19.7381C73.8449 19.7514 73.8976 19.7581 73.9569 19.7581C73.9964 19.7581 74.0359 19.7581 74.082 19.7448C74.1215 19.7448 74.1677 19.7315 74.2072 19.7182V19.9639L74.2006 19.9772Z" fill="white"/>
<path d="M75.8736 18.4365C75.9329 18.4298 75.9988 18.4165 76.0778 18.4033C76.1569 18.39 76.2227 18.37 76.2688 18.3501C76.3215 18.3236 76.3479 18.2837 76.361 18.2306C76.3742 18.1774 76.3808 18.1243 76.3808 18.0778C76.3808 17.9251 76.3347 17.7922 76.2293 17.6926C76.1305 17.593 75.9658 17.5465 75.7287 17.5465C75.6233 17.5465 75.5311 17.5532 75.4455 17.5731C75.3599 17.593 75.2808 17.6262 75.2149 17.6661C75.1491 17.7125 75.0964 17.7723 75.0569 17.8454C75.0173 17.9184 74.9844 18.0181 74.9712 18.131H74.6682C74.6748 17.9782 74.7143 17.8454 74.7736 17.7325C74.8329 17.6262 74.9119 17.5332 75.0042 17.4668C75.103 17.4004 75.2084 17.3473 75.3335 17.3141C75.4587 17.2809 75.5904 17.2676 75.7353 17.2676C75.867 17.2676 75.9856 17.2809 76.1042 17.3074C76.2227 17.334 76.3215 17.3805 76.4072 17.4469C76.4928 17.5067 76.5587 17.593 76.6048 17.6993C76.6509 17.8055 76.6772 17.9317 76.6772 18.0845V19.5124C76.6772 19.6319 76.697 19.705 76.7431 19.7382C76.7826 19.7714 76.8682 19.7647 76.9934 19.7116V19.9507C76.9934 19.9507 76.9341 19.9706 76.888 19.9839C76.8419 19.9972 76.7958 20.0038 76.7563 20.0038C76.7101 20.0038 76.664 20.0038 76.6179 19.9905C76.5652 19.9839 76.5257 19.9706 76.4994 19.944C76.473 19.9175 76.4467 19.8909 76.4269 19.8511C76.4072 19.8179 76.394 19.778 76.3874 19.7382C76.3808 19.6983 76.3742 19.6518 76.3742 19.6053C76.2491 19.7448 76.1042 19.8577 75.9395 19.9308C75.7748 20.0038 75.597 20.0437 75.406 20.0437C75.294 20.0437 75.182 20.0304 75.0766 19.9972C74.9712 19.964 74.879 19.9175 74.8 19.8577C74.7209 19.7913 74.6551 19.7182 74.6089 19.6253C74.5628 19.5323 74.5365 19.4194 74.5365 19.2932C74.5365 18.8482 74.8395 18.5826 75.4455 18.5029L75.8604 18.4497L75.8736 18.4365ZM76.3808 18.5892C76.2557 18.6423 76.1239 18.6755 75.9922 18.6955C75.8605 18.7154 75.7287 18.7287 75.6036 18.7353C75.373 18.7552 75.1952 18.8017 75.0634 18.8947C74.9317 18.9811 74.8724 19.1139 74.8724 19.2932C74.8724 19.3729 74.8856 19.4459 74.9185 19.5057C74.9515 19.5655 74.991 19.612 75.0437 19.6518C75.0964 19.6917 75.1557 19.7182 75.2215 19.7382C75.2874 19.7581 75.3598 19.7647 75.4323 19.7647C75.5509 19.7647 75.6694 19.7514 75.7814 19.7182C75.8934 19.685 75.9988 19.6385 76.0844 19.5788C76.17 19.519 76.2425 19.4393 76.2952 19.3397C76.3479 19.2467 76.3742 19.1272 76.3742 19.001V18.5892H76.3808Z" fill="white"/>
<path d="M75.9725 0H75.3928V13.3226H76.9934V2.74953V2.55028V0H75.9725Z" fill="white"/>
<path d="M70.1431 4.05791C67.3701 4.05791 65.9671 5.60535 65.9473 8.68694C65.9934 11.7752 67.3569 13.316 70.0443 13.316C72.2707 13.316 73.6276 12.3463 74.1084 10.4071H72.3958C72.3958 10.4071 72.2377 10.8587 72.0072 11.1509C71.6383 11.5892 71.0324 11.8349 70.1827 11.8947C68.5689 11.8947 67.6928 11.0114 67.5545 9.24482H74.2467C74.4312 5.78467 73.0611 4.05127 70.1497 4.05127M67.5545 7.95639C67.7587 6.28277 68.615 5.43931 70.13 5.43931C71.6449 5.43931 72.488 6.27613 72.6725 7.95639H67.5545Z" fill="white"/>
<path d="M36.267 4.05791C33.494 4.05791 32.091 5.60535 32.0712 8.68694C32.1173 11.7752 33.4808 13.316 36.1682 13.316C38.4012 13.316 39.7515 12.3463 40.2323 10.4071H38.5197C38.5197 10.4071 38.3682 10.852 38.1377 11.1442C37.7688 11.5892 37.1563 11.8349 36.3066 11.8947C34.6928 11.8947 33.8167 11.0114 33.6784 9.24482H40.3706C40.5551 5.78467 39.185 4.05127 36.2736 4.05127M33.6784 7.95639C33.8826 6.28277 34.7389 5.43931 36.2539 5.43931C37.7688 5.43931 38.6119 6.27613 38.7964 7.95639H33.6784Z" fill="white"/>
<path d="M26.5186 0.0266113H26.4461C24.8718 0.0266113 23.6994 0.537997 22.9748 1.46115C22.3096 0.50479 21.1371 0.0266113 19.4904 0.0266113C18.0677 0.0266113 16.9677 0.411811 16.2233 1.16893C15.4066 1.9991 15.0048 3.3008 15.018 5.0342V13.3226H16.9677V4.82168C16.9545 3.81883 17.1784 3.06836 17.6395 2.59682C18.0479 2.17841 18.6605 1.95925 19.4575 1.95925C21.1569 1.95925 21.9802 2.85583 21.9802 4.68885V13.316H23.9629V4.65564C23.9497 3.73913 24.1605 3.04843 24.5952 2.60346C25.0036 2.17841 25.6293 1.96589 26.4527 1.96589C28.1521 1.96589 28.9754 2.90232 28.9754 4.82832V13.3293H30.9251V5.0342C30.9186 1.74008 29.4365 0.0266113 26.5186 0.0266113Z" fill="white"/>
<path d="M48.2419 0V2.8093V5.44592C47.6952 4.51613 46.773 4.05788 45.4754 4.05788C42.8143 4.05788 41.4904 5.61195 41.5167 8.72011C41.5167 10.2875 41.8263 11.4431 42.4587 12.1935C43.0844 12.944 44.1712 13.3159 45.7191 13.3159C47.267 13.3159 48.367 12.9307 48.9599 12.1603C49.5527 11.3899 49.8491 10.4203 49.8491 9.25142V0H48.2419ZM45.6862 11.9345C43.9539 11.9345 43.091 10.852 43.091 8.69355C43.091 6.5351 43.9539 5.45256 45.6862 5.45256C47.4185 5.45256 48.2814 6.5351 48.2814 8.69355C48.2814 10.852 47.4185 11.9345 45.6862 11.9345Z" fill="white"/>
<path d="M50.9886 3.51328V3.85863V13.3292H52.5892V3.85863V3.50664V3.5H50.9886V3.51328Z" fill="white"/>
<path d="M51.5683 0H50.9886V1.32163V1.59393H52.5892V1.32163V0.956357V0H51.5683Z" fill="white"/>
<path d="M63.2006 3.51328V3.85863V13.3292H64.8012V3.85863V3.50664V3.5H63.2006V3.51328Z" fill="white"/>
<path d="M63.7803 0H63.2006V1.32163V1.59393H64.8012V1.32163V0.956357V0H63.7803Z" fill="white"/>
<path d="M57.8587 4.05789C55.0856 4.10438 53.709 5.41272 53.7287 7.99622V16.3311H55.3293V11.9345C55.876 12.8643 56.7982 13.3226 58.0958 13.3226C60.7371 13.3425 62.0545 11.7884 62.0545 8.66035C62.1203 5.55219 60.7239 4.01804 57.8587 4.05789ZM57.8916 11.9345C56.1593 11.9345 55.2964 10.852 55.2964 8.69356C55.2964 6.53512 56.1593 5.45257 57.8916 5.45257C59.6239 5.45257 60.4868 6.53512 60.4868 8.69356C60.4868 10.852 59.6239 11.9345 57.8916 11.9345Z" fill="white"/>
</g>
<defs>
<clipPath id="clip0_541_349">
<rect width="77" height="21" fill="white"/>
</clipPath>
</defs>
</svg>
