<svg width="56" height="19" viewBox="0 0 56 19" fill="none" xmlns="http://www.w3.org/2000/svg">
<g clip-path="url(#clip0_613_255)">
<path d="M4.50237 1.93636C4.88816 0.980143 5.30688 0.655029 6.27604 0.655029C7.24521 0.655029 7.66393 0.980143 8.04971 1.93636L12.124 12.1535H9.97864L8.86833 9.28009H3.66494L2.56874 12.1535H0.423401L4.50237 1.93636ZM4.19186 7.75015H8.34611L6.58655 3.12207C6.52539 2.95951 6.41718 2.65352 6.27604 2.65352C6.1349 2.65352 6.02669 2.96429 5.96553 3.12207L4.19186 7.75015Z" fill="white"/>
<path d="M16.8193 12.1535C15.7842 12.1535 14.3775 12.0052 13.3754 10.8195C12.3545 9.61949 12.2792 7.87918 12.2792 6.63131C12.2792 5.00575 12.4157 3.33237 13.3284 2.2136C14.4058 0.879679 16.09 0.784058 16.8616 0.784058H21.1993V2.4909H17.8214C16.617 2.4909 15.596 2.57218 14.9797 3.54752C14.6551 4.04953 14.3775 4.91013 14.3775 6.60263C14.3775 8.29513 14.6692 9.00751 14.8856 9.36609C15.4408 10.2602 16.4288 10.4562 17.7132 10.4562H21.3734V12.163H16.8193V12.1535Z" fill="white"/>
<path d="M24.3986 12.1535C23.9375 12.1535 23.5188 12.1535 23.166 11.7949C22.7943 11.422 22.7661 10.9008 22.7661 10.461V2.40962C22.7661 1.95542 22.9072 1.50122 23.1377 1.22392C23.4906 0.817525 24.0175 0.784058 24.4362 0.784058H31.3662V2.4909H25.5324C25.3489 2.4909 25.1325 2.50525 24.9773 2.65346C24.8079 2.81602 24.8079 3.04073 24.8079 3.20328V5.49342H31.2157V7.20026H24.8079V9.86332C24.8079 10.0402 24.8691 10.2219 24.9631 10.3032C25.0855 10.4323 25.3348 10.4514 25.6594 10.4514H31.4321V12.1582H24.408L24.3986 12.1535Z" fill="white"/>
<path d="M32.8105 12.1535V2.28053C32.8105 1.92195 32.8858 1.51556 33.2104 1.19045C33.5821 0.817525 33.9961 0.784058 34.3678 0.784058H41.406V2.4909H35.3558C35.2146 2.4909 35.0923 2.47656 34.97 2.61999C34.8477 2.74908 34.8477 2.93076 34.8477 3.07419V5.54123H39.6324V7.24807H34.8477V12.1535H32.8105Z" fill="white"/>
<path d="M46.6141 0H49.898C50.2367 0 50.5143 0.282083 50.5143 0.626321V3.75793C50.5143 4.10216 50.2367 4.38425 49.898 4.38425H46.6141C46.2754 4.38425 45.9978 4.10216 45.9978 3.75793V0.626321C45.9978 0.282083 46.2754 0 46.6141 0Z" fill="white"/>
<path d="M52.909 2.84473H55.3837C55.7224 2.84473 56 3.12681 56 3.47105V5.98589C56 6.33013 55.7224 6.61222 55.3837 6.61222H52.909C52.5703 6.61222 52.2927 6.33013 52.2927 5.98589V3.47105C52.2927 3.12681 52.5703 2.84473 52.909 2.84473Z" fill="white"/>
<path d="M47.9832 5.1062H50.5943C50.933 5.1062 51.2106 5.38828 51.2106 5.73252V8.38602C51.2106 8.73026 50.933 9.01234 50.5943 9.01234H47.9832C47.6398 9.01234 47.3669 8.73026 47.3669 8.38602V5.73252C47.3669 5.38828 47.6445 5.1062 47.9832 5.1062Z" fill="white"/>
<g opacity="0.26">
<path d="M46.3272 6.61707H42.0082V11.0013H46.3272V6.61707Z" fill="white"/>
</g>
<path d="M42.6246 6.61707H45.7061C46.0449 6.61707 46.3224 6.89915 46.3224 7.24339V10.375C46.3224 10.7192 46.0449 11.0013 45.7061 11.0013H42.6246C42.2858 11.0013 42.0082 10.7192 42.0082 10.375V7.24339C42.0082 6.89915 42.2858 6.61707 42.6246 6.61707Z" fill="white"/>
<path d="M52.2362 9.92554H55.3884C55.7271 9.92554 56.0047 10.2076 56.0047 10.5519V13.7552C56.0047 14.0994 55.7271 14.3815 55.3884 14.3815H52.2409C51.9022 14.3815 51.6246 14.0994 51.6246 13.7552V10.5519C51.6246 10.2076 51.9022 9.92554 52.2409 9.92554H52.2362Z" fill="white"/>
<path d="M17.0498 13.3297V13.2962L17.238 12.9376H17.5626L17.3086 13.3297H17.0498Z" fill="white"/>
<path d="M0.842141 13.1719C0.92212 12.9759 1.0068 12.9089 1.20911 12.9089C1.41141 12.9089 1.49609 12.9759 1.57607 13.1719L2.41821 15.2803H1.97597L1.74544 14.6875H0.668067L0.442241 15.2803H0L0.842141 13.1719ZM0.776275 14.3719H1.63253L1.27027 13.4157C1.25615 13.3823 1.23734 13.3201 1.20911 13.3201C1.18088 13.3201 1.15736 13.3823 1.14324 13.4157L0.776275 14.3719Z" fill="white"/>
<path d="M2.9028 14.9791H3.85314C3.89078 14.9791 3.94253 14.9695 3.97547 14.9265C4.0084 14.8882 4.0084 14.8452 4.0084 14.8165C4.0084 14.7687 4.0037 14.7209 3.96135 14.6826C3.93783 14.6587 3.89078 14.6348 3.65555 14.5679L3.33092 14.4723C3.15214 14.4245 3.02982 14.3575 2.95925 14.2571C2.89339 14.1615 2.87927 14.042 2.87927 13.9559C2.87927 13.8699 2.89339 13.7503 2.95925 13.6547C3.05805 13.5113 3.22272 13.5017 3.36386 13.5017H4.31891V13.8029H3.42502C3.38268 13.8029 3.33563 13.8029 3.29329 13.8364C3.25094 13.8746 3.24624 13.9177 3.24624 13.9655C3.24624 14.0181 3.24624 14.0611 3.29799 14.1041C3.34504 14.1424 3.46265 14.1806 3.5097 14.195L3.87196 14.3001C4.07427 14.3623 4.2107 14.4053 4.29068 14.501C4.37537 14.5966 4.39418 14.7304 4.39418 14.8261C4.39418 15.0412 4.31891 15.1512 4.25304 15.2038C4.16836 15.2707 4.06015 15.2755 3.98017 15.2755H2.89809V14.9743L2.9028 14.9791Z" fill="white"/>
<path d="M6.61954 13.6691C6.81243 13.8604 6.83595 14.1951 6.83595 14.3815C6.83595 14.7592 6.74186 14.9839 6.61954 15.1035C6.43605 15.2804 6.13025 15.2947 5.93735 15.2947C5.74446 15.2947 5.43866 15.2804 5.25517 15.1035C5.05287 14.9074 5.03876 14.5728 5.03876 14.3911C5.03876 14.1903 5.06228 13.8556 5.25517 13.6644C5.43866 13.4827 5.73505 13.4779 5.93735 13.4779C6.13966 13.4779 6.43605 13.4827 6.61954 13.6644M5.53275 14.8453C5.64096 14.9744 5.80562 14.9935 5.93735 14.9935C6.06909 14.9935 6.22905 14.9744 6.33725 14.8453C6.45017 14.7162 6.45017 14.5441 6.45017 14.3911C6.45017 14.262 6.45958 14.0612 6.34196 13.9225C6.23375 13.7935 6.07379 13.7839 5.93735 13.7839C5.81503 13.7839 5.63625 13.7982 5.52805 13.9225C5.42454 14.0516 5.42454 14.2763 5.42454 14.3911C5.42454 14.5393 5.42454 14.721 5.53275 14.8453Z" fill="white"/>
<path d="M8.13913 15.2803C8.0121 15.2803 7.78627 15.2516 7.63572 15.0603C7.49458 14.8882 7.48047 14.6635 7.48047 14.4149C7.48047 14.2045 7.48047 13.8985 7.67336 13.693C7.74393 13.6212 7.88978 13.5017 8.19088 13.5017H8.9154V13.8029H8.3132C8.05915 13.8029 7.94153 13.932 7.89919 14.085C7.87566 14.1806 7.87096 14.3671 7.87096 14.4197C7.87096 14.5249 7.88037 14.697 7.92742 14.7878C8.0121 14.9599 8.19558 14.9743 8.35084 14.9743H8.95774V15.2755H8.14383L8.13913 15.2803Z" fill="white"/>
<path d="M9.63989 12.9329H10.0116V13.2436H9.63989V12.9329ZM9.63989 13.5018H10.0116V15.2804H9.63989V13.5018Z" fill="white"/>
<path d="M11.7806 13.5017C11.9264 13.5017 12.0534 13.5543 12.1334 13.6404C12.204 13.7169 12.2557 13.8603 12.2557 14.0611V14.9838C12.2557 15.046 12.251 15.1464 12.1899 15.2133C12.1287 15.2755 12.0346 15.2851 11.9546 15.2851H11.1501C11.056 15.2851 10.9384 15.2851 10.8443 15.199C10.7079 15.0747 10.6985 14.8452 10.6985 14.7161C10.6985 14.5583 10.7126 14.4006 10.8396 14.2858C10.9431 14.1902 11.0607 14.1806 11.1501 14.1806H11.8841V14.0563C11.8841 14.0037 11.8794 13.9416 11.837 13.889C11.7853 13.822 11.71 13.8125 11.6535 13.8125H10.8208V13.5113H11.7806V13.5017ZM11.2631 14.4723C11.2395 14.4723 11.169 14.4723 11.1266 14.5344C11.1172 14.5488 11.0843 14.5966 11.0843 14.7257C11.0843 14.7783 11.089 14.8739 11.136 14.9265C11.1595 14.9552 11.2113 14.9791 11.2583 14.9791H11.7806C11.7806 14.9791 11.837 14.9791 11.8605 14.9599C11.8841 14.936 11.8841 14.9121 11.8841 14.8882V14.477H11.2631V14.4723Z" fill="white"/>
<path d="M13.6013 15.2803C13.4743 15.2803 13.2484 15.2516 13.0979 15.0603C12.9567 14.8882 12.9426 14.6635 12.9426 14.4149C12.9426 14.2045 12.9426 13.8985 13.1355 13.693C13.2061 13.6212 13.3472 13.5017 13.653 13.5017H14.3776V13.8029H13.7754C13.526 13.8029 13.4037 13.932 13.3613 14.085C13.3378 14.1806 13.3331 14.3671 13.3331 14.4197C13.3331 14.5249 13.3425 14.697 13.3849 14.7878C13.4696 14.9599 13.653 14.9743 13.8083 14.9743H14.4152V15.2755H13.6013V15.2803Z" fill="white"/>
<path d="M15.1021 12.9329H15.4737V13.2436H15.1021V12.9329ZM15.1021 13.5018H15.4737V15.2804H15.1021V13.5018Z" fill="white"/>
<path d="M17.7461 13.6691C17.939 13.8604 17.9625 14.1951 17.9625 14.3815C17.9625 14.7592 17.8684 14.9839 17.7461 15.1035C17.5626 15.2804 17.2568 15.2947 17.0639 15.2947C16.871 15.2947 16.5699 15.2804 16.3818 15.1035C16.1795 14.9074 16.1653 14.5728 16.1653 14.3911C16.1653 14.1903 16.1889 13.8556 16.3818 13.6644C16.5652 13.4827 16.8616 13.4779 17.0639 13.4779C17.2662 13.4779 17.5626 13.4827 17.7461 13.6644M16.6593 14.8453C16.7675 14.9744 16.9322 14.9935 17.0639 14.9935C17.2051 14.9935 17.3556 14.9744 17.4685 14.8453C17.5815 14.7162 17.5815 14.5441 17.5815 14.3911C17.5815 14.262 17.5909 14.0612 17.4732 13.9225C17.365 13.7935 17.2051 13.7839 17.0686 13.7839C16.9463 13.7839 16.7675 13.7982 16.664 13.9225C16.5605 14.0516 16.5605 14.2763 16.5605 14.3911C16.5605 14.5393 16.5605 14.721 16.6687 14.8453" fill="white"/>
<path d="M18.6494 13.7743C18.6494 13.7217 18.6494 13.6404 18.7059 13.583C18.7764 13.497 18.8894 13.5018 18.9646 13.5018H19.5621C19.7362 13.5018 19.9009 13.5209 20.0326 13.6452C20.122 13.7312 20.1973 13.8651 20.1973 14.109V15.2803H19.8256V14.2285C19.8256 14.109 19.8162 13.999 19.755 13.9129C19.7033 13.8412 19.6233 13.8077 19.4868 13.8077H19.1058C19.1058 13.8077 19.0634 13.8077 19.0399 13.8269C19.0211 13.8508 19.0211 13.8747 19.0211 13.8986V15.2803H18.6494V13.7743Z" fill="white"/>
<path d="M23.086 15.2804C22.8742 15.2804 22.5826 15.2517 22.3755 15.0078C22.1638 14.7592 22.1497 14.4007 22.1497 14.1425C22.1497 13.8078 22.1779 13.4636 22.3661 13.2293C22.5873 12.952 22.9354 12.9329 23.0954 12.9329H23.9893V13.2867H23.293C23.0436 13.2867 22.8319 13.301 22.7049 13.5018C22.639 13.607 22.5778 13.7839 22.5778 14.1329C22.5778 14.4819 22.639 14.6301 22.6813 14.7019C22.7943 14.8883 23.0013 14.9266 23.2647 14.9266H24.0222V15.2804H23.0812H23.086Z" fill="white"/>
<path d="M26.2663 13.6691C26.4592 13.8604 26.4827 14.1951 26.4827 14.3815C26.4827 14.7592 26.3886 14.9839 26.2663 15.1035C26.0828 15.2804 25.777 15.2947 25.5841 15.2947C25.3913 15.2947 25.0854 15.2804 24.902 15.1035C24.6997 14.9074 24.6855 14.5728 24.6855 14.3911C24.6855 14.1903 24.7091 13.8556 24.902 13.6644C25.0854 13.4827 25.3818 13.4779 25.5841 13.4779C25.7864 13.4779 26.0828 13.4827 26.2663 13.6644M25.1795 14.8453C25.2877 14.9744 25.4524 14.9935 25.5841 14.9935C25.7253 14.9935 25.8758 14.9744 25.984 14.8453C26.097 14.7162 26.097 14.5441 26.097 14.3911C26.097 14.262 26.1064 14.0612 25.9887 13.9225C25.8805 13.7935 25.7159 13.7839 25.5841 13.7839C25.4618 13.7839 25.283 13.7982 25.1748 13.9225C25.0713 14.0516 25.0713 14.2763 25.0713 14.3911C25.0713 14.5393 25.0713 14.721 25.1795 14.8453Z" fill="white"/>
<path d="M27.5413 12.9329H27.1696V15.2804H27.5413V12.9329Z" fill="white"/>
<path d="M29.8137 13.6691C30.0066 13.8604 30.0301 14.1951 30.0301 14.3815C30.0301 14.7592 29.936 14.9839 29.8137 15.1035C29.6349 15.2804 29.3244 15.2947 29.1315 15.2947C28.9386 15.2947 28.6328 15.2804 28.4493 15.1035C28.247 14.9074 28.2329 14.5728 28.2329 14.3911C28.2329 14.1903 28.2564 13.8556 28.4493 13.6644C28.6328 13.4827 28.9292 13.4779 29.1315 13.4779C29.3338 13.4779 29.6302 13.4827 29.8137 13.6644M28.7269 14.8453C28.8351 14.9744 28.9998 14.9935 29.1315 14.9935C29.2726 14.9935 29.4232 14.9744 29.5314 14.8453C29.6443 14.7162 29.6443 14.5441 29.6443 14.3911C29.6443 14.262 29.6537 14.0612 29.5361 13.9225C29.4279 13.7935 29.2632 13.7839 29.1315 13.7839C29.0092 13.7839 28.8304 13.7982 28.7222 13.9225C28.6187 14.0516 28.6187 14.2763 28.6187 14.3911C28.6187 14.5393 28.6187 14.721 28.7269 14.8453Z" fill="white"/>
<path d="M30.717 13.8077C30.717 13.7551 30.7264 13.669 30.764 13.6069C30.8299 13.5113 30.9428 13.5017 31.0181 13.5017H32.5377C32.66 13.5017 32.8482 13.5256 32.9658 13.6404C33.0599 13.736 33.1211 13.8985 33.1211 14.0754V15.2755H32.7494V14.1376C32.7494 14.0611 32.74 13.9559 32.6788 13.8842C32.6177 13.8077 32.5189 13.7981 32.453 13.7981H32.1049V15.2707H31.7332V13.7981H31.1874C31.131 13.7981 31.1122 13.8125 31.1028 13.8268C31.0981 13.8364 31.0887 13.8555 31.0887 13.9224V15.2755H30.717V13.8077Z" fill="white"/>
<path d="M34.2314 12.9329V13.5018H34.7253C34.9276 13.5018 35.1723 13.5353 35.3134 13.7935C35.4075 13.956 35.4263 14.1759 35.4263 14.4007C35.4263 14.6875 35.384 14.8644 35.3181 14.9839C35.1817 15.2326 34.9324 15.2756 34.7348 15.2756H34.2031C34.109 15.2756 34.0102 15.2756 33.935 15.1991C33.8691 15.1322 33.8597 15.0509 33.8597 14.9792V12.9329H34.2314ZM34.2314 14.8309C34.2314 14.8692 34.2313 14.9122 34.2549 14.9457C34.2784 14.9744 34.3207 14.9744 34.3537 14.9744H34.6265C34.7253 14.9744 34.8947 14.9648 34.9794 14.7927C35.0029 14.7449 35.0359 14.6493 35.0359 14.415C35.0359 14.1329 34.9935 14.0229 34.9794 13.9943C34.9041 13.8317 34.7536 13.7982 34.6407 13.7982H34.2314V14.8262V14.8309Z" fill="white"/>
<path d="M36.1133 12.9329H36.485V13.2436H36.1133V12.9329ZM36.1133 13.5018H36.485V15.2804H36.1133V13.5018Z" fill="white"/>
<path d="M38.2586 13.5017C38.4044 13.5017 38.5315 13.5543 38.6067 13.6404C38.6773 13.7169 38.7338 13.8603 38.7338 14.0611V14.9838C38.7338 15.046 38.7244 15.1464 38.6679 15.2133C38.6067 15.2755 38.5174 15.2851 38.4327 15.2851H37.6282C37.5341 15.2851 37.4165 15.2851 37.3224 15.199C37.1859 15.0747 37.1765 14.8452 37.1765 14.7161C37.1765 14.5583 37.1906 14.4006 37.3224 14.2858C37.4259 14.1902 37.5435 14.1806 37.6329 14.1806H38.3668V14.0563C38.3668 14.0037 38.3574 13.9416 38.3198 13.889C38.268 13.822 38.1974 13.8125 38.1363 13.8125H37.3035V13.5113H38.2633L38.2586 13.5017ZM37.7364 14.4723C37.7129 14.4723 37.6423 14.4723 37.5999 14.5344C37.5858 14.5488 37.5576 14.5966 37.5576 14.7257C37.5576 14.7783 37.5623 14.8739 37.6093 14.9265C37.6329 14.9552 37.6846 14.9791 37.7317 14.9791H38.2492C38.2492 14.9791 38.3056 14.9791 38.3339 14.9599C38.3621 14.936 38.3621 14.9121 38.3621 14.8882V14.477H37.7411L37.7364 14.4723Z" fill="white"/>
<path d="M39.463 13.7743C39.463 13.7217 39.463 13.6404 39.5148 13.583C39.5853 13.497 39.6983 13.5018 39.7735 13.5018H40.371C40.5451 13.5018 40.7098 13.5209 40.8415 13.6452C40.9309 13.7312 41.0062 13.8651 41.0062 14.109V15.2803H40.6345V14.2285C40.6345 14.109 40.6251 13.999 40.5639 13.9129C40.5075 13.8412 40.4322 13.8077 40.2957 13.8077H39.9147C39.9147 13.8077 39.8723 13.8077 39.8488 13.8269C39.83 13.8508 39.83 13.8747 39.83 13.8986V15.2803H39.4583V13.7743H39.463Z" fill="white"/>
<path d="M42.7845 13.5017C42.9304 13.5017 43.0574 13.5543 43.1374 13.6404C43.208 13.7169 43.2597 13.8603 43.2597 14.0611V14.9838C43.2597 15.046 43.2503 15.1464 43.1938 15.2133C43.1327 15.2755 43.0433 15.2851 42.9633 15.2851H42.1541C42.06 15.2851 41.9424 15.2851 41.8483 15.199C41.7119 15.0747 41.7025 14.8452 41.7025 14.7161C41.7025 14.5583 41.7213 14.4006 41.8483 14.2858C41.9518 14.1902 42.0694 14.1806 42.1588 14.1806H42.8927V14.0563C42.8927 14.0037 42.888 13.9416 42.8457 13.889C42.7939 13.822 42.7234 13.8125 42.6622 13.8125H41.8295V13.5113H42.7892L42.7845 13.5017ZM42.267 14.4723C42.2435 14.4723 42.1729 14.4723 42.1306 14.5344C42.1165 14.5488 42.0882 14.5966 42.0882 14.7257C42.0882 14.7783 42.0929 14.8739 42.14 14.9265C42.1635 14.9552 42.2106 14.9791 42.2576 14.9791H42.7798C42.7798 14.9791 42.8363 14.9791 42.8645 14.9599C42.888 14.936 42.888 14.9121 42.888 14.8882V14.477H42.267V14.4723Z" fill="white"/>
<path d="M46.7365 12.9329V14.9696C46.7365 15.0461 46.7224 15.1417 46.6847 15.1895C46.6283 15.2756 46.5295 15.2804 46.4495 15.2804H45.7861C45.6168 15.2804 45.3721 15.2373 45.2451 14.9266C45.2027 14.8214 45.1604 14.654 45.1604 14.3624C45.1604 14.1759 45.1745 13.9417 45.2921 13.7648C45.4568 13.5114 45.7203 13.5018 45.8614 13.5018H46.3601V12.9329H46.7318H46.7365ZM45.9367 13.803C45.8379 13.803 45.7061 13.8221 45.6262 13.9608C45.5885 14.0229 45.5509 14.1329 45.5509 14.3767C45.5509 14.654 45.5838 14.7401 45.5979 14.7736C45.6685 14.9505 45.8285 14.9744 45.9367 14.9744H46.2378C46.2378 14.9744 46.3131 14.9744 46.3366 14.9457C46.3648 14.917 46.3648 14.8501 46.3648 14.8214V13.7982H45.9367V13.803Z" fill="white"/>
<path d="M48.0632 15.2803C47.8938 15.2803 47.6868 15.2612 47.5457 15.0556C47.4327 14.8882 47.4233 14.6444 47.4233 14.4101C47.4233 14.0802 47.4422 13.8316 47.6256 13.6643C47.8138 13.4969 48.0961 13.4969 48.2561 13.4969C48.4537 13.4969 48.656 13.5065 48.8112 13.6117C49.0088 13.7408 49.0512 13.9655 49.0512 14.1902C49.0512 14.281 49.0418 14.3862 48.9712 14.4579C48.9194 14.5105 48.8583 14.5249 48.7877 14.5249H47.8091C47.8091 14.6014 47.8185 14.7161 47.8326 14.7687C47.8797 14.96 48.0349 14.9791 48.1761 14.9791H48.9994V15.2803H48.0632ZM48.5854 14.2189C48.6607 14.2189 48.6701 14.1615 48.6701 14.1137C48.6701 14.0037 48.6136 13.9177 48.5619 13.8747C48.4678 13.7982 48.3502 13.7934 48.242 13.7934C48.1432 13.7934 47.9879 13.7934 47.8891 13.9081C47.8138 13.999 47.8185 14.0946 47.8138 14.2141H48.5901L48.5854 14.2189Z" fill="white"/>
<path d="M0.62572 18.3976C0.526922 18.3976 0.442237 18.3976 0.371667 18.3211C0.296392 18.2446 0.291687 18.1346 0.291687 18.0485V16.3847C0.291687 16.2891 0.319915 16.1983 0.366962 16.1409C0.442237 16.0596 0.550445 16.05 0.63513 16.05H2.06536V16.4038H0.856251C0.818613 16.4038 0.771566 16.4038 0.743338 16.4373C0.710405 16.4708 0.710405 16.5186 0.710405 16.5521V17.0254H2.03242V17.3792H0.7057V17.929C0.7057 17.9673 0.719814 18.0007 0.738633 18.0199C0.762157 18.0438 0.813908 18.0485 0.884479 18.0485H2.07477V18.4023H0.62572V18.3976Z" fill="white"/>
<path d="M2.52173 18.694C2.72403 18.694 2.80871 18.6844 2.8934 18.6175C2.97808 18.5553 3.02513 18.4645 3.02513 18.2732V16.619H3.3968V18.3497C3.3968 18.6605 3.25566 18.7991 3.18039 18.8565C3.04395 18.9617 2.83694 19 2.52173 18.9856V18.6844V18.694ZM3.02513 16.0548H3.3968V16.3656H3.02513V16.0548Z" fill="white"/>
<path d="M4.72352 18.3976C4.54944 18.3976 4.34714 18.3833 4.206 18.1729C4.09309 18.0056 4.08368 17.7617 4.08368 17.5274C4.08368 17.1975 4.1025 16.9489 4.28598 16.7816C4.46946 16.6143 4.75645 16.6143 4.91641 16.6143C5.11401 16.6143 5.31631 16.6238 5.47627 16.729C5.67387 16.8581 5.71621 17.0828 5.71621 17.3027C5.71621 17.3936 5.7068 17.4988 5.63623 17.5705C5.58448 17.6231 5.52332 17.6374 5.45275 17.6374H4.46946C4.46946 17.7139 4.47887 17.8287 4.49299 17.8812C4.54003 18.0725 4.69529 18.0916 4.83643 18.0916H5.65975V18.3928H4.72352V18.3976ZM5.24574 17.3362C5.31631 17.3362 5.33042 17.2788 5.33042 17.231C5.33042 17.1211 5.27397 17.035 5.22222 16.992C5.12812 16.9202 5.0105 16.9107 4.9023 16.9107C4.8035 16.9107 4.65295 16.9107 4.54944 17.0254C4.47417 17.1163 4.47417 17.2119 4.47417 17.3314H5.25044L5.24574 17.3362Z" fill="white"/>
<path d="M7.01468 18.3976C6.88765 18.3976 6.66182 18.3689 6.51127 18.1777C6.37013 18.0055 6.35602 17.7808 6.35602 17.5322C6.35602 17.3218 6.35602 17.0158 6.54891 16.8103C6.61948 16.7338 6.76062 16.619 7.06643 16.619H7.79095V16.9202H7.18875C6.9394 16.9202 6.81708 17.0493 6.77474 17.2023C6.75121 17.2979 6.74651 17.4844 6.74651 17.537C6.74651 17.6422 6.75592 17.8143 6.80296 17.9051C6.88765 18.0772 7.07113 18.0916 7.22639 18.0916H7.83329V18.3928H7.01938L7.01468 18.3976Z" fill="white"/>
<path d="M9.98807 18.3306C9.9128 18.3928 9.814 18.3976 9.72461 18.3976H9.12711C8.93422 18.3976 8.80249 18.3689 8.68487 18.2637C8.54373 18.1346 8.5155 17.9577 8.5155 17.7426V16.6238H8.88717V17.6756C8.88717 17.8334 8.90129 17.9195 8.95304 17.9864C9.01891 18.082 9.12241 18.1011 9.25414 18.1011H9.56465C9.6164 18.1011 9.64933 18.0868 9.67286 18.0629C9.70579 18.0294 9.70579 17.9912 9.70579 17.9577V16.6286H10.0775V18.0868C10.0775 18.1489 10.0775 18.2637 9.98807 18.3402" fill="white"/>
<path d="M11.5359 18.3975C11.3101 18.3975 11.1878 18.3593 11.0843 18.2684C10.9761 18.1728 10.9149 18.0437 10.9149 17.819V16.925H10.6844V16.6238H10.9149V16.0548H11.2866V16.6238H11.7571V16.925H11.2866V17.6373C11.2866 17.7569 11.2772 17.9242 11.3854 18.0198C11.4701 18.0915 11.6065 18.0963 11.6771 18.0963H11.7712V18.3975H11.5406H11.5359Z" fill="white"/>
<path d="M12.4392 16.0548H12.8109V16.3656H12.4392V16.0548ZM12.4392 16.6238H12.8109V18.4023H12.4392V16.6238Z" fill="white"/>
<path d="M14.1988 17.9386C14.2082 17.9673 14.227 18.0103 14.2458 18.0103C14.2647 18.0103 14.2788 17.9673 14.2882 17.9386L14.7587 16.619H15.1444L14.4999 18.2589C14.4434 18.4119 14.3352 18.4167 14.2411 18.4167C14.1753 18.4167 14.0435 18.4167 13.9777 18.2589L13.3331 16.619H13.7189L14.1941 17.9386H14.1988Z" fill="white"/>
<path d="M17.2145 16.7911C17.4074 16.9823 17.4309 17.317 17.4309 17.5035C17.4309 17.8764 17.3368 18.1059 17.2145 18.2254C17.031 18.4023 16.7252 18.4167 16.5323 18.4167C16.3394 18.4167 16.0336 18.4023 15.8501 18.2254C15.6478 18.0294 15.6337 17.6947 15.6337 17.513C15.6337 17.3122 15.6573 16.9776 15.8501 16.7863C16.0336 16.6046 16.33 16.5999 16.5323 16.5999C16.7346 16.5999 17.031 16.6046 17.2145 16.7863M16.1277 17.9672C16.2359 18.0963 16.3959 18.1155 16.5323 18.1155C16.6735 18.1155 16.824 18.1011 16.9322 17.9672C17.0451 17.8382 17.0451 17.666 17.0451 17.513C17.0451 17.384 17.0545 17.1831 16.9369 17.0445C16.8287 16.9154 16.6641 16.9058 16.5323 16.9058C16.41 16.9058 16.2312 16.9202 16.123 17.0445C16.0195 17.1736 16.0195 17.3983 16.0195 17.513C16.0195 17.6613 16.0195 17.8429 16.1277 17.9672Z" fill="white"/>
<path d="M18.0943 18.0964H19.0446C19.0822 18.0964 19.134 18.0868 19.1716 18.0438C19.2046 18.0055 19.2046 17.9625 19.2046 17.9338C19.2046 17.886 19.1999 17.8382 19.1575 17.7999C19.134 17.776 19.0869 17.7521 18.8517 17.6852L18.5271 17.5896C18.3483 17.5418 18.226 17.4748 18.1554 17.3744C18.0896 17.2788 18.0754 17.1593 18.0754 17.0732C18.0754 16.9872 18.0896 16.8676 18.1554 16.772C18.2542 16.6286 18.4189 16.619 18.56 16.619H19.5104V16.9202H18.6165C18.5741 16.9202 18.5271 16.9202 18.4847 16.9537C18.4424 16.9919 18.4377 17.035 18.4377 17.0828C18.4377 17.1306 18.4377 17.1784 18.4942 17.2214C18.5412 17.2645 18.6588 17.2979 18.7059 17.3123L19.0681 17.4175C19.2704 17.4796 19.4069 17.5226 19.4868 17.6183C19.5715 17.7139 19.5904 17.8478 19.5904 17.9434C19.5904 18.1585 19.5151 18.2685 19.4492 18.3211C19.3645 18.388 19.2563 18.3976 19.1763 18.3976H18.0943V18.0964Z" fill="white"/>
<path d="M27.3343 18.3976V16.3608C27.3343 16.2891 27.3484 16.203 27.419 16.1361C27.4942 16.0596 27.5836 16.05 27.6589 16.05H29.1127V16.4038H27.8659C27.8377 16.4038 27.8142 16.4038 27.7859 16.4325C27.7624 16.4612 27.7624 16.4947 27.7624 16.5282V17.0397H28.7504V17.3935H27.7624V18.4071H27.3437L27.3343 18.3976Z" fill="white"/>
<path d="M29.7242 16.0548H30.0959V16.3656H29.7242V16.0548ZM29.7242 16.6238H30.0959V18.4023H29.7242V16.6238Z" fill="white"/>
<path d="M30.8299 16.8963C30.8299 16.8438 30.8299 16.7625 30.8817 16.7051C30.9522 16.619 31.0651 16.6238 31.1404 16.6238H31.7379C31.912 16.6238 32.0766 16.643 32.2084 16.7673C32.2978 16.8533 32.373 16.9872 32.373 17.231V18.4024H32.0014V17.3506C32.0014 17.231 31.992 17.1211 31.9308 17.035C31.8743 16.9633 31.7991 16.925 31.6626 16.925H31.2816C31.2816 16.925 31.2392 16.925 31.2157 16.9442C31.1969 16.9681 31.1969 16.992 31.1969 17.0159V18.3976H30.8252V16.8916L30.8299 16.8963Z" fill="white"/>
<path d="M34.1514 16.6238C34.2925 16.6238 34.4242 16.6764 34.4995 16.7624C34.5701 16.8389 34.6218 16.9824 34.6218 17.1832V18.1059C34.6218 18.1681 34.6171 18.2685 34.556 18.3354C34.4948 18.3976 34.4007 18.4071 34.3207 18.4071H33.5162C33.4221 18.4071 33.3045 18.4071 33.2104 18.3211C33.074 18.1968 33.0646 17.9673 33.0646 17.8382C33.0646 17.6804 33.0787 17.5226 33.2057 17.4079C33.3092 17.3075 33.4268 17.3027 33.5162 17.3027H34.2502V17.1784C34.2502 17.1258 34.2455 17.0636 34.2031 17.011C34.1514 16.9441 34.0761 16.9345 34.0196 16.9345H33.1869V16.6333H34.1467L34.1514 16.6238ZM33.6291 17.5943C33.6056 17.5943 33.535 17.5943 33.4927 17.6565C33.4786 17.6708 33.4504 17.7186 33.4504 17.8477C33.4504 17.9003 33.4551 17.9959 33.5021 18.0438C33.5303 18.0724 33.5774 18.0963 33.6244 18.0963H34.1467C34.1467 18.0963 34.2031 18.0964 34.2313 18.0772C34.2549 18.0533 34.2549 18.0294 34.2549 18.0055V17.5943H33.6338H33.6291Z" fill="white"/>
<path d="M35.3558 16.8963C35.3558 16.8438 35.3558 16.7625 35.4075 16.7051C35.4781 16.619 35.591 16.6238 35.6663 16.6238H36.2638C36.4379 16.6238 36.6025 16.643 36.7343 16.7673C36.8236 16.8533 36.8989 16.9872 36.8989 17.231V18.4024H36.5272V17.3506C36.5272 17.231 36.5178 17.1211 36.4567 17.035C36.4002 16.9633 36.3249 16.925 36.1885 16.925H35.8074C35.8074 16.925 35.7651 16.925 35.7463 16.9442C35.7274 16.9681 35.7274 16.992 35.7274 17.0159V18.3976H35.3558V16.8916V16.8963Z" fill="white"/>
<path d="M38.9737 18.3976H37.7552C37.6987 18.3976 37.5153 18.388 37.5153 18.1585C37.5153 18.0246 37.5717 17.9625 37.6329 17.9051L38.4985 16.9871C38.4985 16.9871 38.5221 16.9537 38.5221 16.9489C38.5221 16.9393 38.5174 16.925 38.4891 16.925H37.567V16.6238H38.762C38.8937 16.6238 38.9831 16.7098 38.9831 16.8485C38.9831 16.9871 38.9314 17.0397 38.8843 17.0875L38.0093 18.0342C38.0093 18.0342 37.981 18.0629 37.981 18.0772C37.981 18.0964 37.9951 18.0963 38.0093 18.0963H38.9737V18.3976Z" fill="white"/>
<path d="M40.6344 16.6238C40.7803 16.6238 40.9073 16.6764 40.9873 16.7624C41.0579 16.8389 41.1143 16.9824 41.1143 17.1832V18.1059C41.1143 18.1681 41.1096 18.2685 41.0485 18.3354C40.9873 18.3976 40.8932 18.4071 40.8132 18.4071H40.0087C39.9146 18.4071 39.797 18.4071 39.7029 18.3211C39.5665 18.1968 39.5571 17.9673 39.5571 17.8382C39.5571 17.6804 39.5712 17.5226 39.6982 17.4079C39.8017 17.3075 39.9193 17.3027 40.0087 17.3027H40.7426V17.1784C40.7426 17.1258 40.7379 17.0636 40.6956 17.011C40.6439 16.9441 40.5733 16.9345 40.5121 16.9345H39.6794V16.6333H40.6391L40.6344 16.6238ZM40.1169 17.5943C40.0934 17.5943 40.0228 17.5943 39.9805 17.6565C39.9664 17.6708 39.9381 17.7186 39.9381 17.8477C39.9381 17.9003 39.9429 17.9959 39.9899 18.0438C40.0134 18.0724 40.0652 18.0963 40.1122 18.0963H40.6344C40.6344 18.0963 40.6909 18.0964 40.7191 18.0772C40.7427 18.0533 40.7426 18.0294 40.7426 18.0055V17.5943H40.1216H40.1169Z" fill="white"/>
<path d="M41.82 18.0964H42.7704C42.808 18.0964 42.8598 18.0868 42.8927 18.0438C42.9256 18.0055 42.9256 17.9625 42.9256 17.9338C42.9256 17.886 42.9209 17.8382 42.8786 17.7999C42.8551 17.776 42.808 17.7521 42.5728 17.6852L42.2482 17.5896C42.0694 17.5418 41.9471 17.4748 41.8765 17.3744C41.8059 17.2788 41.7965 17.1593 41.7965 17.0732C41.7965 16.9872 41.8106 16.8676 41.8765 16.772C41.9753 16.6286 42.1352 16.619 42.2811 16.619H43.2361V16.9202H42.3375C42.2952 16.9202 42.2482 16.9202 42.2058 16.9537C42.1635 16.9919 42.1588 17.035 42.1588 17.0828C42.1588 17.1306 42.1588 17.1784 42.2152 17.2214C42.2623 17.2645 42.3799 17.2979 42.4269 17.3123L42.7892 17.4175C42.9915 17.4796 43.1279 17.5226 43.2079 17.6183C43.2926 17.7139 43.3114 17.8478 43.3114 17.9434C43.3114 18.1585 43.2361 18.2685 43.1703 18.3211C43.0856 18.388 42.9774 18.3976 42.8974 18.3976H41.8153V18.0964H41.82Z" fill="white"/>
<path d="M22.9354 15.8588V17.8907C22.9354 17.9672 22.9213 18.0629 22.8836 18.1107C22.8272 18.1967 22.7284 18.2015 22.6484 18.2015H21.9803C21.811 18.2015 21.5663 18.1585 21.444 17.8477C21.4017 17.7425 21.3593 17.5752 21.3593 17.2835C21.3593 17.0971 21.3734 16.8628 21.491 16.6859C21.6557 16.4325 21.9192 16.423 22.0603 16.423H22.559V15.854H22.9307L22.9354 15.8588ZM22.1356 16.7289C22.0368 16.7289 21.9051 16.7481 21.8251 16.8867C21.7874 16.9489 21.7498 17.0588 21.7498 17.3027C21.7498 17.58 21.7827 17.666 21.7969 17.6995C21.8674 17.8764 22.0321 17.9003 22.1403 17.9003H22.4414C22.4414 17.9003 22.5167 17.9003 22.5402 17.8716C22.5684 17.8429 22.5684 17.776 22.5684 17.7473V16.7242H22.1403L22.1356 16.7289Z" fill="white"/>
<path d="M24.2574 18.2063C24.0833 18.2063 23.881 18.192 23.7399 17.9816C23.627 17.8143 23.6176 17.5704 23.6176 17.3362C23.6176 17.0063 23.6317 16.7577 23.8199 16.5903C24.0033 16.423 24.2903 16.423 24.4503 16.423C24.6479 16.423 24.8549 16.4325 25.0101 16.5377C25.2077 16.6668 25.2501 16.8915 25.2501 17.1162C25.2501 17.2071 25.2407 17.3123 25.1701 17.384C25.1184 17.4366 25.0572 17.4509 24.9866 17.4509H24.008C24.008 17.5274 24.0175 17.6421 24.0316 17.6947C24.0786 17.886 24.2339 17.9051 24.3703 17.9051H25.1936V18.2063H24.2574ZM24.7796 17.1497C24.8549 17.1497 24.8643 17.0923 24.8643 17.0445C24.8643 16.9346 24.8078 16.8485 24.7561 16.8055C24.662 16.729 24.5444 16.7242 24.4362 16.7242C24.3374 16.7242 24.1821 16.7242 24.0833 16.8389C24.008 16.9298 24.0127 17.0254 24.008 17.1449H24.7796V17.1497Z" fill="white"/>
</g>
<defs>
<clipPath id="clip0_613_255">
<rect width="56" height="19" fill="white"/>
</clipPath>
</defs>
</svg>
