<svg width="77" height="20" viewBox="0 0 77 20" fill="none" xmlns="http://www.w3.org/2000/svg">
<g clip-path="url(#clip0_614_439)">
<path d="M0.147147 18.0519L2.999 11.3492L0 6.76768L6.16617 5.78644L10.5596 0L11.961 5.85859L18.1411 6.92641L12.3323 11.6522L11.6386 17.987L6.90891 14.9423L0.147147 18.0519ZM6.94394 14.4156L11.2673 17.1934L11.9049 11.3997L17.0621 7.20779L11.5966 6.26263L10.3493 1.03896L6.41842 6.21212L0.777778 7.114L3.51752 11.2987L1.03003 17.1356L6.94394 14.4228V14.4156Z" fill="white"/>
<path fill-rule="evenodd" clip-rule="evenodd" d="M1.61163 7.48912L6.69171 6.72433L10.1672 2.02014L11.1902 6.72433L16.0321 7.4819L11.4285 11.1399L10.959 16.2914L7.08411 13.86L1.94096 16.2914L4.14116 11.1399L1.61163 7.48912Z" fill="white"/>
<path fill-rule="evenodd" clip-rule="evenodd" d="M76.9369 6.24101C76.8108 6.7172 76.5445 7.13568 76.1381 7.46757C75.7317 7.80667 75.2973 7.97983 74.8418 7.97983C74.3864 7.97983 74.036 7.80667 73.8048 7.46757C73.5736 7.12846 73.5105 6.7172 73.6366 6.24101C73.7627 5.76482 74.029 5.35357 74.4354 5.01446C74.8418 4.67536 75.2693 4.5022 75.7107 4.5022C76.1872 4.5022 76.5445 4.67536 76.7758 5.01446C77.007 5.35357 77.063 5.76482 76.9369 6.24101ZM76.6777 6.24101C76.7828 5.83697 76.7337 5.49065 76.5445 5.19484C76.3483 4.89902 76.054 4.75472 75.6616 4.75472C75.2693 4.75472 74.8979 4.91345 74.5475 5.23091C74.2112 5.52673 73.994 5.86583 73.8959 6.24823C73.7908 6.65948 73.8328 7.01302 74.036 7.30162C74.2322 7.59022 74.5335 7.73452 74.9189 7.73452C75.3043 7.73452 75.6616 7.59022 76.005 7.2944C76.3483 6.99859 76.5726 6.65227 76.6777 6.2338M75.9419 7.12846L75.97 7.02745C75.8789 7.02745 75.8228 6.97695 75.7948 6.86872C75.7597 6.61619 75.7107 6.4286 75.6546 6.31316C75.5916 6.26266 75.5355 6.22658 75.4935 6.21215C75.8228 6.14722 76.026 5.97406 76.0961 5.69989C76.1732 5.41129 76.019 5.25977 75.6476 5.25977H74.7718L74.7437 5.36078C74.8348 5.36078 74.8979 5.368 74.9189 5.38243C74.9329 5.38243 74.9399 5.41129 74.9329 5.44015L74.5545 6.89036C74.5405 6.94808 74.5125 6.99137 74.4775 7.0058C74.4564 7.01302 74.4004 7.02023 74.3163 7.02023L74.2883 7.12124H75.024L75.052 7.02023C74.982 7.02023 74.9399 7.02023 74.9189 7.0058C74.8839 6.99137 74.8699 6.94808 74.8839 6.89036L75.045 6.27709H75.1291C75.2552 6.27709 75.3323 6.31316 75.3463 6.38531L75.4654 6.99137C75.4795 7.07074 75.5706 7.11403 75.7317 7.11403H75.9349L75.9419 7.12846ZM75.7597 5.72153C75.8228 5.49065 75.7247 5.37521 75.4725 5.37521C75.4024 5.37521 75.3533 5.37521 75.3393 5.38243C75.2973 5.39686 75.2693 5.43293 75.2552 5.49065L75.0801 6.16886C75.2973 6.16886 75.4514 6.14 75.5495 6.07507C75.6406 6.01735 75.7177 5.89469 75.7597 5.72153Z" fill="white"/>
<path fill-rule="evenodd" clip-rule="evenodd" d="M66.6436 14.7619C66.0691 15.3391 65.4034 15.7648 64.6536 16.0462C63.9039 16.3276 63.042 16.4647 62.0751 16.4647C60.6947 16.4647 59.6997 16.2122 59.0901 15.7071C58.4805 15.2021 58.2913 14.4878 58.5365 13.557C58.8659 12.3016 59.7417 11.3853 61.1642 10.8226C62.5936 10.2598 64.8078 9.97118 67.8208 9.94232C67.8208 9.92068 67.8418 9.8846 67.8628 9.82688C67.8839 9.77638 67.8979 9.73309 67.9049 9.70423C68.038 9.19196 67.989 8.80957 67.7577 8.55704C67.5265 8.30452 67.1061 8.18186 66.5105 8.18186C65.971 8.18186 65.5295 8.27566 65.1932 8.45603C64.8568 8.64362 64.6116 8.91779 64.4574 9.28576H60.3303C60.6386 8.18186 61.3603 7.35935 62.5025 6.81823C63.6446 6.2771 65.2352 6.00293 67.2883 6.00293C69.3413 6.00293 70.6376 6.32039 71.4364 6.9481C72.2352 7.5758 72.4665 8.54261 72.1301 9.82688L70.8058 14.9135C70.7217 15.2309 70.6727 15.4834 70.6446 15.6855C70.6236 15.8803 70.6236 16.0606 70.6516 16.2266H66.5035C66.4825 15.9885 66.4895 15.7432 66.5105 15.5051C66.5385 15.2598 66.5806 15.0145 66.6506 14.7475M67.2953 11.8976C65.8518 11.8976 64.8428 11.9914 64.2612 12.1862C63.6867 12.381 63.3363 12.7201 63.2102 13.2035C63.1261 13.5282 63.1892 13.7879 63.3924 13.9755C63.6026 14.1559 63.9389 14.2497 64.4014 14.2497C65.1581 14.2497 65.7818 14.0693 66.2582 13.7013C66.7347 13.3334 67.064 12.785 67.2602 12.0491L67.3023 11.8904L67.2953 11.8976Z" fill="white"/>
<path fill-rule="evenodd" clip-rule="evenodd" d="M44.9289 16.241L47.0941 7.9293C47.1852 7.59019 47.2483 7.27995 47.2903 6.99856C47.3323 6.71718 47.3604 6.46465 47.3604 6.25542H51.8308C51.8449 6.41415 51.8308 6.61617 51.7888 6.87591C51.7468 7.12843 51.6767 7.46032 51.5716 7.87158C52.2933 7.24387 53.015 6.7749 53.7438 6.47908C54.4725 6.17605 55.2292 6.02454 56.014 6.02454C57.4645 6.02454 58.4735 6.40693 59.02 7.17894C59.5736 7.95094 59.6577 9.07648 59.2723 10.5556L57.7938 16.2482H53.3303L54.7738 10.6999C54.97 9.93507 54.977 9.37951 54.7808 9.02598C54.5846 8.67966 54.1782 8.49928 53.5616 8.49928C52.8399 8.49928 52.2373 8.73016 51.7538 9.19914C51.2773 9.66811 50.9129 10.368 50.6677 11.3059L49.3854 16.241H44.9219H44.9289Z" fill="white"/>
<path fill-rule="evenodd" clip-rule="evenodd" d="M36.8849 16.2987L34.4605 6.23376H39.1552L40.1361 12.2583L44.1582 6.23376H48.2923L40.5986 16.811C40.3954 17.0996 40.1151 17.5397 39.7507 18.1169C39.3934 18.7013 39.015 19.329 38.6226 19.9928H34.1802L36.8849 16.2915V16.2987Z" fill="white"/>
<path fill-rule="evenodd" clip-rule="evenodd" d="M16.5366 16.241L20.2643 1.91919H28.2242C30.985 1.91919 32.9259 2.53968 34.0541 3.78788C35.1822 5.03607 35.4415 6.84704 34.8178 9.22078C34.2222 11.5079 33.0801 13.254 31.3984 14.4517C29.7167 15.6421 27.5656 16.241 24.938 16.241H16.5366ZM26.4655 5.06493H24.1812L22.0861 13.1169H24.3704C25.989 13.1169 27.2363 12.7994 28.1332 12.1717C29.0301 11.544 29.6537 10.5339 30.018 9.14141C30.3754 7.77056 30.2563 6.75324 29.6677 6.07503C29.0791 5.39682 28.014 5.05772 26.4655 5.05772" fill="white"/>
</g>
<defs>
<clipPath id="clip0_614_439">
<rect width="77" height="20" fill="white"/>
</clipPath>
</defs>
</svg>
