<svg width="26" height="27" viewBox="0 0 26 27" fill="none" xmlns="http://www.w3.org/2000/svg">
<path d="M0.228027 26.9871L2.05781 19.8018C0.58305 17.009 0.117431 13.7521 0.746434 10.6283C1.37544 7.5045 3.05685 4.72334 5.48228 2.79491C7.90771 0.866473 10.9145 -0.0799414 13.9513 0.129236C16.988 0.338413 19.8511 1.68916 22.0154 3.93374C24.1796 6.17832 25.5 9.16624 25.7343 12.3495C25.9685 15.5327 25.101 18.6979 23.2909 21.2644C21.4807 23.8309 18.8492 25.6267 15.8791 26.3225C12.9089 27.0182 9.79925 26.5673 7.1204 25.0523L0.228027 26.9871ZM7.46029 22.3588L7.89421 22.6319C10.0551 23.9869 12.6139 24.4652 15.0879 23.9767C17.5619 23.4882 19.7798 22.0666 21.3233 19.9803C22.8668 17.8939 23.6289 15.287 23.466 12.6515C23.3031 10.016 22.2263 7.53422 20.4389 5.67447C18.6515 3.81472 16.277 2.70563 13.7636 2.55648C11.2502 2.40733 8.77174 3.22845 6.79582 4.86488C4.81991 6.50131 3.48325 8.83987 3.03808 11.4393C2.5929 14.0387 3.06999 16.7191 4.37934 18.9748L4.63969 19.43L3.61996 23.4362L7.46029 22.3588Z" fill="white"/>
<path fill-rule="evenodd" clip-rule="evenodd" d="M17.8024 15.2419C17.5503 15.0314 17.2559 14.8838 16.9414 14.8102C16.6269 14.7366 16.3006 14.7389 15.9871 14.817C15.517 15.0143 15.2205 15.7882 14.9168 16.1827C14.8514 16.2762 14.7555 16.341 14.6474 16.3648C14.5392 16.3886 14.4266 16.3697 14.3309 16.3117C12.6119 15.605 11.1699 14.3113 10.2375 12.6394C10.1611 12.5323 10.1254 12.3991 10.1374 12.2659C10.1494 12.1326 10.2083 12.0088 10.3026 11.9186C10.6447 11.5695 10.894 11.1328 11.0258 10.6515C11.0572 10.1226 10.9416 9.59547 10.6931 9.13406C10.5023 8.48231 10.1355 7.90252 9.63721 7.46484C9.38151 7.34051 9.09674 7.29726 8.81793 7.34039C8.53912 7.38353 8.27842 7.51116 8.06782 7.70763C7.7073 8.0345 7.42133 8.44215 7.23106 8.90047C7.04079 9.35878 6.95107 9.85607 6.9685 10.3556C6.9704 10.6391 7.00193 10.9216 7.06252 11.1978C7.22979 11.8548 7.49068 12.4815 7.83638 13.0567C8.08228 13.4968 8.34985 13.9217 8.63191 14.3314C9.57148 15.6874 10.7529 16.8392 12.1106 17.723C12.7941 18.1663 13.5216 18.5302 14.2803 18.808C15.0848 19.2058 15.9775 19.3658 16.8622 19.2708C17.3538 19.1888 17.8192 18.9831 18.2185 18.6713C18.6177 18.3594 18.939 17.9508 19.1549 17.4802C19.2766 17.1948 19.3144 16.8778 19.2634 16.5697C19.097 15.9172 18.3087 15.5454 17.8024 15.2419Z" fill="white"/>
</svg>
