<svg width="15" height="15" viewBox="0 0 15 15" fill="none" xmlns="http://www.w3.org/2000/svg">
<path d="M11.4733 2.84864C11.313 2.84783 11.156 2.89698 11.0223 2.98987C10.8885 3.08275 10.7841 3.21519 10.7222 3.37039C10.6603 3.5256 10.6437 3.69659 10.6745 3.8617C10.7053 4.02681 10.7822 4.17861 10.8953 4.29786C11.0084 4.41712 11.1527 4.49846 11.31 4.53158C11.4672 4.5647 11.6303 4.54811 11.7785 4.48392C11.9267 4.41972 12.0535 4.3108 12.1427 4.17097C12.2318 4.03113 12.2795 3.86668 12.2795 3.69843C12.28 3.58703 12.2595 3.47662 12.2192 3.37354C12.1789 3.27046 12.1196 3.17675 12.0447 3.09778C11.9698 3.01882 11.8808 2.95616 11.7827 2.91341C11.6847 2.87065 11.5795 2.84864 11.4733 2.84864V2.84864Z" fill="white"/>
<path d="M7.87891 3.93946C7.20695 3.93865 6.54986 4.14701 5.99083 4.53816C5.43179 4.92931 4.99592 5.48566 4.73842 6.1368C4.48091 6.78795 4.41335 7.50459 4.54425 8.19605C4.67516 8.8875 4.99866 9.52266 5.47381 10.0211C5.94895 10.5196 6.55439 10.859 7.21348 10.9963C7.87256 11.1337 8.55567 11.0628 9.17634 10.7926C9.797 10.5225 10.3273 10.0652 10.7002 9.47873C11.073 8.89225 11.2716 8.2029 11.2708 7.49794C11.2688 6.55484 10.9107 5.65097 10.2751 4.98409C9.63941 4.31722 8.77787 3.94161 7.87891 3.93946ZM7.87891 9.78174C7.44819 9.78255 7.02691 9.6493 6.66841 9.39884C6.3099 9.14838 6.03029 8.79199 5.86492 8.37475C5.69956 7.95751 5.65589 7.49819 5.73945 7.0549C5.823 6.61162 6.03002 6.2043 6.33431 5.8845C6.6386 5.56469 7.0265 5.34677 7.44888 5.25832C7.87127 5.16987 8.30918 5.21486 8.70719 5.3876C9.10519 5.56033 9.4454 5.85305 9.68478 6.22871C9.92415 6.60436 10.0519 7.04608 10.0519 7.49794C10.0534 7.79854 9.99842 8.0965 9.88995 8.37474C9.78148 8.65297 9.62173 8.906 9.41985 9.11931C9.21796 9.33263 8.97791 9.50204 8.71348 9.61782C8.44905 9.73359 8.16544 9.79347 7.87891 9.794V9.78174Z" fill="white"/>
<path d="M10.5737 14.7294H5.0711C3.97351 14.7283 2.92118 14.2704 2.14507 13.4562C1.36896 12.642 0.932489 11.538 0.931458 10.3865V4.61366C0.932489 3.46218 1.36896 2.35817 2.14507 1.54395C2.92118 0.729736 3.97351 0.271834 5.0711 0.270752H10.5737C11.6707 0.272915 12.722 0.731292 13.4972 1.54539C14.2725 2.35949 14.7085 3.46289 14.7095 4.61366V10.3865C14.7085 11.5373 14.2725 12.6407 13.4972 13.4548C12.722 14.2689 11.6707 14.7272 10.5737 14.7294V14.7294ZM5.0711 1.62306C4.31745 1.62414 3.59497 1.9387 3.06205 2.49778C2.52914 3.05686 2.2293 3.81483 2.22827 4.60549V10.3783C2.2293 11.169 2.52914 11.9269 3.06205 12.486C3.59497 13.0451 4.31745 13.3597 5.0711 13.3607H10.5737C11.3271 13.3586 12.049 13.0437 12.5817 12.4848C13.1144 11.926 13.4145 11.1686 13.4166 10.3783V4.61366C13.4145 3.82333 13.1144 3.06599 12.5817 2.50714C12.049 1.9483 11.3271 1.63339 10.5737 1.63123L5.0711 1.62306Z" fill="white"/>
</svg>
