<svg width="62" height="21" viewBox="0 0 62 21" fill="none" xmlns="http://www.w3.org/2000/svg">
<g clip-path="url(#clip0_613_430)">
<path d="M62 21H55.8447L54.7338 18.9119H46.7341L45.6302 21H39.5587L48.327 4.84888H53.2317L62 21ZM49.1934 14.3224H52.2605L50.7235 11.4635L49.1934 14.3224Z" fill="white"/>
<path d="M34.3467 4.84888L29.0088 14.4134L23.678 4.84888H18.6755V8.66069C18.6755 10.4475 20.1078 12.1782 23.3216 12.1782C20.1078 12.1782 18.6755 13.6357 18.6755 15.5205V21H23.8806V15.3033L26.9058 20.7898H30.9371L33.9554 15.3103V21H39.2513V4.84888H34.3467Z" fill="white"/>
<path d="M12.7368 12.1852C15.8808 12.1852 17.334 10.3564 17.362 8.6677V4.84888H12.059V14.7218C12.059 15.1562 11.9053 15.3524 11.7516 15.4925C11.6049 15.6327 11.3534 15.8218 10.8084 15.8218H6.5675C6.16926 15.8218 5.86184 15.7097 5.60334 15.4715C5.47059 15.3454 5.31688 15.1492 5.31688 14.7218V4.84888H0V15.2893C0 16.7958 0.524003 18.1412 1.56502 19.2833C2.62001 20.4184 3.99639 20.993 5.66622 20.993H11.7027C13.3935 20.993 14.7769 20.4184 15.8109 19.2763C16.8449 18.1412 17.3689 16.7047 17.3689 15.1912V15.2263C17.341 13.6287 15.8878 12.1712 12.7437 12.1712" fill="white"/>
<path d="M13.652 0.434385H11.8494C11.6398 0.434385 11.535 0.539491 11.5281 0.749701V2.27723C11.5281 2.49445 11.6329 2.59955 11.8355 2.59955H12.9533C13.128 2.59955 13.2188 2.50145 13.2188 2.31226V1.60456H11.7516V1.18414H13.645V2.36832C13.645 2.80976 13.4284 3.02698 12.9953 3.02698H11.7516C11.3185 3.02698 11.1019 2.80976 11.1019 2.38233V0.651603C11.1019 0.224175 11.3115 0.00695801 11.7377 0.00695801H13.645V0.434385H13.652Z" fill="white"/>
<path d="M21.1208 1.61862V1.19119H22.2946C22.4902 1.1982 22.588 1.10711 22.588 0.917918V0.714715C22.588 0.532533 22.4972 0.441441 22.3155 0.441441H20.8972V3.03403H20.478V0H22.3784C22.7976 0 23.0072 0.224224 23.0142 0.651652V0.95996C23.0142 1.39439 22.8046 1.61862 22.3784 1.61862H21.7356L23.0631 3.03403H22.4972L21.1208 1.61862Z" fill="white"/>
<path d="M30.2594 2.30531C30.2594 2.5015 30.3502 2.5996 30.5389 2.5996H31.6637C31.8524 2.5996 31.9502 2.50851 31.9502 2.31932V0H32.3904V2.38238C32.3764 2.81682 32.1598 3.03403 31.7336 3.03403H30.462C30.0358 3.03403 29.8262 2.81682 29.8262 2.38238V0H30.2524V2.30531H30.2594Z" fill="white"/>
<path d="M39.6216 3.03403H39.2024V0H41.1028C41.522 0 41.7316 0.245245 41.7386 0.721722V0.95996C41.7386 1.39439 41.522 1.61161 41.1028 1.61161H39.8522V1.19119H41.0189C41.2146 1.19119 41.3124 1.10711 41.3124 0.938939V0.714715C41.3124 0.532533 41.2215 0.441441 41.0329 0.441441H39.6216V3.03403Z" fill="white"/>
<path d="M48.9838 0H50.2553C50.6815 0 50.8911 0.217217 50.8911 0.644645V2.38238C50.8911 2.81682 50.6745 3.03403 50.2553 3.03403H48.9838C48.5576 3.03403 48.348 2.81682 48.348 2.38238V0.651652C48.348 0.217217 48.5576 0 48.9838 0ZM48.7742 0.742743V2.31231C48.7742 2.5015 48.865 2.5996 49.0536 2.5996H50.1855C50.3741 2.5996 50.4649 2.5015 50.4649 2.31231V0.728729C50.4649 0.532533 50.3671 0.434434 50.1785 0.434434H49.0536C48.865 0.434434 48.7672 0.53954 48.7672 0.742743" fill="white"/>
</g>
<defs>
<clipPath id="clip0_613_430">
<rect width="62" height="21" fill="white"/>
</clipPath>
</defs>
</svg>
