<svg width="15" height="11" viewBox="0 0 15 11" fill="none" xmlns="http://www.w3.org/2000/svg">
<path d="M14.4638 3.58382C14.4638 2.72891 14.1401 1.909 13.5639 1.30449C12.9877 0.699967 12.2062 0.360352 11.3913 0.360352H3.53645C2.72155 0.360352 1.94003 0.699967 1.36381 1.30449C0.787581 1.909 0.463867 2.72891 0.463867 3.58382V7.42012C0.463867 7.84324 0.543364 8.26222 0.697825 8.65308C0.852285 9.04394 1.07867 9.39902 1.36404 9.69802C1.64941 9.99702 1.98815 10.2341 2.36091 10.3956C2.73367 10.5572 3.13313 10.64 3.53645 10.6395H11.3913C11.7946 10.64 12.194 10.5572 12.5668 10.3956C12.9396 10.2341 13.2783 9.99702 13.5637 9.69802C13.849 9.39902 14.0754 9.04394 14.2299 8.65308C14.3844 8.26222 14.4638 7.84324 14.4638 7.42012V3.58382ZM9.84522 5.79L6.34035 7.61623C6.20015 7.69385 5.73284 7.59171 5.73284 7.42421V3.67371C5.73284 3.5062 6.20405 3.39998 6.34425 3.48169L9.7167 5.40596C9.83742 5.49176 9.98541 5.70829 9.84522 5.79Z" fill="white"/>
</svg>
